M48
; DRILL file {KiCad (5.1.4)-1} date 09/08/19 23:13:01
; FORMAT={-:-/ absolute / inch / decimal}
; #@! TF.CreationDate,2019-09-08T23:13:01+02:00
; #@! TF.GenerationSoftware,Kicad,Pcbnew,(5.1.4)-1
; #@! TF.FileFunction,Plated,1,2,PTH
FMAT,2
INCH
T1C0.0157
T2C0.0276
T3C0.0358
T4C0.0374
T5C0.0394
%
G90
G05
T1
X-1.3563Y0.0395
X-1.3235Y1.0295
X-1.3235Y0.9795
X-1.3235Y0.9295
X-1.3235Y0.8795
X-1.3235Y0.8295
X-1.3235Y0.7795
X-1.3063Y0.0395
X-1.2735Y1.0295
X-1.2735Y0.9795
X-1.2735Y0.9295
X-1.2735Y0.8795
X-1.2735Y0.8295
X-1.2235Y1.0295
X-1.1735Y1.0295
X-1.1735Y0.6795
X-1.1063Y0.4295
X-0.9159Y0.0378
X-0.8235Y0.7295
X-0.8235Y0.6795
X-0.8235Y0.6295
X-0.8235Y0.5795
X-0.8235Y0.5295
X-0.7235Y0.0395
X-0.6735Y0.0395
X-0.1909Y0.5028
X-0.1563Y0.5395
X-0.1235Y0.0395
X-0.1063Y0.2895
X-0.0735Y0.0395
X-0.0563Y0.2895
X-0.0459Y1.0228
T2
X-1.344Y0.3535
X-1.285Y0.3535
X-1.2259Y0.3535
X-1.1669Y0.3535
X-1.1078Y0.3535
T3
X-1.1563Y0.9395
X-1.1563Y0.8395
X-1.0563Y0.9395
X-1.0563Y0.8395
X-0.9563Y0.9395
X-0.9563Y0.8395
X-0.8563Y0.9395
X-0.8563Y0.8395
X-0.7563Y0.9395
X-0.7563Y0.8395
X-0.6563Y0.9395
X-0.6563Y0.8395
X-0.5563Y0.9395
X-0.5563Y0.8395
X-0.4563Y0.9395
X-0.4563Y0.8395
X-0.3563Y0.9395
X-0.3563Y0.8395
X-0.2563Y0.9395
X-0.2563Y0.8395
T4
X-1.3059Y0.1528
X-1.2075Y0.1528
X-1.1091Y0.1528
X-1.0106Y0.1528
T5
X-0.5059Y0.1528
X-0.4075Y0.1528
X-0.9425Y0.4047
X-0.844Y0.4047
X-0.8059Y0.1528
X-0.7075Y0.1528
X-0.2059Y0.1528
X-0.1075Y0.1528
X-0.5776Y0.3975
X-0.4792Y0.3975
X-0.2059Y0.4028
X-0.1075Y0.4028
T0
M30
