G04 #@! TF.GenerationSoftware,KiCad,Pcbnew,(5.1.4)-1*
G04 #@! TF.CreationDate,2019-09-08T23:13:03+02:00*
G04 #@! TF.ProjectId,wanhao extruder pcb,77616e68-616f-4206-9578-747275646572,rev?*
G04 #@! TF.SameCoordinates,PXbb169cePY653deea*
G04 #@! TF.FileFunction,Copper,L2,Bot*
G04 #@! TF.FilePolarity,Positive*
%FSLAX46Y46*%
G04 Gerber Fmt 4.6, Leading zero omitted, Abs format (unit mm)*
G04 Created by KiCad (PCBNEW (5.1.4)-1) date 2019-09-08 23:13:03*
%MOMM*%
%LPD*%
G04 APERTURE LIST*
%ADD10C,0.100000*%
%ADD11C,1.700000*%
%ADD12O,1.700000X2.000000*%
%ADD13C,1.520000*%
%ADD14R,1.520000X1.520000*%
%ADD15C,1.208000*%
%ADD16O,1.700000X1.950000*%
%ADD17C,0.800000*%
%ADD18C,0.250000*%
%ADD19C,0.500000*%
%ADD20C,0.300000*%
%ADD21C,0.254000*%
%ADD22C,0.200000*%
G04 APERTURE END LIST*
D10*
G36*
X-14047610Y11094304D02*
G01*
X-14023351Y11090705D01*
X-13999562Y11084746D01*
X-13976471Y11076484D01*
X-13954302Y11065999D01*
X-13933267Y11053391D01*
X-13913569Y11038782D01*
X-13895398Y11022313D01*
X-13878929Y11004142D01*
X-13864320Y10984444D01*
X-13851712Y10963409D01*
X-13841227Y10941240D01*
X-13832965Y10918149D01*
X-13827006Y10894360D01*
X-13823407Y10870101D01*
X-13822204Y10845607D01*
X-13822204Y9345407D01*
X-13823407Y9320913D01*
X-13827006Y9296654D01*
X-13832965Y9272865D01*
X-13841227Y9249774D01*
X-13851712Y9227605D01*
X-13864320Y9206570D01*
X-13878929Y9186872D01*
X-13895398Y9168701D01*
X-13913569Y9152232D01*
X-13933267Y9137623D01*
X-13954302Y9125015D01*
X-13976471Y9114530D01*
X-13999562Y9106268D01*
X-14023351Y9100309D01*
X-14047610Y9096710D01*
X-14072104Y9095507D01*
X-15272304Y9095507D01*
X-15296798Y9096710D01*
X-15321057Y9100309D01*
X-15344846Y9106268D01*
X-15367937Y9114530D01*
X-15390106Y9125015D01*
X-15411141Y9137623D01*
X-15430839Y9152232D01*
X-15449010Y9168701D01*
X-15465479Y9186872D01*
X-15480088Y9206570D01*
X-15492696Y9227605D01*
X-15503181Y9249774D01*
X-15511443Y9272865D01*
X-15517402Y9296654D01*
X-15521001Y9320913D01*
X-15522204Y9345407D01*
X-15522204Y10845607D01*
X-15521001Y10870101D01*
X-15517402Y10894360D01*
X-15511443Y10918149D01*
X-15503181Y10941240D01*
X-15492696Y10963409D01*
X-15480088Y10984444D01*
X-15465479Y11004142D01*
X-15449010Y11022313D01*
X-15430839Y11038782D01*
X-15411141Y11053391D01*
X-15390106Y11065999D01*
X-15367937Y11076484D01*
X-15344846Y11084746D01*
X-15321057Y11090705D01*
X-15296798Y11094304D01*
X-15272304Y11095507D01*
X-14072104Y11095507D01*
X-14047610Y11094304D01*
X-14047610Y11094304D01*
G37*
D11*
X-14672204Y10095507D03*
D12*
X-12172204Y10095507D03*
D13*
X-29370722Y21323958D03*
X-29370722Y23863958D03*
X-26830722Y21323958D03*
X-26830722Y23863958D03*
X-24290722Y21323958D03*
X-24290722Y23863958D03*
X-21750722Y21323958D03*
X-21750722Y23863958D03*
X-19210722Y21323958D03*
X-19210722Y23863958D03*
X-16670722Y21323958D03*
X-16670722Y23863958D03*
X-14130722Y21323958D03*
X-14130722Y23863958D03*
X-11590722Y21323958D03*
X-11590722Y23863958D03*
X-9050722Y21323958D03*
X-9050722Y23863958D03*
X-6510722Y21323958D03*
D14*
X-6510722Y23863958D03*
D15*
X-28138355Y8979704D03*
X-29638355Y8979704D03*
X-31138355Y8979704D03*
X-32638355Y8979704D03*
X-34138355Y8979704D03*
D16*
X-25670484Y3880811D03*
X-28170484Y3880811D03*
X-30670484Y3880811D03*
D10*
G36*
X-32545980Y4854607D02*
G01*
X-32521711Y4851007D01*
X-32497913Y4845046D01*
X-32474813Y4836781D01*
X-32452635Y4826291D01*
X-32431591Y4813678D01*
X-32411886Y4799064D01*
X-32393707Y4782588D01*
X-32377231Y4764409D01*
X-32362617Y4744704D01*
X-32350004Y4723660D01*
X-32339514Y4701482D01*
X-32331249Y4678382D01*
X-32325288Y4654584D01*
X-32321688Y4630315D01*
X-32320484Y4605811D01*
X-32320484Y3155811D01*
X-32321688Y3131307D01*
X-32325288Y3107038D01*
X-32331249Y3083240D01*
X-32339514Y3060140D01*
X-32350004Y3037962D01*
X-32362617Y3016918D01*
X-32377231Y2997213D01*
X-32393707Y2979034D01*
X-32411886Y2962558D01*
X-32431591Y2947944D01*
X-32452635Y2935331D01*
X-32474813Y2924841D01*
X-32497913Y2916576D01*
X-32521711Y2910615D01*
X-32545980Y2907015D01*
X-32570484Y2905811D01*
X-33770484Y2905811D01*
X-33794988Y2907015D01*
X-33819257Y2910615D01*
X-33843055Y2916576D01*
X-33866155Y2924841D01*
X-33888333Y2935331D01*
X-33909377Y2947944D01*
X-33929082Y2962558D01*
X-33947261Y2979034D01*
X-33963737Y2997213D01*
X-33978351Y3016918D01*
X-33990964Y3037962D01*
X-34001454Y3060140D01*
X-34009719Y3083240D01*
X-34015680Y3107038D01*
X-34019280Y3131307D01*
X-34020484Y3155811D01*
X-34020484Y4605811D01*
X-34019280Y4630315D01*
X-34015680Y4654584D01*
X-34009719Y4678382D01*
X-34001454Y4701482D01*
X-33990964Y4723660D01*
X-33978351Y4744704D01*
X-33963737Y4764409D01*
X-33947261Y4782588D01*
X-33929082Y4799064D01*
X-33909377Y4813678D01*
X-33888333Y4826291D01*
X-33866155Y4836781D01*
X-33843055Y4845046D01*
X-33819257Y4851007D01*
X-33794988Y4854607D01*
X-33770484Y4855811D01*
X-32570484Y4855811D01*
X-32545980Y4854607D01*
X-32545980Y4854607D01*
G37*
D11*
X-33170484Y3880811D03*
D10*
G36*
X-4605980Y11229607D02*
G01*
X-4581711Y11226007D01*
X-4557913Y11220046D01*
X-4534813Y11211781D01*
X-4512635Y11201291D01*
X-4491591Y11188678D01*
X-4471886Y11174064D01*
X-4453707Y11157588D01*
X-4437231Y11139409D01*
X-4422617Y11119704D01*
X-4410004Y11098660D01*
X-4399514Y11076482D01*
X-4391249Y11053382D01*
X-4385288Y11029584D01*
X-4381688Y11005315D01*
X-4380484Y10980811D01*
X-4380484Y9480811D01*
X-4381688Y9456307D01*
X-4385288Y9432038D01*
X-4391249Y9408240D01*
X-4399514Y9385140D01*
X-4410004Y9362962D01*
X-4422617Y9341918D01*
X-4437231Y9322213D01*
X-4453707Y9304034D01*
X-4471886Y9287558D01*
X-4491591Y9272944D01*
X-4512635Y9260331D01*
X-4534813Y9249841D01*
X-4557913Y9241576D01*
X-4581711Y9235615D01*
X-4605980Y9232015D01*
X-4630484Y9230811D01*
X-5830484Y9230811D01*
X-5854988Y9232015D01*
X-5879257Y9235615D01*
X-5903055Y9241576D01*
X-5926155Y9249841D01*
X-5948333Y9260331D01*
X-5969377Y9272944D01*
X-5989082Y9287558D01*
X-6007261Y9304034D01*
X-6023737Y9322213D01*
X-6038351Y9341918D01*
X-6050964Y9362962D01*
X-6061454Y9385140D01*
X-6069719Y9408240D01*
X-6075680Y9432038D01*
X-6079280Y9456307D01*
X-6080484Y9480811D01*
X-6080484Y10980811D01*
X-6079280Y11005315D01*
X-6075680Y11029584D01*
X-6069719Y11053382D01*
X-6061454Y11076482D01*
X-6050964Y11098660D01*
X-6038351Y11119704D01*
X-6023737Y11139409D01*
X-6007261Y11157588D01*
X-5989082Y11174064D01*
X-5969377Y11188678D01*
X-5948333Y11201291D01*
X-5926155Y11211781D01*
X-5903055Y11220046D01*
X-5879257Y11226007D01*
X-5854988Y11229607D01*
X-5830484Y11230811D01*
X-4630484Y11230811D01*
X-4605980Y11229607D01*
X-4605980Y11229607D01*
G37*
D11*
X-5230484Y10230811D03*
D12*
X-2730484Y10230811D03*
D10*
G36*
X-23313851Y11278500D02*
G01*
X-23289582Y11274900D01*
X-23265784Y11268939D01*
X-23242684Y11260674D01*
X-23220506Y11250184D01*
X-23199462Y11237571D01*
X-23179757Y11222957D01*
X-23161578Y11206481D01*
X-23145102Y11188302D01*
X-23130488Y11168597D01*
X-23117875Y11147553D01*
X-23107385Y11125375D01*
X-23099120Y11102275D01*
X-23093159Y11078477D01*
X-23089559Y11054208D01*
X-23088355Y11029704D01*
X-23088355Y9529704D01*
X-23089559Y9505200D01*
X-23093159Y9480931D01*
X-23099120Y9457133D01*
X-23107385Y9434033D01*
X-23117875Y9411855D01*
X-23130488Y9390811D01*
X-23145102Y9371106D01*
X-23161578Y9352927D01*
X-23179757Y9336451D01*
X-23199462Y9321837D01*
X-23220506Y9309224D01*
X-23242684Y9298734D01*
X-23265784Y9290469D01*
X-23289582Y9284508D01*
X-23313851Y9280908D01*
X-23338355Y9279704D01*
X-24538355Y9279704D01*
X-24562859Y9280908D01*
X-24587128Y9284508D01*
X-24610926Y9290469D01*
X-24634026Y9298734D01*
X-24656204Y9309224D01*
X-24677248Y9321837D01*
X-24696953Y9336451D01*
X-24715132Y9352927D01*
X-24731608Y9371106D01*
X-24746222Y9390811D01*
X-24758835Y9411855D01*
X-24769325Y9434033D01*
X-24777590Y9457133D01*
X-24783551Y9480931D01*
X-24787151Y9505200D01*
X-24788355Y9529704D01*
X-24788355Y11029704D01*
X-24787151Y11054208D01*
X-24783551Y11078477D01*
X-24777590Y11102275D01*
X-24769325Y11125375D01*
X-24758835Y11147553D01*
X-24746222Y11168597D01*
X-24731608Y11188302D01*
X-24715132Y11206481D01*
X-24696953Y11222957D01*
X-24677248Y11237571D01*
X-24656204Y11250184D01*
X-24634026Y11260674D01*
X-24610926Y11268939D01*
X-24587128Y11274900D01*
X-24562859Y11278500D01*
X-24538355Y11279704D01*
X-23338355Y11279704D01*
X-23313851Y11278500D01*
X-23313851Y11278500D01*
G37*
D11*
X-23938355Y10279704D03*
D12*
X-21438355Y10279704D03*
X-2730484Y3880811D03*
D10*
G36*
X-4605980Y4879607D02*
G01*
X-4581711Y4876007D01*
X-4557913Y4870046D01*
X-4534813Y4861781D01*
X-4512635Y4851291D01*
X-4491591Y4838678D01*
X-4471886Y4824064D01*
X-4453707Y4807588D01*
X-4437231Y4789409D01*
X-4422617Y4769704D01*
X-4410004Y4748660D01*
X-4399514Y4726482D01*
X-4391249Y4703382D01*
X-4385288Y4679584D01*
X-4381688Y4655315D01*
X-4380484Y4630811D01*
X-4380484Y3130811D01*
X-4381688Y3106307D01*
X-4385288Y3082038D01*
X-4391249Y3058240D01*
X-4399514Y3035140D01*
X-4410004Y3012962D01*
X-4422617Y2991918D01*
X-4437231Y2972213D01*
X-4453707Y2954034D01*
X-4471886Y2937558D01*
X-4491591Y2922944D01*
X-4512635Y2910331D01*
X-4534813Y2899841D01*
X-4557913Y2891576D01*
X-4581711Y2885615D01*
X-4605980Y2882015D01*
X-4630484Y2880811D01*
X-5830484Y2880811D01*
X-5854988Y2882015D01*
X-5879257Y2885615D01*
X-5903055Y2891576D01*
X-5926155Y2899841D01*
X-5948333Y2910331D01*
X-5969377Y2922944D01*
X-5989082Y2937558D01*
X-6007261Y2954034D01*
X-6023737Y2972213D01*
X-6038351Y2991918D01*
X-6050964Y3012962D01*
X-6061454Y3035140D01*
X-6069719Y3058240D01*
X-6075680Y3082038D01*
X-6079280Y3106307D01*
X-6080484Y3130811D01*
X-6080484Y4630811D01*
X-6079280Y4655315D01*
X-6075680Y4679584D01*
X-6069719Y4703382D01*
X-6061454Y4726482D01*
X-6050964Y4748660D01*
X-6038351Y4769704D01*
X-6023737Y4789409D01*
X-6007261Y4807588D01*
X-5989082Y4824064D01*
X-5969377Y4838678D01*
X-5948333Y4851291D01*
X-5926155Y4861781D01*
X-5903055Y4870046D01*
X-5879257Y4876007D01*
X-5854988Y4879607D01*
X-5830484Y4880811D01*
X-4630484Y4880811D01*
X-4605980Y4879607D01*
X-4605980Y4879607D01*
G37*
D11*
X-5230484Y3880811D03*
D12*
X-10350484Y3880811D03*
D10*
G36*
X-12225980Y4879607D02*
G01*
X-12201711Y4876007D01*
X-12177913Y4870046D01*
X-12154813Y4861781D01*
X-12132635Y4851291D01*
X-12111591Y4838678D01*
X-12091886Y4824064D01*
X-12073707Y4807588D01*
X-12057231Y4789409D01*
X-12042617Y4769704D01*
X-12030004Y4748660D01*
X-12019514Y4726482D01*
X-12011249Y4703382D01*
X-12005288Y4679584D01*
X-12001688Y4655315D01*
X-12000484Y4630811D01*
X-12000484Y3130811D01*
X-12001688Y3106307D01*
X-12005288Y3082038D01*
X-12011249Y3058240D01*
X-12019514Y3035140D01*
X-12030004Y3012962D01*
X-12042617Y2991918D01*
X-12057231Y2972213D01*
X-12073707Y2954034D01*
X-12091886Y2937558D01*
X-12111591Y2922944D01*
X-12132635Y2910331D01*
X-12154813Y2899841D01*
X-12177913Y2891576D01*
X-12201711Y2885615D01*
X-12225980Y2882015D01*
X-12250484Y2880811D01*
X-13450484Y2880811D01*
X-13474988Y2882015D01*
X-13499257Y2885615D01*
X-13523055Y2891576D01*
X-13546155Y2899841D01*
X-13568333Y2910331D01*
X-13589377Y2922944D01*
X-13609082Y2937558D01*
X-13627261Y2954034D01*
X-13643737Y2972213D01*
X-13658351Y2991918D01*
X-13670964Y3012962D01*
X-13681454Y3035140D01*
X-13689719Y3058240D01*
X-13695680Y3082038D01*
X-13699280Y3106307D01*
X-13700484Y3130811D01*
X-13700484Y4630811D01*
X-13699280Y4655315D01*
X-13695680Y4679584D01*
X-13689719Y4703382D01*
X-13681454Y4726482D01*
X-13670964Y4748660D01*
X-13658351Y4769704D01*
X-13643737Y4789409D01*
X-13627261Y4807588D01*
X-13609082Y4824064D01*
X-13589377Y4838678D01*
X-13568333Y4851291D01*
X-13546155Y4861781D01*
X-13523055Y4870046D01*
X-13499257Y4876007D01*
X-13474988Y4879607D01*
X-13450484Y4880811D01*
X-12250484Y4880811D01*
X-12225980Y4879607D01*
X-12225980Y4879607D01*
G37*
D11*
X-12850484Y3880811D03*
D12*
X-17970484Y3880811D03*
D10*
G36*
X-19845980Y4879607D02*
G01*
X-19821711Y4876007D01*
X-19797913Y4870046D01*
X-19774813Y4861781D01*
X-19752635Y4851291D01*
X-19731591Y4838678D01*
X-19711886Y4824064D01*
X-19693707Y4807588D01*
X-19677231Y4789409D01*
X-19662617Y4769704D01*
X-19650004Y4748660D01*
X-19639514Y4726482D01*
X-19631249Y4703382D01*
X-19625288Y4679584D01*
X-19621688Y4655315D01*
X-19620484Y4630811D01*
X-19620484Y3130811D01*
X-19621688Y3106307D01*
X-19625288Y3082038D01*
X-19631249Y3058240D01*
X-19639514Y3035140D01*
X-19650004Y3012962D01*
X-19662617Y2991918D01*
X-19677231Y2972213D01*
X-19693707Y2954034D01*
X-19711886Y2937558D01*
X-19731591Y2922944D01*
X-19752635Y2910331D01*
X-19774813Y2899841D01*
X-19797913Y2891576D01*
X-19821711Y2885615D01*
X-19845980Y2882015D01*
X-19870484Y2880811D01*
X-21070484Y2880811D01*
X-21094988Y2882015D01*
X-21119257Y2885615D01*
X-21143055Y2891576D01*
X-21166155Y2899841D01*
X-21188333Y2910331D01*
X-21209377Y2922944D01*
X-21229082Y2937558D01*
X-21247261Y2954034D01*
X-21263737Y2972213D01*
X-21278351Y2991918D01*
X-21290964Y3012962D01*
X-21301454Y3035140D01*
X-21309719Y3058240D01*
X-21315680Y3082038D01*
X-21319280Y3106307D01*
X-21320484Y3130811D01*
X-21320484Y4630811D01*
X-21319280Y4655315D01*
X-21315680Y4679584D01*
X-21309719Y4703382D01*
X-21301454Y4726482D01*
X-21290964Y4748660D01*
X-21278351Y4769704D01*
X-21263737Y4789409D01*
X-21247261Y4807588D01*
X-21229082Y4824064D01*
X-21209377Y4838678D01*
X-21188333Y4851291D01*
X-21166155Y4861781D01*
X-21143055Y4870046D01*
X-21119257Y4876007D01*
X-21094988Y4879607D01*
X-21070484Y4880811D01*
X-19870484Y4880811D01*
X-19845980Y4879607D01*
X-19845980Y4879607D01*
G37*
D11*
X-20470484Y3880811D03*
D17*
X-29806334Y26149850D03*
X-31076334Y26149850D03*
X-32346334Y26149850D03*
X-33616334Y26149850D03*
X-33616334Y24879850D03*
X-32346334Y24879850D03*
X-32346334Y23609850D03*
X-33616334Y23609850D03*
X-33616334Y22339850D03*
X-32346334Y22339850D03*
X-32346334Y21069850D03*
X-33616334Y21069850D03*
X-29806334Y17259850D03*
X-33616334Y19799850D03*
X-20916334Y17259850D03*
X-20916334Y15989850D03*
X-20916334Y14719850D03*
X-20916334Y13449850D03*
X-20916334Y18529850D03*
X-1866334Y1003958D03*
X-3136334Y1003958D03*
X-17106334Y1003958D03*
X-18376334Y1003958D03*
X-1430722Y7353958D03*
X-2700722Y7353958D03*
X-3970722Y13703958D03*
X-34450722Y1003958D03*
X-33180722Y1003958D03*
X-28100722Y10909850D03*
X-4849484Y12770811D03*
X-23264484Y959811D03*
X-1166484Y25978811D03*
D18*
X-32892355Y7645871D02*
X-32346334Y7099850D01*
X-32638647Y8125228D02*
X-32638647Y7626870D01*
X-32638355Y8979704D02*
X-32638355Y8125520D01*
X-32638355Y8125520D02*
X-32638647Y8125228D01*
X-32645897Y9841430D02*
X-32645897Y10446997D01*
X-32638355Y8979704D02*
X-32638355Y9833888D01*
X-32638355Y9833888D02*
X-32645897Y9841430D01*
X-28138355Y8979704D02*
X-28138355Y7738682D01*
D19*
X-11590722Y23863958D02*
X-11590722Y21323958D01*
X-14130722Y23863958D02*
X-11590722Y23863958D01*
X-14130722Y21323958D02*
X-14130722Y23863958D01*
X-11590722Y21323958D02*
X-14130722Y21323958D01*
X-9050722Y21323958D02*
X-9050722Y23863958D01*
X-6510722Y21323958D02*
X-9050722Y21323958D01*
X-6510722Y23863958D02*
X-6510722Y21323958D01*
X-9050722Y23863958D02*
X-6510722Y23863958D01*
D18*
X-4849484Y10230811D02*
X-1866334Y13213961D01*
X-26830722Y23863958D02*
X-24588869Y26105811D01*
X-24588869Y26105811D02*
X-3452484Y26105811D01*
X-1866334Y24519661D02*
X-1866334Y13213961D01*
X-3452484Y26105811D02*
X-1866334Y24519661D01*
X-2349484Y4030811D02*
X-2349484Y3880811D01*
X-8216334Y9897661D02*
X-2349484Y4030811D01*
X-3136334Y24879850D02*
X-3136334Y17259850D01*
X-3136334Y17259850D02*
X-8216334Y12179850D01*
X-8216334Y12179850D02*
X-8216334Y9897661D01*
X-21750722Y24938760D02*
X-21218671Y25470811D01*
X-21750722Y23863958D02*
X-21750722Y24938760D01*
X-3727295Y25470811D02*
X-3136334Y24879850D01*
X-21218671Y25470811D02*
X-3727295Y25470811D01*
D20*
X-19210722Y10075462D02*
X-19210722Y21323958D01*
X-20916334Y8369850D02*
X-19210722Y10075462D01*
X-21306445Y8369850D02*
X-20916334Y8369850D01*
X-25670484Y4005811D02*
X-21306445Y8369850D01*
X-25670484Y3880811D02*
X-25670484Y4005811D01*
X-18376334Y19618346D02*
X-16670722Y21323958D01*
X-18376334Y9639850D02*
X-18376334Y19618346D01*
X-24529991Y2019850D02*
X-23010484Y3539357D01*
X-23010484Y5005700D02*
X-18376334Y9639850D01*
X-23010484Y3539357D02*
X-23010484Y5005700D01*
X-31309523Y2019850D02*
X-33170484Y3880811D01*
X-24529991Y2019850D02*
X-31309523Y2019850D01*
D21*
G36*
X-4533334Y18577568D02*
G01*
X-8946911Y13533480D01*
X-8961390Y13513227D01*
X-8971640Y13490538D01*
X-8977266Y13466286D01*
X-8978334Y13449850D01*
X-8978334Y12196866D01*
X-8980010Y12179850D01*
X-8978334Y12162833D01*
X-8978334Y9914677D01*
X-8980010Y9897661D01*
X-8978334Y9880645D01*
X-8978334Y4587810D01*
X-9071459Y4787623D01*
X-9243682Y5022606D01*
X-9458438Y5219475D01*
X-9707475Y5370665D01*
X-9981223Y5470365D01*
X-9993594Y5472287D01*
X-10223484Y5350966D01*
X-10223484Y4007811D01*
X-10203484Y4007811D01*
X-10203484Y3753811D01*
X-10223484Y3753811D01*
X-10223484Y3733811D01*
X-10477484Y3733811D01*
X-10477484Y3753811D01*
X-10497484Y3753811D01*
X-10497484Y4007811D01*
X-10477484Y4007811D01*
X-10477484Y5350966D01*
X-10707374Y5472287D01*
X-10719745Y5470365D01*
X-10993493Y5370665D01*
X-11242530Y5219475D01*
X-11457286Y5022606D01*
X-11457570Y5022218D01*
X-11512079Y5124197D01*
X-11622522Y5258773D01*
X-11757098Y5369216D01*
X-11899334Y5445243D01*
X-11899334Y8548371D01*
X-11815314Y8504031D01*
X-11802943Y8505953D01*
X-11529195Y8605653D01*
X-11280158Y8756843D01*
X-11065402Y8953712D01*
X-10893179Y9188695D01*
X-10770108Y9452762D01*
X-10700919Y9735765D01*
X-10844972Y9968507D01*
X-11899334Y9968507D01*
X-11899334Y10222507D01*
X-10844972Y10222507D01*
X-10700919Y10455249D01*
X-10770108Y10738252D01*
X-10893179Y11002319D01*
X-11065402Y11237302D01*
X-11132341Y11298666D01*
X-11067527Y11311558D01*
X-10560689Y11521497D01*
X-10104547Y11826282D01*
X-9716631Y12214198D01*
X-9411846Y12670340D01*
X-9201907Y13177178D01*
X-9094881Y13715233D01*
X-9094881Y14263831D01*
X-9201907Y14801886D01*
X-9411846Y15308724D01*
X-9716631Y15764866D01*
X-10104547Y16152782D01*
X-10560689Y16457567D01*
X-11067527Y16667506D01*
X-11152225Y16684353D01*
X-9396531Y18440047D01*
X-9380737Y18459293D01*
X-9369001Y18481249D01*
X-9361774Y18505074D01*
X-9359334Y18529850D01*
X-9359334Y19963236D01*
X-9253116Y19936897D01*
X-8978625Y19924063D01*
X-8706905Y19965027D01*
X-8448396Y20058214D01*
X-8332928Y20119933D01*
X-8266191Y20359821D01*
X-7295253Y20359821D01*
X-7228516Y20119933D01*
X-6979830Y20003034D01*
X-6713116Y19936897D01*
X-6438625Y19924063D01*
X-6166905Y19965027D01*
X-5908396Y20058214D01*
X-5792928Y20119933D01*
X-5726191Y20359821D01*
X-6510722Y21144353D01*
X-7295253Y20359821D01*
X-8266191Y20359821D01*
X-9050722Y21144353D01*
X-9064864Y21130210D01*
X-9244469Y21309815D01*
X-9230327Y21323958D01*
X-8871117Y21323958D01*
X-8086585Y20539427D01*
X-7846697Y20606164D01*
X-7783390Y20740840D01*
X-7776466Y20721632D01*
X-7714747Y20606164D01*
X-7474859Y20539427D01*
X-6690327Y21323958D01*
X-6331117Y21323958D01*
X-5546585Y20539427D01*
X-5306697Y20606164D01*
X-5189798Y20854850D01*
X-5123661Y21121564D01*
X-5110827Y21396055D01*
X-5151791Y21667775D01*
X-5244978Y21926284D01*
X-5306697Y22041752D01*
X-5546585Y22108489D01*
X-6331117Y21323958D01*
X-6690327Y21323958D01*
X-7474859Y22108489D01*
X-7714747Y22041752D01*
X-7778054Y21907076D01*
X-7784978Y21926284D01*
X-7846697Y22041752D01*
X-8086585Y22108489D01*
X-8871117Y21323958D01*
X-9230327Y21323958D01*
X-9244469Y21338100D01*
X-9064864Y21517705D01*
X-9050722Y21503563D01*
X-8266191Y22288095D01*
X-8332928Y22527983D01*
X-8467604Y22591290D01*
X-8448396Y22598214D01*
X-8332928Y22659933D01*
X-8266191Y22899821D01*
X-9050722Y23684353D01*
X-9064864Y23670210D01*
X-9244469Y23849815D01*
X-9230327Y23863958D01*
X-9244469Y23878100D01*
X-9064864Y24057705D01*
X-9050722Y24043563D01*
X-9036580Y24057706D01*
X-8856974Y23878100D01*
X-8871117Y23863958D01*
X-8086585Y23079427D01*
X-7908632Y23128934D01*
X-7908794Y23103958D01*
X-7896534Y22979476D01*
X-7860224Y22859778D01*
X-7801259Y22749464D01*
X-7721907Y22652773D01*
X-7625216Y22573421D01*
X-7514902Y22514456D01*
X-7395204Y22478146D01*
X-7270722Y22465886D01*
X-7245746Y22466048D01*
X-7295253Y22288095D01*
X-6510722Y21503563D01*
X-5726191Y22288095D01*
X-5775698Y22466048D01*
X-5750722Y22465886D01*
X-5626240Y22478146D01*
X-5506542Y22514456D01*
X-5396228Y22573421D01*
X-5299537Y22652773D01*
X-5220185Y22749464D01*
X-5161220Y22859778D01*
X-5124910Y22979476D01*
X-5112650Y23103958D01*
X-5115722Y23578208D01*
X-5274472Y23736958D01*
X-6383722Y23736958D01*
X-6383722Y23716958D01*
X-6637722Y23716958D01*
X-6637722Y23736958D01*
X-6657722Y23736958D01*
X-6657722Y23990958D01*
X-6637722Y23990958D01*
X-6637722Y24010958D01*
X-6383722Y24010958D01*
X-6383722Y23990958D01*
X-5274472Y23990958D01*
X-5115722Y24149708D01*
X-5112923Y24581811D01*
X-4533334Y24581811D01*
X-4533334Y18577568D01*
X-4533334Y18577568D01*
G37*
X-4533334Y18577568D02*
X-8946911Y13533480D01*
X-8961390Y13513227D01*
X-8971640Y13490538D01*
X-8977266Y13466286D01*
X-8978334Y13449850D01*
X-8978334Y12196866D01*
X-8980010Y12179850D01*
X-8978334Y12162833D01*
X-8978334Y9914677D01*
X-8980010Y9897661D01*
X-8978334Y9880645D01*
X-8978334Y4587810D01*
X-9071459Y4787623D01*
X-9243682Y5022606D01*
X-9458438Y5219475D01*
X-9707475Y5370665D01*
X-9981223Y5470365D01*
X-9993594Y5472287D01*
X-10223484Y5350966D01*
X-10223484Y4007811D01*
X-10203484Y4007811D01*
X-10203484Y3753811D01*
X-10223484Y3753811D01*
X-10223484Y3733811D01*
X-10477484Y3733811D01*
X-10477484Y3753811D01*
X-10497484Y3753811D01*
X-10497484Y4007811D01*
X-10477484Y4007811D01*
X-10477484Y5350966D01*
X-10707374Y5472287D01*
X-10719745Y5470365D01*
X-10993493Y5370665D01*
X-11242530Y5219475D01*
X-11457286Y5022606D01*
X-11457570Y5022218D01*
X-11512079Y5124197D01*
X-11622522Y5258773D01*
X-11757098Y5369216D01*
X-11899334Y5445243D01*
X-11899334Y8548371D01*
X-11815314Y8504031D01*
X-11802943Y8505953D01*
X-11529195Y8605653D01*
X-11280158Y8756843D01*
X-11065402Y8953712D01*
X-10893179Y9188695D01*
X-10770108Y9452762D01*
X-10700919Y9735765D01*
X-10844972Y9968507D01*
X-11899334Y9968507D01*
X-11899334Y10222507D01*
X-10844972Y10222507D01*
X-10700919Y10455249D01*
X-10770108Y10738252D01*
X-10893179Y11002319D01*
X-11065402Y11237302D01*
X-11132341Y11298666D01*
X-11067527Y11311558D01*
X-10560689Y11521497D01*
X-10104547Y11826282D01*
X-9716631Y12214198D01*
X-9411846Y12670340D01*
X-9201907Y13177178D01*
X-9094881Y13715233D01*
X-9094881Y14263831D01*
X-9201907Y14801886D01*
X-9411846Y15308724D01*
X-9716631Y15764866D01*
X-10104547Y16152782D01*
X-10560689Y16457567D01*
X-11067527Y16667506D01*
X-11152225Y16684353D01*
X-9396531Y18440047D01*
X-9380737Y18459293D01*
X-9369001Y18481249D01*
X-9361774Y18505074D01*
X-9359334Y18529850D01*
X-9359334Y19963236D01*
X-9253116Y19936897D01*
X-8978625Y19924063D01*
X-8706905Y19965027D01*
X-8448396Y20058214D01*
X-8332928Y20119933D01*
X-8266191Y20359821D01*
X-7295253Y20359821D01*
X-7228516Y20119933D01*
X-6979830Y20003034D01*
X-6713116Y19936897D01*
X-6438625Y19924063D01*
X-6166905Y19965027D01*
X-5908396Y20058214D01*
X-5792928Y20119933D01*
X-5726191Y20359821D01*
X-6510722Y21144353D01*
X-7295253Y20359821D01*
X-8266191Y20359821D01*
X-9050722Y21144353D01*
X-9064864Y21130210D01*
X-9244469Y21309815D01*
X-9230327Y21323958D01*
X-8871117Y21323958D01*
X-8086585Y20539427D01*
X-7846697Y20606164D01*
X-7783390Y20740840D01*
X-7776466Y20721632D01*
X-7714747Y20606164D01*
X-7474859Y20539427D01*
X-6690327Y21323958D01*
X-6331117Y21323958D01*
X-5546585Y20539427D01*
X-5306697Y20606164D01*
X-5189798Y20854850D01*
X-5123661Y21121564D01*
X-5110827Y21396055D01*
X-5151791Y21667775D01*
X-5244978Y21926284D01*
X-5306697Y22041752D01*
X-5546585Y22108489D01*
X-6331117Y21323958D01*
X-6690327Y21323958D01*
X-7474859Y22108489D01*
X-7714747Y22041752D01*
X-7778054Y21907076D01*
X-7784978Y21926284D01*
X-7846697Y22041752D01*
X-8086585Y22108489D01*
X-8871117Y21323958D01*
X-9230327Y21323958D01*
X-9244469Y21338100D01*
X-9064864Y21517705D01*
X-9050722Y21503563D01*
X-8266191Y22288095D01*
X-8332928Y22527983D01*
X-8467604Y22591290D01*
X-8448396Y22598214D01*
X-8332928Y22659933D01*
X-8266191Y22899821D01*
X-9050722Y23684353D01*
X-9064864Y23670210D01*
X-9244469Y23849815D01*
X-9230327Y23863958D01*
X-9244469Y23878100D01*
X-9064864Y24057705D01*
X-9050722Y24043563D01*
X-9036580Y24057706D01*
X-8856974Y23878100D01*
X-8871117Y23863958D01*
X-8086585Y23079427D01*
X-7908632Y23128934D01*
X-7908794Y23103958D01*
X-7896534Y22979476D01*
X-7860224Y22859778D01*
X-7801259Y22749464D01*
X-7721907Y22652773D01*
X-7625216Y22573421D01*
X-7514902Y22514456D01*
X-7395204Y22478146D01*
X-7270722Y22465886D01*
X-7245746Y22466048D01*
X-7295253Y22288095D01*
X-6510722Y21503563D01*
X-5726191Y22288095D01*
X-5775698Y22466048D01*
X-5750722Y22465886D01*
X-5626240Y22478146D01*
X-5506542Y22514456D01*
X-5396228Y22573421D01*
X-5299537Y22652773D01*
X-5220185Y22749464D01*
X-5161220Y22859778D01*
X-5124910Y22979476D01*
X-5112650Y23103958D01*
X-5115722Y23578208D01*
X-5274472Y23736958D01*
X-6383722Y23736958D01*
X-6383722Y23716958D01*
X-6637722Y23716958D01*
X-6637722Y23736958D01*
X-6657722Y23736958D01*
X-6657722Y23990958D01*
X-6637722Y23990958D01*
X-6637722Y24010958D01*
X-6383722Y24010958D01*
X-6383722Y23990958D01*
X-5274472Y23990958D01*
X-5115722Y24149708D01*
X-5112923Y24581811D01*
X-4533334Y24581811D01*
X-4533334Y18577568D01*
D22*
G36*
X-657999Y658000D02*
G01*
X-4908342Y658000D01*
X-3976413Y1589929D01*
X-3900800Y1682063D01*
X-3844615Y1787178D01*
X-3810017Y1901235D01*
X-3798334Y2019850D01*
X-3798334Y2733732D01*
X-3766433Y2694861D01*
X-3544423Y2512663D01*
X-3291135Y2377278D01*
X-3016301Y2293908D01*
X-2730484Y2265757D01*
X-2444666Y2293908D01*
X-2169832Y2377278D01*
X-1916544Y2512663D01*
X-1694534Y2694861D01*
X-1512336Y2916871D01*
X-1376951Y3170160D01*
X-1293581Y3444994D01*
X-1272484Y3659193D01*
X-1272484Y4102430D01*
X-1293581Y4316629D01*
X-1376951Y4591463D01*
X-1512336Y4844751D01*
X-1694535Y5066761D01*
X-1916545Y5248959D01*
X-2169833Y5384344D01*
X-2444667Y5467714D01*
X-2730484Y5495865D01*
X-2773667Y5491612D01*
X-5909730Y8627675D01*
X-5830484Y8619870D01*
X-4630484Y8619870D01*
X-4462523Y8636413D01*
X-4301016Y8685405D01*
X-4152171Y8764965D01*
X-4021707Y8872034D01*
X-3914638Y9002498D01*
X-3839679Y9142736D01*
X-3798256Y9088326D01*
X-3584115Y8899084D01*
X-3337169Y8755255D01*
X-3109394Y8672908D01*
X-2884484Y8783922D01*
X-2884484Y10076811D01*
X-2576484Y10076811D01*
X-2576484Y8783922D01*
X-2351574Y8672908D01*
X-2123799Y8755255D01*
X-1876853Y8899084D01*
X-1662712Y9088326D01*
X-1489605Y9315708D01*
X-1364184Y9572493D01*
X-1291269Y9848812D01*
X-1424695Y10076811D01*
X-2576484Y10076811D01*
X-2884484Y10076811D01*
X-2904484Y10076811D01*
X-2904484Y10384811D01*
X-2884484Y10384811D01*
X-2884484Y10404811D01*
X-2576484Y10404811D01*
X-2576484Y10384811D01*
X-1424695Y10384811D01*
X-1291269Y10612810D01*
X-1364184Y10889129D01*
X-1489605Y11145914D01*
X-1662712Y11373296D01*
X-1876853Y11562538D01*
X-2123799Y11706367D01*
X-2280616Y11763061D01*
X-1373483Y12670193D01*
X-1345517Y12693144D01*
X-1253918Y12804758D01*
X-1185854Y12932097D01*
X-1143941Y13070268D01*
X-1133334Y13177959D01*
X-1129788Y13213960D01*
X-1133334Y13249962D01*
X-1133334Y24483659D01*
X-1129788Y24519661D01*
X-1143941Y24663355D01*
X-1185854Y24801525D01*
X-1253918Y24928864D01*
X-1345518Y25040478D01*
X-1373484Y25063429D01*
X-2908711Y26598656D01*
X-2931667Y26626628D01*
X-3043281Y26718227D01*
X-3124894Y26761850D01*
X-658000Y26761850D01*
X-657999Y658000D01*
X-657999Y658000D01*
G37*
X-657999Y658000D02*
X-4908342Y658000D01*
X-3976413Y1589929D01*
X-3900800Y1682063D01*
X-3844615Y1787178D01*
X-3810017Y1901235D01*
X-3798334Y2019850D01*
X-3798334Y2733732D01*
X-3766433Y2694861D01*
X-3544423Y2512663D01*
X-3291135Y2377278D01*
X-3016301Y2293908D01*
X-2730484Y2265757D01*
X-2444666Y2293908D01*
X-2169832Y2377278D01*
X-1916544Y2512663D01*
X-1694534Y2694861D01*
X-1512336Y2916871D01*
X-1376951Y3170160D01*
X-1293581Y3444994D01*
X-1272484Y3659193D01*
X-1272484Y4102430D01*
X-1293581Y4316629D01*
X-1376951Y4591463D01*
X-1512336Y4844751D01*
X-1694535Y5066761D01*
X-1916545Y5248959D01*
X-2169833Y5384344D01*
X-2444667Y5467714D01*
X-2730484Y5495865D01*
X-2773667Y5491612D01*
X-5909730Y8627675D01*
X-5830484Y8619870D01*
X-4630484Y8619870D01*
X-4462523Y8636413D01*
X-4301016Y8685405D01*
X-4152171Y8764965D01*
X-4021707Y8872034D01*
X-3914638Y9002498D01*
X-3839679Y9142736D01*
X-3798256Y9088326D01*
X-3584115Y8899084D01*
X-3337169Y8755255D01*
X-3109394Y8672908D01*
X-2884484Y8783922D01*
X-2884484Y10076811D01*
X-2576484Y10076811D01*
X-2576484Y8783922D01*
X-2351574Y8672908D01*
X-2123799Y8755255D01*
X-1876853Y8899084D01*
X-1662712Y9088326D01*
X-1489605Y9315708D01*
X-1364184Y9572493D01*
X-1291269Y9848812D01*
X-1424695Y10076811D01*
X-2576484Y10076811D01*
X-2884484Y10076811D01*
X-2904484Y10076811D01*
X-2904484Y10384811D01*
X-2884484Y10384811D01*
X-2884484Y10404811D01*
X-2576484Y10404811D01*
X-2576484Y10384811D01*
X-1424695Y10384811D01*
X-1291269Y10612810D01*
X-1364184Y10889129D01*
X-1489605Y11145914D01*
X-1662712Y11373296D01*
X-1876853Y11562538D01*
X-2123799Y11706367D01*
X-2280616Y11763061D01*
X-1373483Y12670193D01*
X-1345517Y12693144D01*
X-1253918Y12804758D01*
X-1185854Y12932097D01*
X-1143941Y13070268D01*
X-1133334Y13177959D01*
X-1129788Y13213960D01*
X-1133334Y13249962D01*
X-1133334Y24483659D01*
X-1129788Y24519661D01*
X-1143941Y24663355D01*
X-1185854Y24801525D01*
X-1253918Y24928864D01*
X-1345518Y25040478D01*
X-1373484Y25063429D01*
X-2908711Y26598656D01*
X-2931667Y26626628D01*
X-3043281Y26718227D01*
X-3124894Y26761850D01*
X-658000Y26761850D01*
X-657999Y658000D01*
G36*
X-24998072Y26718227D02*
G01*
X-25109686Y26626628D01*
X-25132642Y26598656D01*
X-26531966Y25199332D01*
X-26695986Y25231958D01*
X-26965458Y25231958D01*
X-27229753Y25179386D01*
X-27478713Y25076264D01*
X-27702771Y24926553D01*
X-27893317Y24736007D01*
X-28043028Y24511949D01*
X-28100722Y24372663D01*
X-28158416Y24511949D01*
X-28308127Y24736007D01*
X-28498673Y24926553D01*
X-28722731Y25076264D01*
X-28971691Y25179386D01*
X-29235986Y25231958D01*
X-29505458Y25231958D01*
X-29769753Y25179386D01*
X-30018713Y25076264D01*
X-30242771Y24926553D01*
X-30433317Y24736007D01*
X-30583028Y24511949D01*
X-30686150Y24262989D01*
X-30738722Y23998694D01*
X-30738722Y23729222D01*
X-30686150Y23464927D01*
X-30583028Y23215967D01*
X-30433317Y22991909D01*
X-30242771Y22801363D01*
X-30018713Y22651652D01*
X-29879427Y22593958D01*
X-30018713Y22536264D01*
X-30242771Y22386553D01*
X-30433317Y22196007D01*
X-30583028Y21971949D01*
X-30686150Y21722989D01*
X-30738722Y21458694D01*
X-30738722Y21189222D01*
X-30686150Y20924927D01*
X-30583028Y20675967D01*
X-30433317Y20451909D01*
X-30242771Y20261363D01*
X-30018713Y20111652D01*
X-29769753Y20008530D01*
X-29505458Y19955958D01*
X-29235986Y19955958D01*
X-28971691Y20008530D01*
X-28722731Y20111652D01*
X-28498673Y20261363D01*
X-28308127Y20451909D01*
X-28158416Y20675967D01*
X-28100722Y20815253D01*
X-28043028Y20675967D01*
X-27893317Y20451909D01*
X-27702771Y20261363D01*
X-27478713Y20111652D01*
X-27229753Y20008530D01*
X-26965458Y19955958D01*
X-26695986Y19955958D01*
X-26431691Y20008530D01*
X-26182731Y20111652D01*
X-25958673Y20261363D01*
X-25768127Y20451909D01*
X-25618416Y20675967D01*
X-25560722Y20815253D01*
X-25503028Y20675967D01*
X-25353317Y20451909D01*
X-25162771Y20261363D01*
X-24938713Y20111652D01*
X-24689753Y20008530D01*
X-24425458Y19955958D01*
X-24155986Y19955958D01*
X-23891691Y20008530D01*
X-23642731Y20111652D01*
X-23418673Y20261363D01*
X-23322609Y20357427D01*
X-22499464Y20357427D01*
X-22429028Y20128350D01*
X-22182743Y20018992D01*
X-21919856Y19959784D01*
X-21650469Y19953000D01*
X-21384935Y19998901D01*
X-21133457Y20095723D01*
X-21072416Y20128350D01*
X-21001980Y20357427D01*
X-21750722Y21106169D01*
X-22499464Y20357427D01*
X-23322609Y20357427D01*
X-23228127Y20451909D01*
X-23078416Y20675967D01*
X-23020739Y20815213D01*
X-22978957Y20706693D01*
X-22946330Y20645652D01*
X-22717253Y20575216D01*
X-21968511Y21323958D01*
X-22717253Y22072700D01*
X-22946330Y22002264D01*
X-23021164Y21833730D01*
X-23078416Y21971949D01*
X-23228127Y22196007D01*
X-23418673Y22386553D01*
X-23642731Y22536264D01*
X-23782017Y22593958D01*
X-23642731Y22651652D01*
X-23418673Y22801363D01*
X-23228127Y22991909D01*
X-23078416Y23215967D01*
X-23020722Y23355253D01*
X-22963028Y23215967D01*
X-22813317Y22991909D01*
X-22622771Y22801363D01*
X-22398713Y22651652D01*
X-22259467Y22593975D01*
X-22367987Y22552193D01*
X-22429028Y22519566D01*
X-22499464Y22290489D01*
X-21750722Y21541747D01*
X-21001980Y22290489D01*
X-21072416Y22519566D01*
X-21240950Y22594400D01*
X-21102731Y22651652D01*
X-20878673Y22801363D01*
X-20688127Y22991909D01*
X-20538416Y23215967D01*
X-20480722Y23355253D01*
X-20423028Y23215967D01*
X-20273317Y22991909D01*
X-20082771Y22801363D01*
X-19858713Y22651652D01*
X-19719427Y22593958D01*
X-19858713Y22536264D01*
X-20082771Y22386553D01*
X-20273317Y22196007D01*
X-20423028Y21971949D01*
X-20480705Y21832703D01*
X-20522487Y21941223D01*
X-20555114Y22002264D01*
X-20784191Y22072700D01*
X-21532933Y21323958D01*
X-20784191Y20575216D01*
X-20555114Y20645652D01*
X-20480280Y20814186D01*
X-20423028Y20675967D01*
X-20273317Y20451909D01*
X-20082771Y20261363D01*
X-19968721Y20185157D01*
X-19968722Y10389436D01*
X-19980355Y10377803D01*
X-19980355Y10501323D01*
X-20001452Y10715522D01*
X-20084822Y10990356D01*
X-20220207Y11243644D01*
X-20402406Y11465654D01*
X-20624416Y11647852D01*
X-20877704Y11783237D01*
X-21152538Y11866607D01*
X-21438355Y11894758D01*
X-21724173Y11866607D01*
X-21999007Y11783237D01*
X-22252295Y11647852D01*
X-22474305Y11465653D01*
X-22550341Y11373002D01*
X-22622509Y11508017D01*
X-22729578Y11638481D01*
X-22860042Y11745550D01*
X-23008887Y11825110D01*
X-23170394Y11874102D01*
X-23338355Y11890645D01*
X-24538355Y11890645D01*
X-24706316Y11874102D01*
X-24867823Y11825110D01*
X-25016668Y11745550D01*
X-25147132Y11638481D01*
X-25254201Y11508017D01*
X-25333761Y11359172D01*
X-25382753Y11197665D01*
X-25399296Y11029704D01*
X-25399296Y9529704D01*
X-25382753Y9361743D01*
X-25333761Y9200236D01*
X-25254201Y9051391D01*
X-25147132Y8920927D01*
X-25016668Y8813858D01*
X-24867823Y8734298D01*
X-24706316Y8685306D01*
X-24538355Y8668763D01*
X-23338355Y8668763D01*
X-23170394Y8685306D01*
X-23008887Y8734298D01*
X-22860042Y8813858D01*
X-22729578Y8920927D01*
X-22622509Y9051391D01*
X-22550341Y9186406D01*
X-22474304Y9093754D01*
X-22252294Y8911556D01*
X-21999006Y8776171D01*
X-21978361Y8769908D01*
X-25323967Y5424301D01*
X-25384667Y5442714D01*
X-25670484Y5470865D01*
X-25956302Y5442714D01*
X-26231136Y5359344D01*
X-26484424Y5223959D01*
X-26706434Y5041760D01*
X-26888632Y4819750D01*
X-26920484Y4760159D01*
X-26952336Y4819751D01*
X-27134535Y5041761D01*
X-27356545Y5223959D01*
X-27609833Y5359344D01*
X-27884667Y5442714D01*
X-28170484Y5470865D01*
X-28456302Y5442714D01*
X-28731136Y5359344D01*
X-28984424Y5223959D01*
X-29206434Y5041760D01*
X-29388632Y4819750D01*
X-29420484Y4760159D01*
X-29452336Y4819751D01*
X-29634535Y5041761D01*
X-29856545Y5223959D01*
X-30109833Y5359344D01*
X-30384667Y5442714D01*
X-30670484Y5470865D01*
X-30956302Y5442714D01*
X-31231136Y5359344D01*
X-31484424Y5223959D01*
X-31706434Y5041760D01*
X-31782470Y4949109D01*
X-31854638Y5084124D01*
X-31961707Y5214588D01*
X-32092171Y5321657D01*
X-32241016Y5401217D01*
X-32402523Y5450209D01*
X-32570484Y5466752D01*
X-33770484Y5466752D01*
X-33938445Y5450209D01*
X-34099952Y5401217D01*
X-34248797Y5321657D01*
X-34379261Y5214588D01*
X-34486330Y5084124D01*
X-34565890Y4935279D01*
X-34614882Y4773772D01*
X-34631425Y4605811D01*
X-34631425Y3155811D01*
X-34614882Y2987850D01*
X-34565890Y2826343D01*
X-34486330Y2677498D01*
X-34379261Y2547034D01*
X-34248797Y2439965D01*
X-34099952Y2360405D01*
X-33938445Y2311413D01*
X-33770484Y2294870D01*
X-32656516Y2294870D01*
X-31871838Y1510191D01*
X-31848103Y1481270D01*
X-31732683Y1386547D01*
X-31601000Y1316161D01*
X-31458117Y1272818D01*
X-31346755Y1261850D01*
X-31346746Y1261850D01*
X-31309524Y1258184D01*
X-31272302Y1261850D01*
X-24567223Y1261850D01*
X-24529991Y1258183D01*
X-24492759Y1261850D01*
X-24381397Y1272818D01*
X-24238514Y1316161D01*
X-24106831Y1386547D01*
X-23991411Y1481270D01*
X-23967668Y1510201D01*
X-22794334Y2683533D01*
X-22794334Y2019850D01*
X-22782651Y1901235D01*
X-22748053Y1787178D01*
X-22691868Y1682063D01*
X-22616255Y1589929D01*
X-22524121Y1514316D01*
X-22419006Y1458131D01*
X-22304949Y1423533D01*
X-22186334Y1411850D01*
X-19200484Y1411850D01*
X-19081869Y1423533D01*
X-18967812Y1458131D01*
X-18862697Y1514316D01*
X-18770563Y1589929D01*
X-18694950Y1682063D01*
X-18638765Y1787178D01*
X-18604167Y1901235D01*
X-18592484Y2019850D01*
X-18592484Y2414175D01*
X-18577169Y2405255D01*
X-18349394Y2322908D01*
X-18124484Y2433922D01*
X-18124484Y3726811D01*
X-18144484Y3726811D01*
X-18144484Y4034811D01*
X-18124484Y4034811D01*
X-18124484Y4054811D01*
X-17816484Y4054811D01*
X-17816484Y4034811D01*
X-17796484Y4034811D01*
X-17796484Y3726811D01*
X-17816484Y3726811D01*
X-17816484Y2433922D01*
X-17591574Y2322908D01*
X-17363799Y2405255D01*
X-17185454Y2509128D01*
X-15334326Y658000D01*
X-35498334Y658000D01*
X-35498334Y9099076D01*
X-35350355Y9099076D01*
X-35350355Y8860332D01*
X-35303778Y8626177D01*
X-35212415Y8405607D01*
X-35079777Y8207099D01*
X-34910960Y8038282D01*
X-34712452Y7905644D01*
X-34491882Y7814281D01*
X-34257727Y7767704D01*
X-34018983Y7767704D01*
X-33784828Y7814281D01*
X-33564258Y7905644D01*
X-33397413Y8017126D01*
X-33390277Y8009990D01*
X-33275231Y8125036D01*
X-33223863Y7911821D01*
X-33004279Y7818113D01*
X-32770632Y7769044D01*
X-32531902Y7766500D01*
X-32297264Y7810579D01*
X-32075733Y7899587D01*
X-32052847Y7911821D01*
X-32001479Y8125036D01*
X-31886433Y8009990D01*
X-31879297Y8017126D01*
X-31712452Y7905644D01*
X-31491882Y7814281D01*
X-31257727Y7767704D01*
X-31018983Y7767704D01*
X-30784828Y7814281D01*
X-30564258Y7905644D01*
X-30388355Y8023178D01*
X-30212452Y7905644D01*
X-29991882Y7814281D01*
X-29757727Y7767704D01*
X-29518983Y7767704D01*
X-29284828Y7814281D01*
X-29064258Y7905644D01*
X-28897413Y8017126D01*
X-28890277Y8009990D01*
X-28775231Y8125036D01*
X-28723863Y7911821D01*
X-28504279Y7818113D01*
X-28270632Y7769044D01*
X-28031902Y7766500D01*
X-27797264Y7810579D01*
X-27575733Y7899587D01*
X-27552847Y7911821D01*
X-27501478Y8125038D01*
X-28138355Y8761915D01*
X-28152497Y8747773D01*
X-28370286Y8965562D01*
X-28356144Y8979704D01*
X-27920566Y8979704D01*
X-27283689Y8342827D01*
X-27070472Y8394196D01*
X-26976764Y8613780D01*
X-26927695Y8847427D01*
X-26925151Y9086157D01*
X-26969230Y9320795D01*
X-27058238Y9542326D01*
X-27070472Y9565212D01*
X-27283689Y9616581D01*
X-27920566Y8979704D01*
X-28356144Y8979704D01*
X-28370286Y8993846D01*
X-28152497Y9211635D01*
X-28138355Y9197493D01*
X-27501478Y9834370D01*
X-27552847Y10047587D01*
X-27772431Y10141295D01*
X-28006078Y10190364D01*
X-28244808Y10192908D01*
X-28479446Y10148829D01*
X-28700977Y10059821D01*
X-28723863Y10047587D01*
X-28775231Y9834372D01*
X-28890277Y9949418D01*
X-28897413Y9942282D01*
X-29064258Y10053764D01*
X-29284828Y10145127D01*
X-29518983Y10191704D01*
X-29757727Y10191704D01*
X-29991882Y10145127D01*
X-30212452Y10053764D01*
X-30388355Y9936230D01*
X-30564258Y10053764D01*
X-30784828Y10145127D01*
X-31018983Y10191704D01*
X-31257727Y10191704D01*
X-31491882Y10145127D01*
X-31712452Y10053764D01*
X-31879297Y9942282D01*
X-31886433Y9949418D01*
X-32001479Y9834372D01*
X-32052847Y10047587D01*
X-32272431Y10141295D01*
X-32506078Y10190364D01*
X-32744808Y10192908D01*
X-32979446Y10148829D01*
X-33200977Y10059821D01*
X-33223863Y10047587D01*
X-33275231Y9834372D01*
X-33390277Y9949418D01*
X-33397413Y9942282D01*
X-33564258Y10053764D01*
X-33784828Y10145127D01*
X-34018983Y10191704D01*
X-34257727Y10191704D01*
X-34491882Y10145127D01*
X-34712452Y10053764D01*
X-34910960Y9921126D01*
X-35079777Y9752309D01*
X-35212415Y9553801D01*
X-35303778Y9333231D01*
X-35350355Y9099076D01*
X-35498334Y9099076D01*
X-35498334Y14290042D01*
X-33988402Y14290042D01*
X-33988402Y13746764D01*
X-33882414Y13213924D01*
X-33674510Y12712000D01*
X-33372681Y12260280D01*
X-32988525Y11876124D01*
X-32536805Y11574295D01*
X-32034881Y11366391D01*
X-31502041Y11260403D01*
X-30958763Y11260403D01*
X-30425923Y11366391D01*
X-29923999Y11574295D01*
X-29472279Y11876124D01*
X-29088123Y12260280D01*
X-28786294Y12712000D01*
X-28578390Y13213924D01*
X-28472402Y13746764D01*
X-28472402Y14290042D01*
X-28578390Y14822882D01*
X-28786294Y15324806D01*
X-29088123Y15776526D01*
X-29472279Y16160682D01*
X-29923999Y16462511D01*
X-30425923Y16670415D01*
X-30958763Y16776403D01*
X-31502041Y16776403D01*
X-32034881Y16670415D01*
X-32536805Y16462511D01*
X-32988525Y16160682D01*
X-33372681Y15776526D01*
X-33674510Y15324806D01*
X-33882414Y14822882D01*
X-33988402Y14290042D01*
X-35498334Y14290042D01*
X-35498334Y26761850D01*
X-24916459Y26761850D01*
X-24998072Y26718227D01*
X-24998072Y26718227D01*
G37*
X-24998072Y26718227D02*
X-25109686Y26626628D01*
X-25132642Y26598656D01*
X-26531966Y25199332D01*
X-26695986Y25231958D01*
X-26965458Y25231958D01*
X-27229753Y25179386D01*
X-27478713Y25076264D01*
X-27702771Y24926553D01*
X-27893317Y24736007D01*
X-28043028Y24511949D01*
X-28100722Y24372663D01*
X-28158416Y24511949D01*
X-28308127Y24736007D01*
X-28498673Y24926553D01*
X-28722731Y25076264D01*
X-28971691Y25179386D01*
X-29235986Y25231958D01*
X-29505458Y25231958D01*
X-29769753Y25179386D01*
X-30018713Y25076264D01*
X-30242771Y24926553D01*
X-30433317Y24736007D01*
X-30583028Y24511949D01*
X-30686150Y24262989D01*
X-30738722Y23998694D01*
X-30738722Y23729222D01*
X-30686150Y23464927D01*
X-30583028Y23215967D01*
X-30433317Y22991909D01*
X-30242771Y22801363D01*
X-30018713Y22651652D01*
X-29879427Y22593958D01*
X-30018713Y22536264D01*
X-30242771Y22386553D01*
X-30433317Y22196007D01*
X-30583028Y21971949D01*
X-30686150Y21722989D01*
X-30738722Y21458694D01*
X-30738722Y21189222D01*
X-30686150Y20924927D01*
X-30583028Y20675967D01*
X-30433317Y20451909D01*
X-30242771Y20261363D01*
X-30018713Y20111652D01*
X-29769753Y20008530D01*
X-29505458Y19955958D01*
X-29235986Y19955958D01*
X-28971691Y20008530D01*
X-28722731Y20111652D01*
X-28498673Y20261363D01*
X-28308127Y20451909D01*
X-28158416Y20675967D01*
X-28100722Y20815253D01*
X-28043028Y20675967D01*
X-27893317Y20451909D01*
X-27702771Y20261363D01*
X-27478713Y20111652D01*
X-27229753Y20008530D01*
X-26965458Y19955958D01*
X-26695986Y19955958D01*
X-26431691Y20008530D01*
X-26182731Y20111652D01*
X-25958673Y20261363D01*
X-25768127Y20451909D01*
X-25618416Y20675967D01*
X-25560722Y20815253D01*
X-25503028Y20675967D01*
X-25353317Y20451909D01*
X-25162771Y20261363D01*
X-24938713Y20111652D01*
X-24689753Y20008530D01*
X-24425458Y19955958D01*
X-24155986Y19955958D01*
X-23891691Y20008530D01*
X-23642731Y20111652D01*
X-23418673Y20261363D01*
X-23322609Y20357427D01*
X-22499464Y20357427D01*
X-22429028Y20128350D01*
X-22182743Y20018992D01*
X-21919856Y19959784D01*
X-21650469Y19953000D01*
X-21384935Y19998901D01*
X-21133457Y20095723D01*
X-21072416Y20128350D01*
X-21001980Y20357427D01*
X-21750722Y21106169D01*
X-22499464Y20357427D01*
X-23322609Y20357427D01*
X-23228127Y20451909D01*
X-23078416Y20675967D01*
X-23020739Y20815213D01*
X-22978957Y20706693D01*
X-22946330Y20645652D01*
X-22717253Y20575216D01*
X-21968511Y21323958D01*
X-22717253Y22072700D01*
X-22946330Y22002264D01*
X-23021164Y21833730D01*
X-23078416Y21971949D01*
X-23228127Y22196007D01*
X-23418673Y22386553D01*
X-23642731Y22536264D01*
X-23782017Y22593958D01*
X-23642731Y22651652D01*
X-23418673Y22801363D01*
X-23228127Y22991909D01*
X-23078416Y23215967D01*
X-23020722Y23355253D01*
X-22963028Y23215967D01*
X-22813317Y22991909D01*
X-22622771Y22801363D01*
X-22398713Y22651652D01*
X-22259467Y22593975D01*
X-22367987Y22552193D01*
X-22429028Y22519566D01*
X-22499464Y22290489D01*
X-21750722Y21541747D01*
X-21001980Y22290489D01*
X-21072416Y22519566D01*
X-21240950Y22594400D01*
X-21102731Y22651652D01*
X-20878673Y22801363D01*
X-20688127Y22991909D01*
X-20538416Y23215967D01*
X-20480722Y23355253D01*
X-20423028Y23215967D01*
X-20273317Y22991909D01*
X-20082771Y22801363D01*
X-19858713Y22651652D01*
X-19719427Y22593958D01*
X-19858713Y22536264D01*
X-20082771Y22386553D01*
X-20273317Y22196007D01*
X-20423028Y21971949D01*
X-20480705Y21832703D01*
X-20522487Y21941223D01*
X-20555114Y22002264D01*
X-20784191Y22072700D01*
X-21532933Y21323958D01*
X-20784191Y20575216D01*
X-20555114Y20645652D01*
X-20480280Y20814186D01*
X-20423028Y20675967D01*
X-20273317Y20451909D01*
X-20082771Y20261363D01*
X-19968721Y20185157D01*
X-19968722Y10389436D01*
X-19980355Y10377803D01*
X-19980355Y10501323D01*
X-20001452Y10715522D01*
X-20084822Y10990356D01*
X-20220207Y11243644D01*
X-20402406Y11465654D01*
X-20624416Y11647852D01*
X-20877704Y11783237D01*
X-21152538Y11866607D01*
X-21438355Y11894758D01*
X-21724173Y11866607D01*
X-21999007Y11783237D01*
X-22252295Y11647852D01*
X-22474305Y11465653D01*
X-22550341Y11373002D01*
X-22622509Y11508017D01*
X-22729578Y11638481D01*
X-22860042Y11745550D01*
X-23008887Y11825110D01*
X-23170394Y11874102D01*
X-23338355Y11890645D01*
X-24538355Y11890645D01*
X-24706316Y11874102D01*
X-24867823Y11825110D01*
X-25016668Y11745550D01*
X-25147132Y11638481D01*
X-25254201Y11508017D01*
X-25333761Y11359172D01*
X-25382753Y11197665D01*
X-25399296Y11029704D01*
X-25399296Y9529704D01*
X-25382753Y9361743D01*
X-25333761Y9200236D01*
X-25254201Y9051391D01*
X-25147132Y8920927D01*
X-25016668Y8813858D01*
X-24867823Y8734298D01*
X-24706316Y8685306D01*
X-24538355Y8668763D01*
X-23338355Y8668763D01*
X-23170394Y8685306D01*
X-23008887Y8734298D01*
X-22860042Y8813858D01*
X-22729578Y8920927D01*
X-22622509Y9051391D01*
X-22550341Y9186406D01*
X-22474304Y9093754D01*
X-22252294Y8911556D01*
X-21999006Y8776171D01*
X-21978361Y8769908D01*
X-25323967Y5424301D01*
X-25384667Y5442714D01*
X-25670484Y5470865D01*
X-25956302Y5442714D01*
X-26231136Y5359344D01*
X-26484424Y5223959D01*
X-26706434Y5041760D01*
X-26888632Y4819750D01*
X-26920484Y4760159D01*
X-26952336Y4819751D01*
X-27134535Y5041761D01*
X-27356545Y5223959D01*
X-27609833Y5359344D01*
X-27884667Y5442714D01*
X-28170484Y5470865D01*
X-28456302Y5442714D01*
X-28731136Y5359344D01*
X-28984424Y5223959D01*
X-29206434Y5041760D01*
X-29388632Y4819750D01*
X-29420484Y4760159D01*
X-29452336Y4819751D01*
X-29634535Y5041761D01*
X-29856545Y5223959D01*
X-30109833Y5359344D01*
X-30384667Y5442714D01*
X-30670484Y5470865D01*
X-30956302Y5442714D01*
X-31231136Y5359344D01*
X-31484424Y5223959D01*
X-31706434Y5041760D01*
X-31782470Y4949109D01*
X-31854638Y5084124D01*
X-31961707Y5214588D01*
X-32092171Y5321657D01*
X-32241016Y5401217D01*
X-32402523Y5450209D01*
X-32570484Y5466752D01*
X-33770484Y5466752D01*
X-33938445Y5450209D01*
X-34099952Y5401217D01*
X-34248797Y5321657D01*
X-34379261Y5214588D01*
X-34486330Y5084124D01*
X-34565890Y4935279D01*
X-34614882Y4773772D01*
X-34631425Y4605811D01*
X-34631425Y3155811D01*
X-34614882Y2987850D01*
X-34565890Y2826343D01*
X-34486330Y2677498D01*
X-34379261Y2547034D01*
X-34248797Y2439965D01*
X-34099952Y2360405D01*
X-33938445Y2311413D01*
X-33770484Y2294870D01*
X-32656516Y2294870D01*
X-31871838Y1510191D01*
X-31848103Y1481270D01*
X-31732683Y1386547D01*
X-31601000Y1316161D01*
X-31458117Y1272818D01*
X-31346755Y1261850D01*
X-31346746Y1261850D01*
X-31309524Y1258184D01*
X-31272302Y1261850D01*
X-24567223Y1261850D01*
X-24529991Y1258183D01*
X-24492759Y1261850D01*
X-24381397Y1272818D01*
X-24238514Y1316161D01*
X-24106831Y1386547D01*
X-23991411Y1481270D01*
X-23967668Y1510201D01*
X-22794334Y2683533D01*
X-22794334Y2019850D01*
X-22782651Y1901235D01*
X-22748053Y1787178D01*
X-22691868Y1682063D01*
X-22616255Y1589929D01*
X-22524121Y1514316D01*
X-22419006Y1458131D01*
X-22304949Y1423533D01*
X-22186334Y1411850D01*
X-19200484Y1411850D01*
X-19081869Y1423533D01*
X-18967812Y1458131D01*
X-18862697Y1514316D01*
X-18770563Y1589929D01*
X-18694950Y1682063D01*
X-18638765Y1787178D01*
X-18604167Y1901235D01*
X-18592484Y2019850D01*
X-18592484Y2414175D01*
X-18577169Y2405255D01*
X-18349394Y2322908D01*
X-18124484Y2433922D01*
X-18124484Y3726811D01*
X-18144484Y3726811D01*
X-18144484Y4034811D01*
X-18124484Y4034811D01*
X-18124484Y4054811D01*
X-17816484Y4054811D01*
X-17816484Y4034811D01*
X-17796484Y4034811D01*
X-17796484Y3726811D01*
X-17816484Y3726811D01*
X-17816484Y2433922D01*
X-17591574Y2322908D01*
X-17363799Y2405255D01*
X-17185454Y2509128D01*
X-15334326Y658000D01*
X-35498334Y658000D01*
X-35498334Y9099076D01*
X-35350355Y9099076D01*
X-35350355Y8860332D01*
X-35303778Y8626177D01*
X-35212415Y8405607D01*
X-35079777Y8207099D01*
X-34910960Y8038282D01*
X-34712452Y7905644D01*
X-34491882Y7814281D01*
X-34257727Y7767704D01*
X-34018983Y7767704D01*
X-33784828Y7814281D01*
X-33564258Y7905644D01*
X-33397413Y8017126D01*
X-33390277Y8009990D01*
X-33275231Y8125036D01*
X-33223863Y7911821D01*
X-33004279Y7818113D01*
X-32770632Y7769044D01*
X-32531902Y7766500D01*
X-32297264Y7810579D01*
X-32075733Y7899587D01*
X-32052847Y7911821D01*
X-32001479Y8125036D01*
X-31886433Y8009990D01*
X-31879297Y8017126D01*
X-31712452Y7905644D01*
X-31491882Y7814281D01*
X-31257727Y7767704D01*
X-31018983Y7767704D01*
X-30784828Y7814281D01*
X-30564258Y7905644D01*
X-30388355Y8023178D01*
X-30212452Y7905644D01*
X-29991882Y7814281D01*
X-29757727Y7767704D01*
X-29518983Y7767704D01*
X-29284828Y7814281D01*
X-29064258Y7905644D01*
X-28897413Y8017126D01*
X-28890277Y8009990D01*
X-28775231Y8125036D01*
X-28723863Y7911821D01*
X-28504279Y7818113D01*
X-28270632Y7769044D01*
X-28031902Y7766500D01*
X-27797264Y7810579D01*
X-27575733Y7899587D01*
X-27552847Y7911821D01*
X-27501478Y8125038D01*
X-28138355Y8761915D01*
X-28152497Y8747773D01*
X-28370286Y8965562D01*
X-28356144Y8979704D01*
X-27920566Y8979704D01*
X-27283689Y8342827D01*
X-27070472Y8394196D01*
X-26976764Y8613780D01*
X-26927695Y8847427D01*
X-26925151Y9086157D01*
X-26969230Y9320795D01*
X-27058238Y9542326D01*
X-27070472Y9565212D01*
X-27283689Y9616581D01*
X-27920566Y8979704D01*
X-28356144Y8979704D01*
X-28370286Y8993846D01*
X-28152497Y9211635D01*
X-28138355Y9197493D01*
X-27501478Y9834370D01*
X-27552847Y10047587D01*
X-27772431Y10141295D01*
X-28006078Y10190364D01*
X-28244808Y10192908D01*
X-28479446Y10148829D01*
X-28700977Y10059821D01*
X-28723863Y10047587D01*
X-28775231Y9834372D01*
X-28890277Y9949418D01*
X-28897413Y9942282D01*
X-29064258Y10053764D01*
X-29284828Y10145127D01*
X-29518983Y10191704D01*
X-29757727Y10191704D01*
X-29991882Y10145127D01*
X-30212452Y10053764D01*
X-30388355Y9936230D01*
X-30564258Y10053764D01*
X-30784828Y10145127D01*
X-31018983Y10191704D01*
X-31257727Y10191704D01*
X-31491882Y10145127D01*
X-31712452Y10053764D01*
X-31879297Y9942282D01*
X-31886433Y9949418D01*
X-32001479Y9834372D01*
X-32052847Y10047587D01*
X-32272431Y10141295D01*
X-32506078Y10190364D01*
X-32744808Y10192908D01*
X-32979446Y10148829D01*
X-33200977Y10059821D01*
X-33223863Y10047587D01*
X-33275231Y9834372D01*
X-33390277Y9949418D01*
X-33397413Y9942282D01*
X-33564258Y10053764D01*
X-33784828Y10145127D01*
X-34018983Y10191704D01*
X-34257727Y10191704D01*
X-34491882Y10145127D01*
X-34712452Y10053764D01*
X-34910960Y9921126D01*
X-35079777Y9752309D01*
X-35212415Y9553801D01*
X-35303778Y9333231D01*
X-35350355Y9099076D01*
X-35498334Y9099076D01*
X-35498334Y14290042D01*
X-33988402Y14290042D01*
X-33988402Y13746764D01*
X-33882414Y13213924D01*
X-33674510Y12712000D01*
X-33372681Y12260280D01*
X-32988525Y11876124D01*
X-32536805Y11574295D01*
X-32034881Y11366391D01*
X-31502041Y11260403D01*
X-30958763Y11260403D01*
X-30425923Y11366391D01*
X-29923999Y11574295D01*
X-29472279Y11876124D01*
X-29088123Y12260280D01*
X-28786294Y12712000D01*
X-28578390Y13213924D01*
X-28472402Y13746764D01*
X-28472402Y14290042D01*
X-28578390Y14822882D01*
X-28786294Y15324806D01*
X-29088123Y15776526D01*
X-29472279Y16160682D01*
X-29923999Y16462511D01*
X-30425923Y16670415D01*
X-30958763Y16776403D01*
X-31502041Y16776403D01*
X-32034881Y16670415D01*
X-32536805Y16462511D01*
X-32988525Y16160682D01*
X-33372681Y15776526D01*
X-33674510Y15324806D01*
X-33882414Y14822882D01*
X-33988402Y14290042D01*
X-35498334Y14290042D01*
X-35498334Y26761850D01*
X-24916459Y26761850D01*
X-24998072Y26718227D01*
G36*
X-32406424Y8993846D02*
G01*
X-32420566Y8979704D01*
X-32406424Y8965562D01*
X-32624213Y8747773D01*
X-32638355Y8761915D01*
X-32652497Y8747773D01*
X-32870286Y8965562D01*
X-32856144Y8979704D01*
X-32870286Y8993846D01*
X-32652497Y9211635D01*
X-32638355Y9197493D01*
X-32624213Y9211635D01*
X-32406424Y8993846D01*
X-32406424Y8993846D01*
G37*
X-32406424Y8993846D02*
X-32420566Y8979704D01*
X-32406424Y8965562D01*
X-32624213Y8747773D01*
X-32638355Y8761915D01*
X-32652497Y8747773D01*
X-32870286Y8965562D01*
X-32856144Y8979704D01*
X-32870286Y8993846D01*
X-32652497Y9211635D01*
X-32638355Y9197493D01*
X-32624213Y9211635D01*
X-32406424Y8993846D01*
G36*
X-2599333Y13517581D02*
G01*
X-4331461Y11785452D01*
X-4462523Y11825209D01*
X-4630484Y11841752D01*
X-5830484Y11841752D01*
X-5998445Y11825209D01*
X-6159952Y11776217D01*
X-6308797Y11696657D01*
X-6439261Y11589588D01*
X-6546330Y11459124D01*
X-6625890Y11310279D01*
X-6674882Y11148772D01*
X-6691425Y10980811D01*
X-6691425Y9480811D01*
X-6683620Y9401565D01*
X-7483334Y10201279D01*
X-7483334Y11876232D01*
X-2643489Y16716077D01*
X-2615517Y16739033D01*
X-2599333Y16758753D01*
X-2599333Y13517581D01*
X-2599333Y13517581D01*
G37*
X-2599333Y13517581D02*
X-4331461Y11785452D01*
X-4462523Y11825209D01*
X-4630484Y11841752D01*
X-5830484Y11841752D01*
X-5998445Y11825209D01*
X-6159952Y11776217D01*
X-6308797Y11696657D01*
X-6439261Y11589588D01*
X-6546330Y11459124D01*
X-6625890Y11310279D01*
X-6674882Y11148772D01*
X-6691425Y10980811D01*
X-6691425Y9480811D01*
X-6683620Y9401565D01*
X-7483334Y10201279D01*
X-7483334Y11876232D01*
X-2643489Y16716077D01*
X-2615517Y16739033D01*
X-2599333Y16758753D01*
X-2599333Y13517581D01*
D21*
G36*
X-11396974Y23878100D02*
G01*
X-11411117Y23863958D01*
X-11396974Y23849816D01*
X-11576580Y23670210D01*
X-11590722Y23684353D01*
X-12375253Y22899821D01*
X-12308516Y22659933D01*
X-12173840Y22596626D01*
X-12193048Y22589702D01*
X-12308516Y22527983D01*
X-12375253Y22288095D01*
X-11590722Y21503563D01*
X-11576580Y21517706D01*
X-11396974Y21338100D01*
X-11411117Y21323958D01*
X-11396974Y21309816D01*
X-11576580Y21130210D01*
X-11590722Y21144353D01*
X-12375253Y20359821D01*
X-12308516Y20119933D01*
X-12059830Y20003034D01*
X-11793116Y19936897D01*
X-11518625Y19924063D01*
X-11246905Y19965027D01*
X-10988396Y20058214D01*
X-10883334Y20114371D01*
X-10883334Y18588839D01*
X-13146891Y16677853D01*
X-13164249Y16660005D01*
X-13177791Y16639114D01*
X-13186998Y16615982D01*
X-13191962Y16579927D01*
X-13191134Y16460856D01*
X-13199073Y16457567D01*
X-13655215Y16152782D01*
X-14043131Y15764866D01*
X-14347916Y15308724D01*
X-14557855Y14801886D01*
X-14664881Y14263831D01*
X-14664881Y13715233D01*
X-14557855Y13177178D01*
X-14347916Y12670340D01*
X-14043131Y12214198D01*
X-13655215Y11826282D01*
X-13199073Y11521497D01*
X-13156644Y11503922D01*
X-13155639Y11359483D01*
X-13222149Y11304899D01*
X-13232702Y11339687D01*
X-13291667Y11450001D01*
X-13371019Y11546692D01*
X-13467710Y11626044D01*
X-13578024Y11685009D01*
X-13697722Y11721319D01*
X-13822204Y11733579D01*
X-14386454Y11730507D01*
X-14545204Y11571757D01*
X-14545204Y10222507D01*
X-14525204Y10222507D01*
X-14525204Y9968507D01*
X-14545204Y9968507D01*
X-14545204Y8619257D01*
X-14386454Y8460507D01*
X-13822204Y8457435D01*
X-13697722Y8469695D01*
X-13578024Y8506005D01*
X-13467710Y8564970D01*
X-13371019Y8644322D01*
X-13291667Y8741013D01*
X-13232702Y8851327D01*
X-13222149Y8886115D01*
X-13137949Y8817014D01*
X-13114831Y5494408D01*
X-13136234Y5515811D01*
X-13700484Y5518883D01*
X-13824966Y5506623D01*
X-13944664Y5470313D01*
X-14054978Y5411348D01*
X-14151669Y5331996D01*
X-14231021Y5235305D01*
X-14289986Y5124991D01*
X-14326296Y5005293D01*
X-14338556Y4880811D01*
X-14335484Y4166561D01*
X-14176734Y4007811D01*
X-13104487Y4007811D01*
X-13104481Y4006927D01*
X-13101868Y3982168D01*
X-13094476Y3958395D01*
X-13082587Y3936521D01*
X-13061470Y3912546D01*
X-12723484Y3614575D01*
X-12723484Y2404561D01*
X-12564734Y2245811D01*
X-12000484Y2242739D01*
X-11876002Y2254999D01*
X-11756304Y2291309D01*
X-11645990Y2350274D01*
X-11549299Y2429626D01*
X-11477980Y2516528D01*
X-10806545Y1924585D01*
X-10786346Y1910031D01*
X-10763696Y1899697D01*
X-10739465Y1893980D01*
X-10722559Y1892850D01*
X-9486334Y1892850D01*
X-9461558Y1895290D01*
X-9437733Y1902517D01*
X-9415777Y1914253D01*
X-9396531Y1930047D01*
X-8445767Y2880811D01*
X-6718556Y2880811D01*
X-6706296Y2756329D01*
X-6669986Y2636631D01*
X-6611021Y2526317D01*
X-6531669Y2429626D01*
X-6434978Y2350274D01*
X-6324664Y2291309D01*
X-6204966Y2254999D01*
X-6080484Y2242739D01*
X-5516234Y2245811D01*
X-5357484Y2404561D01*
X-5357484Y3753811D01*
X-6556734Y3753811D01*
X-6715484Y3595061D01*
X-6718556Y2880811D01*
X-8445767Y2880811D01*
X-8126531Y3200047D01*
X-8110737Y3219293D01*
X-8099001Y3241249D01*
X-8091774Y3265074D01*
X-8089334Y3289850D01*
X-8089334Y4507244D01*
X-6893728Y5702850D01*
X-5728940Y5702850D01*
X-5542042Y5515952D01*
X-6080484Y5518883D01*
X-6204966Y5506623D01*
X-6324664Y5470313D01*
X-6434978Y5411348D01*
X-6531669Y5331996D01*
X-6611021Y5235305D01*
X-6669986Y5124991D01*
X-6706296Y5005293D01*
X-6718556Y4880811D01*
X-6715484Y4166561D01*
X-6556734Y4007811D01*
X-5357484Y4007811D01*
X-5357484Y4027811D01*
X-5103484Y4027811D01*
X-5103484Y4007811D01*
X-5083484Y4007811D01*
X-5083484Y3753811D01*
X-5103484Y3753811D01*
X-5103484Y2404561D01*
X-4944734Y2245811D01*
X-4533334Y2243571D01*
X-4533334Y2072456D01*
X-5728940Y876850D01*
X-14513728Y876850D01*
X-16517689Y2880811D01*
X-14338556Y2880811D01*
X-14326296Y2756329D01*
X-14289986Y2636631D01*
X-14231021Y2526317D01*
X-14151669Y2429626D01*
X-14054978Y2350274D01*
X-13944664Y2291309D01*
X-13824966Y2254999D01*
X-13700484Y2242739D01*
X-13136234Y2245811D01*
X-12977484Y2404561D01*
X-12977484Y3753811D01*
X-14176734Y3753811D01*
X-14335484Y3595061D01*
X-14338556Y2880811D01*
X-16517689Y2880811D01*
X-16663212Y3026334D01*
X-16591885Y3159778D01*
X-16506971Y3439701D01*
X-16485484Y3657862D01*
X-16485484Y4103761D01*
X-16506971Y4321922D01*
X-16591885Y4601845D01*
X-16729778Y4859825D01*
X-16915350Y5085945D01*
X-16979334Y5138455D01*
X-16979334Y7417350D01*
X-16981774Y7442126D01*
X-16989001Y7465951D01*
X-17000737Y7487907D01*
X-17016531Y7507153D01*
X-17035777Y7522947D01*
X-17057733Y7534683D01*
X-17081558Y7541910D01*
X-17106334Y7544350D01*
X-17131110Y7541910D01*
X-17154935Y7534683D01*
X-17176891Y7522947D01*
X-17196137Y7507153D01*
X-17208771Y7492422D01*
X-18892051Y5195560D01*
X-19020429Y5090203D01*
X-19030982Y5124991D01*
X-19089947Y5235305D01*
X-19169299Y5331996D01*
X-19265990Y5411348D01*
X-19376304Y5470313D01*
X-19496002Y5506623D01*
X-19620484Y5518883D01*
X-20184734Y5515811D01*
X-20343484Y5357061D01*
X-20343484Y4007811D01*
X-20323484Y4007811D01*
X-20323484Y3753811D01*
X-20343484Y3753811D01*
X-20343484Y2404561D01*
X-20184734Y2245811D01*
X-19620484Y2242739D01*
X-19496002Y2254999D01*
X-19376304Y2291309D01*
X-19327484Y2317404D01*
X-19327484Y2146850D01*
X-22059334Y2146850D01*
X-22059334Y2880811D01*
X-21958556Y2880811D01*
X-21946296Y2756329D01*
X-21909986Y2636631D01*
X-21851021Y2526317D01*
X-21771669Y2429626D01*
X-21674978Y2350274D01*
X-21564664Y2291309D01*
X-21444966Y2254999D01*
X-21320484Y2242739D01*
X-20756234Y2245811D01*
X-20597484Y2404561D01*
X-20597484Y3753811D01*
X-21796734Y3753811D01*
X-21955484Y3595061D01*
X-21958556Y2880811D01*
X-22059334Y2880811D01*
X-22059334Y4846693D01*
X-21951274Y4954753D01*
X-21958556Y4880811D01*
X-21955484Y4166561D01*
X-21796734Y4007811D01*
X-20597484Y4007811D01*
X-20597484Y5357061D01*
X-20756234Y5515811D01*
X-21320484Y5518883D01*
X-21394426Y5511601D01*
X-18380706Y8525321D01*
X-17620458Y9095507D01*
X-16160276Y9095507D01*
X-16148016Y8971025D01*
X-16111706Y8851327D01*
X-16052741Y8741013D01*
X-15973389Y8644322D01*
X-15876698Y8564970D01*
X-15766384Y8506005D01*
X-15646686Y8469695D01*
X-15522204Y8457435D01*
X-14957954Y8460507D01*
X-14799204Y8619257D01*
X-14799204Y9968507D01*
X-15998454Y9968507D01*
X-16157204Y9809757D01*
X-16160276Y9095507D01*
X-17620458Y9095507D01*
X-17030134Y9538250D01*
X-17011777Y9555068D01*
X-16997054Y9575144D01*
X-16986530Y9597707D01*
X-16980610Y9621889D01*
X-16979334Y9639850D01*
X-16979334Y11095507D01*
X-16160276Y11095507D01*
X-16157204Y10381257D01*
X-15998454Y10222507D01*
X-14799204Y10222507D01*
X-14799204Y11571757D01*
X-14957954Y11730507D01*
X-15522204Y11733579D01*
X-15646686Y11721319D01*
X-15766384Y11685009D01*
X-15876698Y11626044D01*
X-15973389Y11546692D01*
X-16052741Y11450001D01*
X-16111706Y11339687D01*
X-16148016Y11219989D01*
X-16160276Y11095507D01*
X-16979334Y11095507D01*
X-16979334Y17207244D01*
X-14476531Y19710047D01*
X-14460737Y19729293D01*
X-14449001Y19751249D01*
X-14441774Y19775074D01*
X-14439334Y19799850D01*
X-14439334Y19963236D01*
X-14333116Y19936897D01*
X-14058625Y19924063D01*
X-13786905Y19965027D01*
X-13528396Y20058214D01*
X-13412928Y20119933D01*
X-13346191Y20359821D01*
X-14130722Y21144353D01*
X-14144864Y21130210D01*
X-14324469Y21309815D01*
X-14310327Y21323958D01*
X-13951117Y21323958D01*
X-13166585Y20539427D01*
X-12926697Y20606164D01*
X-12863390Y20740840D01*
X-12856466Y20721632D01*
X-12794747Y20606164D01*
X-12554859Y20539427D01*
X-11770327Y21323958D01*
X-12554859Y22108489D01*
X-12794747Y22041752D01*
X-12858054Y21907076D01*
X-12864978Y21926284D01*
X-12926697Y22041752D01*
X-13166585Y22108489D01*
X-13951117Y21323958D01*
X-14310327Y21323958D01*
X-14324469Y21338100D01*
X-14144864Y21517705D01*
X-14130722Y21503563D01*
X-13346191Y22288095D01*
X-13412928Y22527983D01*
X-13547604Y22591290D01*
X-13528396Y22598214D01*
X-13412928Y22659933D01*
X-13346191Y22899821D01*
X-14130722Y23684353D01*
X-14144864Y23670210D01*
X-14324469Y23849815D01*
X-14310327Y23863958D01*
X-14324469Y23878100D01*
X-14144864Y24057705D01*
X-14130722Y24043563D01*
X-14116580Y24057706D01*
X-13936974Y23878100D01*
X-13951117Y23863958D01*
X-13166585Y23079427D01*
X-12926697Y23146164D01*
X-12863390Y23280840D01*
X-12856466Y23261632D01*
X-12794747Y23146164D01*
X-12554859Y23079427D01*
X-11770327Y23863958D01*
X-11784470Y23878100D01*
X-11604864Y24057706D01*
X-11590722Y24043563D01*
X-11576580Y24057706D01*
X-11396974Y23878100D01*
X-11396974Y23878100D01*
G37*
X-11396974Y23878100D02*
X-11411117Y23863958D01*
X-11396974Y23849816D01*
X-11576580Y23670210D01*
X-11590722Y23684353D01*
X-12375253Y22899821D01*
X-12308516Y22659933D01*
X-12173840Y22596626D01*
X-12193048Y22589702D01*
X-12308516Y22527983D01*
X-12375253Y22288095D01*
X-11590722Y21503563D01*
X-11576580Y21517706D01*
X-11396974Y21338100D01*
X-11411117Y21323958D01*
X-11396974Y21309816D01*
X-11576580Y21130210D01*
X-11590722Y21144353D01*
X-12375253Y20359821D01*
X-12308516Y20119933D01*
X-12059830Y20003034D01*
X-11793116Y19936897D01*
X-11518625Y19924063D01*
X-11246905Y19965027D01*
X-10988396Y20058214D01*
X-10883334Y20114371D01*
X-10883334Y18588839D01*
X-13146891Y16677853D01*
X-13164249Y16660005D01*
X-13177791Y16639114D01*
X-13186998Y16615982D01*
X-13191962Y16579927D01*
X-13191134Y16460856D01*
X-13199073Y16457567D01*
X-13655215Y16152782D01*
X-14043131Y15764866D01*
X-14347916Y15308724D01*
X-14557855Y14801886D01*
X-14664881Y14263831D01*
X-14664881Y13715233D01*
X-14557855Y13177178D01*
X-14347916Y12670340D01*
X-14043131Y12214198D01*
X-13655215Y11826282D01*
X-13199073Y11521497D01*
X-13156644Y11503922D01*
X-13155639Y11359483D01*
X-13222149Y11304899D01*
X-13232702Y11339687D01*
X-13291667Y11450001D01*
X-13371019Y11546692D01*
X-13467710Y11626044D01*
X-13578024Y11685009D01*
X-13697722Y11721319D01*
X-13822204Y11733579D01*
X-14386454Y11730507D01*
X-14545204Y11571757D01*
X-14545204Y10222507D01*
X-14525204Y10222507D01*
X-14525204Y9968507D01*
X-14545204Y9968507D01*
X-14545204Y8619257D01*
X-14386454Y8460507D01*
X-13822204Y8457435D01*
X-13697722Y8469695D01*
X-13578024Y8506005D01*
X-13467710Y8564970D01*
X-13371019Y8644322D01*
X-13291667Y8741013D01*
X-13232702Y8851327D01*
X-13222149Y8886115D01*
X-13137949Y8817014D01*
X-13114831Y5494408D01*
X-13136234Y5515811D01*
X-13700484Y5518883D01*
X-13824966Y5506623D01*
X-13944664Y5470313D01*
X-14054978Y5411348D01*
X-14151669Y5331996D01*
X-14231021Y5235305D01*
X-14289986Y5124991D01*
X-14326296Y5005293D01*
X-14338556Y4880811D01*
X-14335484Y4166561D01*
X-14176734Y4007811D01*
X-13104487Y4007811D01*
X-13104481Y4006927D01*
X-13101868Y3982168D01*
X-13094476Y3958395D01*
X-13082587Y3936521D01*
X-13061470Y3912546D01*
X-12723484Y3614575D01*
X-12723484Y2404561D01*
X-12564734Y2245811D01*
X-12000484Y2242739D01*
X-11876002Y2254999D01*
X-11756304Y2291309D01*
X-11645990Y2350274D01*
X-11549299Y2429626D01*
X-11477980Y2516528D01*
X-10806545Y1924585D01*
X-10786346Y1910031D01*
X-10763696Y1899697D01*
X-10739465Y1893980D01*
X-10722559Y1892850D01*
X-9486334Y1892850D01*
X-9461558Y1895290D01*
X-9437733Y1902517D01*
X-9415777Y1914253D01*
X-9396531Y1930047D01*
X-8445767Y2880811D01*
X-6718556Y2880811D01*
X-6706296Y2756329D01*
X-6669986Y2636631D01*
X-6611021Y2526317D01*
X-6531669Y2429626D01*
X-6434978Y2350274D01*
X-6324664Y2291309D01*
X-6204966Y2254999D01*
X-6080484Y2242739D01*
X-5516234Y2245811D01*
X-5357484Y2404561D01*
X-5357484Y3753811D01*
X-6556734Y3753811D01*
X-6715484Y3595061D01*
X-6718556Y2880811D01*
X-8445767Y2880811D01*
X-8126531Y3200047D01*
X-8110737Y3219293D01*
X-8099001Y3241249D01*
X-8091774Y3265074D01*
X-8089334Y3289850D01*
X-8089334Y4507244D01*
X-6893728Y5702850D01*
X-5728940Y5702850D01*
X-5542042Y5515952D01*
X-6080484Y5518883D01*
X-6204966Y5506623D01*
X-6324664Y5470313D01*
X-6434978Y5411348D01*
X-6531669Y5331996D01*
X-6611021Y5235305D01*
X-6669986Y5124991D01*
X-6706296Y5005293D01*
X-6718556Y4880811D01*
X-6715484Y4166561D01*
X-6556734Y4007811D01*
X-5357484Y4007811D01*
X-5357484Y4027811D01*
X-5103484Y4027811D01*
X-5103484Y4007811D01*
X-5083484Y4007811D01*
X-5083484Y3753811D01*
X-5103484Y3753811D01*
X-5103484Y2404561D01*
X-4944734Y2245811D01*
X-4533334Y2243571D01*
X-4533334Y2072456D01*
X-5728940Y876850D01*
X-14513728Y876850D01*
X-16517689Y2880811D01*
X-14338556Y2880811D01*
X-14326296Y2756329D01*
X-14289986Y2636631D01*
X-14231021Y2526317D01*
X-14151669Y2429626D01*
X-14054978Y2350274D01*
X-13944664Y2291309D01*
X-13824966Y2254999D01*
X-13700484Y2242739D01*
X-13136234Y2245811D01*
X-12977484Y2404561D01*
X-12977484Y3753811D01*
X-14176734Y3753811D01*
X-14335484Y3595061D01*
X-14338556Y2880811D01*
X-16517689Y2880811D01*
X-16663212Y3026334D01*
X-16591885Y3159778D01*
X-16506971Y3439701D01*
X-16485484Y3657862D01*
X-16485484Y4103761D01*
X-16506971Y4321922D01*
X-16591885Y4601845D01*
X-16729778Y4859825D01*
X-16915350Y5085945D01*
X-16979334Y5138455D01*
X-16979334Y7417350D01*
X-16981774Y7442126D01*
X-16989001Y7465951D01*
X-17000737Y7487907D01*
X-17016531Y7507153D01*
X-17035777Y7522947D01*
X-17057733Y7534683D01*
X-17081558Y7541910D01*
X-17106334Y7544350D01*
X-17131110Y7541910D01*
X-17154935Y7534683D01*
X-17176891Y7522947D01*
X-17196137Y7507153D01*
X-17208771Y7492422D01*
X-18892051Y5195560D01*
X-19020429Y5090203D01*
X-19030982Y5124991D01*
X-19089947Y5235305D01*
X-19169299Y5331996D01*
X-19265990Y5411348D01*
X-19376304Y5470313D01*
X-19496002Y5506623D01*
X-19620484Y5518883D01*
X-20184734Y5515811D01*
X-20343484Y5357061D01*
X-20343484Y4007811D01*
X-20323484Y4007811D01*
X-20323484Y3753811D01*
X-20343484Y3753811D01*
X-20343484Y2404561D01*
X-20184734Y2245811D01*
X-19620484Y2242739D01*
X-19496002Y2254999D01*
X-19376304Y2291309D01*
X-19327484Y2317404D01*
X-19327484Y2146850D01*
X-22059334Y2146850D01*
X-22059334Y2880811D01*
X-21958556Y2880811D01*
X-21946296Y2756329D01*
X-21909986Y2636631D01*
X-21851021Y2526317D01*
X-21771669Y2429626D01*
X-21674978Y2350274D01*
X-21564664Y2291309D01*
X-21444966Y2254999D01*
X-21320484Y2242739D01*
X-20756234Y2245811D01*
X-20597484Y2404561D01*
X-20597484Y3753811D01*
X-21796734Y3753811D01*
X-21955484Y3595061D01*
X-21958556Y2880811D01*
X-22059334Y2880811D01*
X-22059334Y4846693D01*
X-21951274Y4954753D01*
X-21958556Y4880811D01*
X-21955484Y4166561D01*
X-21796734Y4007811D01*
X-20597484Y4007811D01*
X-20597484Y5357061D01*
X-20756234Y5515811D01*
X-21320484Y5518883D01*
X-21394426Y5511601D01*
X-18380706Y8525321D01*
X-17620458Y9095507D01*
X-16160276Y9095507D01*
X-16148016Y8971025D01*
X-16111706Y8851327D01*
X-16052741Y8741013D01*
X-15973389Y8644322D01*
X-15876698Y8564970D01*
X-15766384Y8506005D01*
X-15646686Y8469695D01*
X-15522204Y8457435D01*
X-14957954Y8460507D01*
X-14799204Y8619257D01*
X-14799204Y9968507D01*
X-15998454Y9968507D01*
X-16157204Y9809757D01*
X-16160276Y9095507D01*
X-17620458Y9095507D01*
X-17030134Y9538250D01*
X-17011777Y9555068D01*
X-16997054Y9575144D01*
X-16986530Y9597707D01*
X-16980610Y9621889D01*
X-16979334Y9639850D01*
X-16979334Y11095507D01*
X-16160276Y11095507D01*
X-16157204Y10381257D01*
X-15998454Y10222507D01*
X-14799204Y10222507D01*
X-14799204Y11571757D01*
X-14957954Y11730507D01*
X-15522204Y11733579D01*
X-15646686Y11721319D01*
X-15766384Y11685009D01*
X-15876698Y11626044D01*
X-15973389Y11546692D01*
X-16052741Y11450001D01*
X-16111706Y11339687D01*
X-16148016Y11219989D01*
X-16160276Y11095507D01*
X-16979334Y11095507D01*
X-16979334Y17207244D01*
X-14476531Y19710047D01*
X-14460737Y19729293D01*
X-14449001Y19751249D01*
X-14441774Y19775074D01*
X-14439334Y19799850D01*
X-14439334Y19963236D01*
X-14333116Y19936897D01*
X-14058625Y19924063D01*
X-13786905Y19965027D01*
X-13528396Y20058214D01*
X-13412928Y20119933D01*
X-13346191Y20359821D01*
X-14130722Y21144353D01*
X-14144864Y21130210D01*
X-14324469Y21309815D01*
X-14310327Y21323958D01*
X-13951117Y21323958D01*
X-13166585Y20539427D01*
X-12926697Y20606164D01*
X-12863390Y20740840D01*
X-12856466Y20721632D01*
X-12794747Y20606164D01*
X-12554859Y20539427D01*
X-11770327Y21323958D01*
X-12554859Y22108489D01*
X-12794747Y22041752D01*
X-12858054Y21907076D01*
X-12864978Y21926284D01*
X-12926697Y22041752D01*
X-13166585Y22108489D01*
X-13951117Y21323958D01*
X-14310327Y21323958D01*
X-14324469Y21338100D01*
X-14144864Y21517705D01*
X-14130722Y21503563D01*
X-13346191Y22288095D01*
X-13412928Y22527983D01*
X-13547604Y22591290D01*
X-13528396Y22598214D01*
X-13412928Y22659933D01*
X-13346191Y22899821D01*
X-14130722Y23684353D01*
X-14144864Y23670210D01*
X-14324469Y23849815D01*
X-14310327Y23863958D01*
X-14324469Y23878100D01*
X-14144864Y24057705D01*
X-14130722Y24043563D01*
X-14116580Y24057706D01*
X-13936974Y23878100D01*
X-13951117Y23863958D01*
X-13166585Y23079427D01*
X-12926697Y23146164D01*
X-12863390Y23280840D01*
X-12856466Y23261632D01*
X-12794747Y23146164D01*
X-12554859Y23079427D01*
X-11770327Y23863958D01*
X-11784470Y23878100D01*
X-11604864Y24057706D01*
X-11590722Y24043563D01*
X-11576580Y24057706D01*
X-11396974Y23878100D01*
M02*
