G04 #@! TF.GenerationSoftware,KiCad,Pcbnew,(5.1.4)-1*
G04 #@! TF.CreationDate,2019-09-08T23:13:03+02:00*
G04 #@! TF.ProjectId,wanhao extruder pcb,77616e68-616f-4206-9578-747275646572,rev?*
G04 #@! TF.SameCoordinates,PXbb169cePY653deea*
G04 #@! TF.FileFunction,Copper,L1,Top*
G04 #@! TF.FilePolarity,Positive*
%FSLAX46Y46*%
G04 Gerber Fmt 4.6, Leading zero omitted, Abs format (unit mm)*
G04 Created by KiCad (PCBNEW (5.1.4)-1) date 2019-09-08 23:13:03*
%MOMM*%
%LPD*%
G04 APERTURE LIST*
%ADD10C,0.100000*%
%ADD11C,1.700000*%
%ADD12O,1.700000X2.000000*%
%ADD13C,5.460000*%
%ADD14C,1.520000*%
%ADD15R,1.520000X1.520000*%
%ADD16C,1.208000*%
%ADD17O,1.700000X1.950000*%
%ADD18C,0.800000*%
%ADD19C,0.250000*%
%ADD20C,0.300000*%
%ADD21C,0.254000*%
G04 APERTURE END LIST*
D10*
G36*
X-14047610Y11094304D02*
G01*
X-14023351Y11090705D01*
X-13999562Y11084746D01*
X-13976471Y11076484D01*
X-13954302Y11065999D01*
X-13933267Y11053391D01*
X-13913569Y11038782D01*
X-13895398Y11022313D01*
X-13878929Y11004142D01*
X-13864320Y10984444D01*
X-13851712Y10963409D01*
X-13841227Y10941240D01*
X-13832965Y10918149D01*
X-13827006Y10894360D01*
X-13823407Y10870101D01*
X-13822204Y10845607D01*
X-13822204Y9345407D01*
X-13823407Y9320913D01*
X-13827006Y9296654D01*
X-13832965Y9272865D01*
X-13841227Y9249774D01*
X-13851712Y9227605D01*
X-13864320Y9206570D01*
X-13878929Y9186872D01*
X-13895398Y9168701D01*
X-13913569Y9152232D01*
X-13933267Y9137623D01*
X-13954302Y9125015D01*
X-13976471Y9114530D01*
X-13999562Y9106268D01*
X-14023351Y9100309D01*
X-14047610Y9096710D01*
X-14072104Y9095507D01*
X-15272304Y9095507D01*
X-15296798Y9096710D01*
X-15321057Y9100309D01*
X-15344846Y9106268D01*
X-15367937Y9114530D01*
X-15390106Y9125015D01*
X-15411141Y9137623D01*
X-15430839Y9152232D01*
X-15449010Y9168701D01*
X-15465479Y9186872D01*
X-15480088Y9206570D01*
X-15492696Y9227605D01*
X-15503181Y9249774D01*
X-15511443Y9272865D01*
X-15517402Y9296654D01*
X-15521001Y9320913D01*
X-15522204Y9345407D01*
X-15522204Y10845607D01*
X-15521001Y10870101D01*
X-15517402Y10894360D01*
X-15511443Y10918149D01*
X-15503181Y10941240D01*
X-15492696Y10963409D01*
X-15480088Y10984444D01*
X-15465479Y11004142D01*
X-15449010Y11022313D01*
X-15430839Y11038782D01*
X-15411141Y11053391D01*
X-15390106Y11065999D01*
X-15367937Y11076484D01*
X-15344846Y11084746D01*
X-15321057Y11090705D01*
X-15296798Y11094304D01*
X-15272304Y11095507D01*
X-14072104Y11095507D01*
X-14047610Y11094304D01*
X-14047610Y11094304D01*
G37*
D11*
X-14672204Y10095507D03*
D12*
X-12172204Y10095507D03*
D13*
X-38260722Y22843958D03*
X2379278Y22843958D03*
D14*
X-29370722Y21323958D03*
X-29370722Y23863958D03*
X-26830722Y21323958D03*
X-26830722Y23863958D03*
X-24290722Y21323958D03*
X-24290722Y23863958D03*
X-21750722Y21323958D03*
X-21750722Y23863958D03*
X-19210722Y21323958D03*
X-19210722Y23863958D03*
X-16670722Y21323958D03*
X-16670722Y23863958D03*
X-14130722Y21323958D03*
X-14130722Y23863958D03*
X-11590722Y21323958D03*
X-11590722Y23863958D03*
X-9050722Y21323958D03*
X-9050722Y23863958D03*
X-6510722Y21323958D03*
D15*
X-6510722Y23863958D03*
D16*
X-28138355Y8979704D03*
X-29638355Y8979704D03*
X-31138355Y8979704D03*
X-32638355Y8979704D03*
X-34138355Y8979704D03*
D17*
X-25670484Y3880811D03*
X-28170484Y3880811D03*
X-30670484Y3880811D03*
D10*
G36*
X-32545980Y4854607D02*
G01*
X-32521711Y4851007D01*
X-32497913Y4845046D01*
X-32474813Y4836781D01*
X-32452635Y4826291D01*
X-32431591Y4813678D01*
X-32411886Y4799064D01*
X-32393707Y4782588D01*
X-32377231Y4764409D01*
X-32362617Y4744704D01*
X-32350004Y4723660D01*
X-32339514Y4701482D01*
X-32331249Y4678382D01*
X-32325288Y4654584D01*
X-32321688Y4630315D01*
X-32320484Y4605811D01*
X-32320484Y3155811D01*
X-32321688Y3131307D01*
X-32325288Y3107038D01*
X-32331249Y3083240D01*
X-32339514Y3060140D01*
X-32350004Y3037962D01*
X-32362617Y3016918D01*
X-32377231Y2997213D01*
X-32393707Y2979034D01*
X-32411886Y2962558D01*
X-32431591Y2947944D01*
X-32452635Y2935331D01*
X-32474813Y2924841D01*
X-32497913Y2916576D01*
X-32521711Y2910615D01*
X-32545980Y2907015D01*
X-32570484Y2905811D01*
X-33770484Y2905811D01*
X-33794988Y2907015D01*
X-33819257Y2910615D01*
X-33843055Y2916576D01*
X-33866155Y2924841D01*
X-33888333Y2935331D01*
X-33909377Y2947944D01*
X-33929082Y2962558D01*
X-33947261Y2979034D01*
X-33963737Y2997213D01*
X-33978351Y3016918D01*
X-33990964Y3037962D01*
X-34001454Y3060140D01*
X-34009719Y3083240D01*
X-34015680Y3107038D01*
X-34019280Y3131307D01*
X-34020484Y3155811D01*
X-34020484Y4605811D01*
X-34019280Y4630315D01*
X-34015680Y4654584D01*
X-34009719Y4678382D01*
X-34001454Y4701482D01*
X-33990964Y4723660D01*
X-33978351Y4744704D01*
X-33963737Y4764409D01*
X-33947261Y4782588D01*
X-33929082Y4799064D01*
X-33909377Y4813678D01*
X-33888333Y4826291D01*
X-33866155Y4836781D01*
X-33843055Y4845046D01*
X-33819257Y4851007D01*
X-33794988Y4854607D01*
X-33770484Y4855811D01*
X-32570484Y4855811D01*
X-32545980Y4854607D01*
X-32545980Y4854607D01*
G37*
D11*
X-33170484Y3880811D03*
D10*
G36*
X-4605980Y11229607D02*
G01*
X-4581711Y11226007D01*
X-4557913Y11220046D01*
X-4534813Y11211781D01*
X-4512635Y11201291D01*
X-4491591Y11188678D01*
X-4471886Y11174064D01*
X-4453707Y11157588D01*
X-4437231Y11139409D01*
X-4422617Y11119704D01*
X-4410004Y11098660D01*
X-4399514Y11076482D01*
X-4391249Y11053382D01*
X-4385288Y11029584D01*
X-4381688Y11005315D01*
X-4380484Y10980811D01*
X-4380484Y9480811D01*
X-4381688Y9456307D01*
X-4385288Y9432038D01*
X-4391249Y9408240D01*
X-4399514Y9385140D01*
X-4410004Y9362962D01*
X-4422617Y9341918D01*
X-4437231Y9322213D01*
X-4453707Y9304034D01*
X-4471886Y9287558D01*
X-4491591Y9272944D01*
X-4512635Y9260331D01*
X-4534813Y9249841D01*
X-4557913Y9241576D01*
X-4581711Y9235615D01*
X-4605980Y9232015D01*
X-4630484Y9230811D01*
X-5830484Y9230811D01*
X-5854988Y9232015D01*
X-5879257Y9235615D01*
X-5903055Y9241576D01*
X-5926155Y9249841D01*
X-5948333Y9260331D01*
X-5969377Y9272944D01*
X-5989082Y9287558D01*
X-6007261Y9304034D01*
X-6023737Y9322213D01*
X-6038351Y9341918D01*
X-6050964Y9362962D01*
X-6061454Y9385140D01*
X-6069719Y9408240D01*
X-6075680Y9432038D01*
X-6079280Y9456307D01*
X-6080484Y9480811D01*
X-6080484Y10980811D01*
X-6079280Y11005315D01*
X-6075680Y11029584D01*
X-6069719Y11053382D01*
X-6061454Y11076482D01*
X-6050964Y11098660D01*
X-6038351Y11119704D01*
X-6023737Y11139409D01*
X-6007261Y11157588D01*
X-5989082Y11174064D01*
X-5969377Y11188678D01*
X-5948333Y11201291D01*
X-5926155Y11211781D01*
X-5903055Y11220046D01*
X-5879257Y11226007D01*
X-5854988Y11229607D01*
X-5830484Y11230811D01*
X-4630484Y11230811D01*
X-4605980Y11229607D01*
X-4605980Y11229607D01*
G37*
D11*
X-5230484Y10230811D03*
D12*
X-2730484Y10230811D03*
D10*
G36*
X-23313851Y11278500D02*
G01*
X-23289582Y11274900D01*
X-23265784Y11268939D01*
X-23242684Y11260674D01*
X-23220506Y11250184D01*
X-23199462Y11237571D01*
X-23179757Y11222957D01*
X-23161578Y11206481D01*
X-23145102Y11188302D01*
X-23130488Y11168597D01*
X-23117875Y11147553D01*
X-23107385Y11125375D01*
X-23099120Y11102275D01*
X-23093159Y11078477D01*
X-23089559Y11054208D01*
X-23088355Y11029704D01*
X-23088355Y9529704D01*
X-23089559Y9505200D01*
X-23093159Y9480931D01*
X-23099120Y9457133D01*
X-23107385Y9434033D01*
X-23117875Y9411855D01*
X-23130488Y9390811D01*
X-23145102Y9371106D01*
X-23161578Y9352927D01*
X-23179757Y9336451D01*
X-23199462Y9321837D01*
X-23220506Y9309224D01*
X-23242684Y9298734D01*
X-23265784Y9290469D01*
X-23289582Y9284508D01*
X-23313851Y9280908D01*
X-23338355Y9279704D01*
X-24538355Y9279704D01*
X-24562859Y9280908D01*
X-24587128Y9284508D01*
X-24610926Y9290469D01*
X-24634026Y9298734D01*
X-24656204Y9309224D01*
X-24677248Y9321837D01*
X-24696953Y9336451D01*
X-24715132Y9352927D01*
X-24731608Y9371106D01*
X-24746222Y9390811D01*
X-24758835Y9411855D01*
X-24769325Y9434033D01*
X-24777590Y9457133D01*
X-24783551Y9480931D01*
X-24787151Y9505200D01*
X-24788355Y9529704D01*
X-24788355Y11029704D01*
X-24787151Y11054208D01*
X-24783551Y11078477D01*
X-24777590Y11102275D01*
X-24769325Y11125375D01*
X-24758835Y11147553D01*
X-24746222Y11168597D01*
X-24731608Y11188302D01*
X-24715132Y11206481D01*
X-24696953Y11222957D01*
X-24677248Y11237571D01*
X-24656204Y11250184D01*
X-24634026Y11260674D01*
X-24610926Y11268939D01*
X-24587128Y11274900D01*
X-24562859Y11278500D01*
X-24538355Y11279704D01*
X-23338355Y11279704D01*
X-23313851Y11278500D01*
X-23313851Y11278500D01*
G37*
D11*
X-23938355Y10279704D03*
D12*
X-21438355Y10279704D03*
X-2730484Y3880811D03*
D10*
G36*
X-4605980Y4879607D02*
G01*
X-4581711Y4876007D01*
X-4557913Y4870046D01*
X-4534813Y4861781D01*
X-4512635Y4851291D01*
X-4491591Y4838678D01*
X-4471886Y4824064D01*
X-4453707Y4807588D01*
X-4437231Y4789409D01*
X-4422617Y4769704D01*
X-4410004Y4748660D01*
X-4399514Y4726482D01*
X-4391249Y4703382D01*
X-4385288Y4679584D01*
X-4381688Y4655315D01*
X-4380484Y4630811D01*
X-4380484Y3130811D01*
X-4381688Y3106307D01*
X-4385288Y3082038D01*
X-4391249Y3058240D01*
X-4399514Y3035140D01*
X-4410004Y3012962D01*
X-4422617Y2991918D01*
X-4437231Y2972213D01*
X-4453707Y2954034D01*
X-4471886Y2937558D01*
X-4491591Y2922944D01*
X-4512635Y2910331D01*
X-4534813Y2899841D01*
X-4557913Y2891576D01*
X-4581711Y2885615D01*
X-4605980Y2882015D01*
X-4630484Y2880811D01*
X-5830484Y2880811D01*
X-5854988Y2882015D01*
X-5879257Y2885615D01*
X-5903055Y2891576D01*
X-5926155Y2899841D01*
X-5948333Y2910331D01*
X-5969377Y2922944D01*
X-5989082Y2937558D01*
X-6007261Y2954034D01*
X-6023737Y2972213D01*
X-6038351Y2991918D01*
X-6050964Y3012962D01*
X-6061454Y3035140D01*
X-6069719Y3058240D01*
X-6075680Y3082038D01*
X-6079280Y3106307D01*
X-6080484Y3130811D01*
X-6080484Y4630811D01*
X-6079280Y4655315D01*
X-6075680Y4679584D01*
X-6069719Y4703382D01*
X-6061454Y4726482D01*
X-6050964Y4748660D01*
X-6038351Y4769704D01*
X-6023737Y4789409D01*
X-6007261Y4807588D01*
X-5989082Y4824064D01*
X-5969377Y4838678D01*
X-5948333Y4851291D01*
X-5926155Y4861781D01*
X-5903055Y4870046D01*
X-5879257Y4876007D01*
X-5854988Y4879607D01*
X-5830484Y4880811D01*
X-4630484Y4880811D01*
X-4605980Y4879607D01*
X-4605980Y4879607D01*
G37*
D11*
X-5230484Y3880811D03*
D12*
X-10350484Y3880811D03*
D10*
G36*
X-12225980Y4879607D02*
G01*
X-12201711Y4876007D01*
X-12177913Y4870046D01*
X-12154813Y4861781D01*
X-12132635Y4851291D01*
X-12111591Y4838678D01*
X-12091886Y4824064D01*
X-12073707Y4807588D01*
X-12057231Y4789409D01*
X-12042617Y4769704D01*
X-12030004Y4748660D01*
X-12019514Y4726482D01*
X-12011249Y4703382D01*
X-12005288Y4679584D01*
X-12001688Y4655315D01*
X-12000484Y4630811D01*
X-12000484Y3130811D01*
X-12001688Y3106307D01*
X-12005288Y3082038D01*
X-12011249Y3058240D01*
X-12019514Y3035140D01*
X-12030004Y3012962D01*
X-12042617Y2991918D01*
X-12057231Y2972213D01*
X-12073707Y2954034D01*
X-12091886Y2937558D01*
X-12111591Y2922944D01*
X-12132635Y2910331D01*
X-12154813Y2899841D01*
X-12177913Y2891576D01*
X-12201711Y2885615D01*
X-12225980Y2882015D01*
X-12250484Y2880811D01*
X-13450484Y2880811D01*
X-13474988Y2882015D01*
X-13499257Y2885615D01*
X-13523055Y2891576D01*
X-13546155Y2899841D01*
X-13568333Y2910331D01*
X-13589377Y2922944D01*
X-13609082Y2937558D01*
X-13627261Y2954034D01*
X-13643737Y2972213D01*
X-13658351Y2991918D01*
X-13670964Y3012962D01*
X-13681454Y3035140D01*
X-13689719Y3058240D01*
X-13695680Y3082038D01*
X-13699280Y3106307D01*
X-13700484Y3130811D01*
X-13700484Y4630811D01*
X-13699280Y4655315D01*
X-13695680Y4679584D01*
X-13689719Y4703382D01*
X-13681454Y4726482D01*
X-13670964Y4748660D01*
X-13658351Y4769704D01*
X-13643737Y4789409D01*
X-13627261Y4807588D01*
X-13609082Y4824064D01*
X-13589377Y4838678D01*
X-13568333Y4851291D01*
X-13546155Y4861781D01*
X-13523055Y4870046D01*
X-13499257Y4876007D01*
X-13474988Y4879607D01*
X-13450484Y4880811D01*
X-12250484Y4880811D01*
X-12225980Y4879607D01*
X-12225980Y4879607D01*
G37*
D11*
X-12850484Y3880811D03*
D12*
X-17970484Y3880811D03*
D10*
G36*
X-19845980Y4879607D02*
G01*
X-19821711Y4876007D01*
X-19797913Y4870046D01*
X-19774813Y4861781D01*
X-19752635Y4851291D01*
X-19731591Y4838678D01*
X-19711886Y4824064D01*
X-19693707Y4807588D01*
X-19677231Y4789409D01*
X-19662617Y4769704D01*
X-19650004Y4748660D01*
X-19639514Y4726482D01*
X-19631249Y4703382D01*
X-19625288Y4679584D01*
X-19621688Y4655315D01*
X-19620484Y4630811D01*
X-19620484Y3130811D01*
X-19621688Y3106307D01*
X-19625288Y3082038D01*
X-19631249Y3058240D01*
X-19639514Y3035140D01*
X-19650004Y3012962D01*
X-19662617Y2991918D01*
X-19677231Y2972213D01*
X-19693707Y2954034D01*
X-19711886Y2937558D01*
X-19731591Y2922944D01*
X-19752635Y2910331D01*
X-19774813Y2899841D01*
X-19797913Y2891576D01*
X-19821711Y2885615D01*
X-19845980Y2882015D01*
X-19870484Y2880811D01*
X-21070484Y2880811D01*
X-21094988Y2882015D01*
X-21119257Y2885615D01*
X-21143055Y2891576D01*
X-21166155Y2899841D01*
X-21188333Y2910331D01*
X-21209377Y2922944D01*
X-21229082Y2937558D01*
X-21247261Y2954034D01*
X-21263737Y2972213D01*
X-21278351Y2991918D01*
X-21290964Y3012962D01*
X-21301454Y3035140D01*
X-21309719Y3058240D01*
X-21315680Y3082038D01*
X-21319280Y3106307D01*
X-21320484Y3130811D01*
X-21320484Y4630811D01*
X-21319280Y4655315D01*
X-21315680Y4679584D01*
X-21309719Y4703382D01*
X-21301454Y4726482D01*
X-21290964Y4748660D01*
X-21278351Y4769704D01*
X-21263737Y4789409D01*
X-21247261Y4807588D01*
X-21229082Y4824064D01*
X-21209377Y4838678D01*
X-21188333Y4851291D01*
X-21166155Y4861781D01*
X-21143055Y4870046D01*
X-21119257Y4876007D01*
X-21094988Y4879607D01*
X-21070484Y4880811D01*
X-19870484Y4880811D01*
X-19845980Y4879607D01*
X-19845980Y4879607D01*
G37*
D11*
X-20470484Y3880811D03*
D18*
X-29806334Y26149850D03*
X-31076334Y26149850D03*
X-32346334Y26149850D03*
X-33616334Y26149850D03*
X-33616334Y24879850D03*
X-32346334Y24879850D03*
X-32346334Y23609850D03*
X-33616334Y23609850D03*
X-33616334Y22339850D03*
X-32346334Y22339850D03*
X-32346334Y21069850D03*
X-33616334Y21069850D03*
X-29806334Y17259850D03*
X-33616334Y19799850D03*
X-20916334Y17259850D03*
X-20916334Y15989850D03*
X-20916334Y14719850D03*
X-20916334Y13449850D03*
X-20916334Y18529850D03*
X-1866334Y1003958D03*
X-3136334Y1003958D03*
X-17106334Y1003958D03*
X-18376334Y1003958D03*
X-1430722Y7353958D03*
X-2700722Y7353958D03*
X-3970722Y13703958D03*
X-34450722Y1003958D03*
X-33180722Y1003958D03*
X-28100722Y10909850D03*
X-4849484Y12770811D03*
X-23264484Y959811D03*
X-1166484Y25978811D03*
D19*
X-34138355Y16556325D02*
X-29370722Y21323958D01*
X-34138355Y8979704D02*
X-34138355Y16556325D01*
X-28100722Y12017337D02*
X-31138355Y8979704D01*
X-29370722Y23863958D02*
X-28100722Y22593958D01*
X-28100722Y22593958D02*
X-28100722Y12017337D01*
X-26830722Y7535462D02*
X-26830722Y21323958D01*
X-27266334Y7099850D02*
X-26830722Y7535462D01*
X-28612685Y7099850D02*
X-27266334Y7099850D01*
X-29638355Y8125520D02*
X-28612685Y7099850D01*
X-29638355Y8979704D02*
X-29638355Y8125520D01*
X-24290722Y10378071D02*
X-24192355Y10279704D01*
X-24290722Y10632071D02*
X-23938355Y10279704D01*
X-24290722Y21323958D02*
X-24290722Y10632071D01*
X-21692355Y10429704D02*
X-21692355Y10279704D01*
X-24290722Y23863958D02*
X-23020722Y22593958D01*
X-23020722Y12012071D02*
X-23020722Y13088569D01*
X-21438355Y10429704D02*
X-23020722Y12012071D01*
X-21438355Y10279704D02*
X-21438355Y10429704D01*
X-23020722Y22593958D02*
X-23020722Y13088569D01*
D20*
X-17940722Y11345462D02*
X-17940722Y22593958D01*
X-17940722Y22593958D02*
X-19210722Y23863958D01*
X-20916334Y8369850D02*
X-17940722Y11345462D01*
X-24906445Y8369850D02*
X-20916334Y8369850D01*
X-28170484Y5105811D02*
X-24906445Y8369850D01*
X-28170484Y3880811D02*
X-28170484Y5105811D01*
X-16670722Y23863958D02*
X-15400722Y22593958D01*
X-15400722Y22593958D02*
X-15400722Y17513958D01*
X-15400722Y17513958D02*
X-16670722Y16243958D01*
X-16670722Y10732762D02*
X-18360124Y9043360D01*
X-16670722Y16243958D02*
X-16670722Y10732762D01*
X-18360124Y9043360D02*
X-25383635Y2019850D01*
X-30034523Y2019850D02*
X-27080111Y2019850D01*
X-30670484Y2655811D02*
X-30034523Y2019850D01*
X-30670484Y3880811D02*
X-30670484Y2655811D01*
X-25383635Y2019850D02*
X-27080111Y2019850D01*
D19*
X-27080111Y2019850D02*
X-29823523Y2019850D01*
D21*
G36*
X-877000Y24277498D02*
G01*
X-1041029Y23881497D01*
X-1177722Y23194292D01*
X-1177722Y22493624D01*
X-1041029Y21806419D01*
X-877000Y21410418D01*
X-876999Y877000D01*
X-35279334Y877000D01*
X-35279334Y8111568D01*
X-35249885Y8067495D01*
X-35050564Y7868174D01*
X-34816188Y7711568D01*
X-34555762Y7603697D01*
X-34279296Y7548704D01*
X-33997414Y7548704D01*
X-33720948Y7603697D01*
X-33460522Y7711568D01*
X-33226146Y7868174D01*
X-33213897Y7880423D01*
X-33041531Y7801798D01*
X-32803986Y7745775D01*
X-32560075Y7737172D01*
X-32319173Y7776318D01*
X-32090537Y7861709D01*
X-32060275Y7877885D01*
X-32050564Y7868174D01*
X-31816188Y7711568D01*
X-31555762Y7603697D01*
X-31279296Y7548704D01*
X-30997414Y7548704D01*
X-30720948Y7603697D01*
X-30490022Y7699349D01*
X-30438895Y7603697D01*
X-30433743Y7594058D01*
X-30314777Y7449097D01*
X-30278447Y7419282D01*
X-29318920Y6459753D01*
X-29289108Y6423427D01*
X-29144147Y6304461D01*
X-28978762Y6216061D01*
X-28799310Y6161625D01*
X-28612686Y6143244D01*
X-28565921Y6147850D01*
X-28510131Y6147850D01*
X-28827391Y5830590D01*
X-28864669Y5799997D01*
X-28895262Y5762719D01*
X-28895263Y5762718D01*
X-28986759Y5651229D01*
X-29077481Y5481501D01*
X-29098828Y5411131D01*
X-29106683Y5406932D01*
X-29362040Y5197367D01*
X-29420484Y5126152D01*
X-29478928Y5197367D01*
X-29734286Y5406932D01*
X-30025620Y5562653D01*
X-30341736Y5658546D01*
X-30670484Y5690925D01*
X-30999233Y5658546D01*
X-31315349Y5562653D01*
X-31606683Y5406932D01*
X-31743861Y5294354D01*
X-31806101Y5370194D01*
X-31969912Y5504630D01*
X-32156803Y5604526D01*
X-32359591Y5666041D01*
X-32570484Y5686812D01*
X-33770484Y5686812D01*
X-33981377Y5666041D01*
X-34184165Y5604526D01*
X-34371056Y5504630D01*
X-34534867Y5370194D01*
X-34669303Y5206383D01*
X-34769199Y5019492D01*
X-34830714Y4816704D01*
X-34851485Y4605811D01*
X-34851485Y3155811D01*
X-34830714Y2944918D01*
X-34769199Y2742130D01*
X-34669303Y2555239D01*
X-34534867Y2391428D01*
X-34371056Y2256992D01*
X-34184165Y2157096D01*
X-33981377Y2095581D01*
X-33770484Y2074810D01*
X-32570484Y2074810D01*
X-32359591Y2095581D01*
X-32156803Y2157096D01*
X-31969912Y2256992D01*
X-31806101Y2391428D01*
X-31743860Y2467268D01*
X-31606682Y2354690D01*
X-31598828Y2350492D01*
X-31577481Y2280121D01*
X-31486759Y2110393D01*
X-31364669Y1961625D01*
X-31327390Y1931031D01*
X-30759311Y1362953D01*
X-30728709Y1325664D01*
X-30579941Y1203574D01*
X-30410214Y1112853D01*
X-30318131Y1084920D01*
X-30226049Y1056987D01*
X-30034523Y1038123D01*
X-29986530Y1042850D01*
X-25431628Y1042850D01*
X-25383635Y1038123D01*
X-25192110Y1056987D01*
X-25007944Y1112853D01*
X-24838217Y1203574D01*
X-24689449Y1325664D01*
X-24658851Y1362948D01*
X-22151485Y3870313D01*
X-22151485Y3130811D01*
X-22130714Y2919918D01*
X-22069199Y2717130D01*
X-21969303Y2530239D01*
X-21834867Y2366428D01*
X-21671056Y2231992D01*
X-21484165Y2132096D01*
X-21281377Y2070581D01*
X-21070484Y2049810D01*
X-19870484Y2049810D01*
X-19659591Y2070581D01*
X-19456803Y2132096D01*
X-19269912Y2231992D01*
X-19106101Y2366428D01*
X-18971665Y2530239D01*
X-18931503Y2605376D01*
X-18862530Y2542147D01*
X-18613493Y2390957D01*
X-18339745Y2291257D01*
X-18327374Y2289335D01*
X-18097484Y2410656D01*
X-18097484Y3753811D01*
X-17843484Y3753811D01*
X-17843484Y2410656D01*
X-17613594Y2289335D01*
X-17601223Y2291257D01*
X-17327475Y2390957D01*
X-17078438Y2542147D01*
X-16863682Y2739016D01*
X-16691459Y2973999D01*
X-16568388Y3238066D01*
X-16499199Y3521069D01*
X-16643252Y3753811D01*
X-17843484Y3753811D01*
X-18097484Y3753811D01*
X-18117484Y3753811D01*
X-18117484Y4007811D01*
X-18097484Y4007811D01*
X-18097484Y5350966D01*
X-17843484Y5350966D01*
X-17843484Y4007811D01*
X-16643252Y4007811D01*
X-16499199Y4240553D01*
X-16568388Y4523556D01*
X-16618375Y4630811D01*
X-14531485Y4630811D01*
X-14531485Y3130811D01*
X-14510714Y2919918D01*
X-14449199Y2717130D01*
X-14349303Y2530239D01*
X-14214867Y2366428D01*
X-14051056Y2231992D01*
X-13864165Y2132096D01*
X-13661377Y2070581D01*
X-13450484Y2049810D01*
X-12250484Y2049810D01*
X-12039591Y2070581D01*
X-11836803Y2132096D01*
X-11649912Y2231992D01*
X-11486101Y2366428D01*
X-11423860Y2442268D01*
X-11286682Y2329690D01*
X-10995348Y2173969D01*
X-10679232Y2078076D01*
X-10350484Y2045697D01*
X-10021735Y2078076D01*
X-9705619Y2173969D01*
X-9414285Y2329690D01*
X-9158928Y2539255D01*
X-8949363Y2794612D01*
X-8793642Y3085947D01*
X-8697749Y3402063D01*
X-8673484Y3648429D01*
X-8673484Y4113194D01*
X-8697749Y4359560D01*
X-8780032Y4630811D01*
X-6911485Y4630811D01*
X-6911485Y3130811D01*
X-6890714Y2919918D01*
X-6829199Y2717130D01*
X-6729303Y2530239D01*
X-6594867Y2366428D01*
X-6431056Y2231992D01*
X-6244165Y2132096D01*
X-6041377Y2070581D01*
X-5830484Y2049810D01*
X-4630484Y2049810D01*
X-4419591Y2070581D01*
X-4216803Y2132096D01*
X-4029912Y2231992D01*
X-3866101Y2366428D01*
X-3803860Y2442268D01*
X-3666682Y2329690D01*
X-3375348Y2173969D01*
X-3059232Y2078076D01*
X-2730484Y2045697D01*
X-2401735Y2078076D01*
X-2085619Y2173969D01*
X-1794285Y2329690D01*
X-1538928Y2539255D01*
X-1329363Y2794612D01*
X-1173642Y3085947D01*
X-1077749Y3402063D01*
X-1053484Y3648429D01*
X-1053484Y4113194D01*
X-1077749Y4359560D01*
X-1173642Y4675676D01*
X-1329363Y4967010D01*
X-1538928Y5222367D01*
X-1794286Y5431932D01*
X-2085620Y5587653D01*
X-2401736Y5683546D01*
X-2730484Y5715925D01*
X-3059233Y5683546D01*
X-3375349Y5587653D01*
X-3666683Y5431932D01*
X-3803861Y5319354D01*
X-3866101Y5395194D01*
X-4029912Y5529630D01*
X-4216803Y5629526D01*
X-4419591Y5691041D01*
X-4630484Y5711812D01*
X-5830484Y5711812D01*
X-6041377Y5691041D01*
X-6244165Y5629526D01*
X-6431056Y5529630D01*
X-6594867Y5395194D01*
X-6729303Y5231383D01*
X-6829199Y5044492D01*
X-6890714Y4841704D01*
X-6911485Y4630811D01*
X-8780032Y4630811D01*
X-8793642Y4675676D01*
X-8949363Y4967010D01*
X-9158928Y5222367D01*
X-9414286Y5431932D01*
X-9705620Y5587653D01*
X-10021736Y5683546D01*
X-10350484Y5715925D01*
X-10679233Y5683546D01*
X-10995349Y5587653D01*
X-11286683Y5431932D01*
X-11423861Y5319354D01*
X-11486101Y5395194D01*
X-11649912Y5529630D01*
X-11836803Y5629526D01*
X-12039591Y5691041D01*
X-12250484Y5711812D01*
X-13450484Y5711812D01*
X-13661377Y5691041D01*
X-13864165Y5629526D01*
X-14051056Y5529630D01*
X-14214867Y5395194D01*
X-14349303Y5231383D01*
X-14449199Y5044492D01*
X-14510714Y4841704D01*
X-14531485Y4630811D01*
X-16618375Y4630811D01*
X-16691459Y4787623D01*
X-16863682Y5022606D01*
X-17078438Y5219475D01*
X-17327475Y5370665D01*
X-17601223Y5470365D01*
X-17613594Y5472287D01*
X-17843484Y5350966D01*
X-18097484Y5350966D01*
X-18327374Y5472287D01*
X-18339745Y5470365D01*
X-18613493Y5370665D01*
X-18862530Y5219475D01*
X-18931503Y5156246D01*
X-18971665Y5231383D01*
X-19106101Y5395194D01*
X-19269912Y5529630D01*
X-19456803Y5629526D01*
X-19659591Y5691041D01*
X-19870484Y5711812D01*
X-20309986Y5711812D01*
X-17635345Y8386452D01*
X-17635341Y8386457D01*
X-16353205Y9668592D01*
X-16353205Y9345407D01*
X-16332436Y9134534D01*
X-16270926Y8931764D01*
X-16171040Y8744891D01*
X-16036616Y8581095D01*
X-15872820Y8446671D01*
X-15685947Y8346785D01*
X-15483177Y8285275D01*
X-15272304Y8264506D01*
X-14072104Y8264506D01*
X-13861231Y8285275D01*
X-13658461Y8346785D01*
X-13471588Y8446671D01*
X-13307792Y8581095D01*
X-13245549Y8656938D01*
X-13108402Y8544386D01*
X-12817068Y8388665D01*
X-12500952Y8292772D01*
X-12172204Y8260393D01*
X-11843455Y8292772D01*
X-11527339Y8388665D01*
X-11236005Y8544386D01*
X-10980648Y8753951D01*
X-10771083Y9009308D01*
X-10615362Y9300643D01*
X-10519469Y9616759D01*
X-10495204Y9863125D01*
X-10495204Y10327890D01*
X-10519469Y10574256D01*
X-10615362Y10890372D01*
X-10663702Y10980811D01*
X-6911485Y10980811D01*
X-6911485Y9480811D01*
X-6890714Y9269918D01*
X-6829199Y9067130D01*
X-6729303Y8880239D01*
X-6594867Y8716428D01*
X-6431056Y8581992D01*
X-6244165Y8482096D01*
X-6041377Y8420581D01*
X-5830484Y8399810D01*
X-4630484Y8399810D01*
X-4419591Y8420581D01*
X-4216803Y8482096D01*
X-4029912Y8581992D01*
X-3866101Y8716428D01*
X-3731665Y8880239D01*
X-3691503Y8955376D01*
X-3622530Y8892147D01*
X-3373493Y8740957D01*
X-3099745Y8641257D01*
X-3087374Y8639335D01*
X-2857484Y8760656D01*
X-2857484Y10103811D01*
X-2603484Y10103811D01*
X-2603484Y8760656D01*
X-2373594Y8639335D01*
X-2361223Y8641257D01*
X-2087475Y8740957D01*
X-1838438Y8892147D01*
X-1623682Y9089016D01*
X-1451459Y9323999D01*
X-1328388Y9588066D01*
X-1259199Y9871069D01*
X-1403252Y10103811D01*
X-2603484Y10103811D01*
X-2857484Y10103811D01*
X-2877484Y10103811D01*
X-2877484Y10357811D01*
X-2857484Y10357811D01*
X-2857484Y11700966D01*
X-2603484Y11700966D01*
X-2603484Y10357811D01*
X-1403252Y10357811D01*
X-1259199Y10590553D01*
X-1328388Y10873556D01*
X-1451459Y11137623D01*
X-1623682Y11372606D01*
X-1838438Y11569475D01*
X-2087475Y11720665D01*
X-2361223Y11820365D01*
X-2373594Y11822287D01*
X-2603484Y11700966D01*
X-2857484Y11700966D01*
X-3087374Y11822287D01*
X-3099745Y11820365D01*
X-3373493Y11720665D01*
X-3622530Y11569475D01*
X-3691503Y11506246D01*
X-3731665Y11581383D01*
X-3866101Y11745194D01*
X-4029912Y11879630D01*
X-4216803Y11979526D01*
X-4419591Y12041041D01*
X-4630484Y12061812D01*
X-5830484Y12061812D01*
X-6041377Y12041041D01*
X-6244165Y11979526D01*
X-6431056Y11879630D01*
X-6594867Y11745194D01*
X-6729303Y11581383D01*
X-6829199Y11394492D01*
X-6890714Y11191704D01*
X-6911485Y10980811D01*
X-10663702Y10980811D01*
X-10771083Y11181706D01*
X-10798537Y11215158D01*
X-10469743Y11351349D01*
X-9982154Y11677145D01*
X-9567494Y12091805D01*
X-9241698Y12579394D01*
X-9017286Y13121173D01*
X-8902881Y13696323D01*
X-8902881Y14282741D01*
X-9017286Y14857891D01*
X-9241698Y15399670D01*
X-9567494Y15887259D01*
X-9982154Y16301919D01*
X-10469743Y16627715D01*
X-11011522Y16852127D01*
X-11586672Y16966532D01*
X-12173090Y16966532D01*
X-12748240Y16852127D01*
X-13290019Y16627715D01*
X-13777608Y16301919D01*
X-14192268Y15887259D01*
X-14518064Y15399670D01*
X-14742476Y14857891D01*
X-14856881Y14282741D01*
X-14856881Y13696323D01*
X-14742476Y13121173D01*
X-14518064Y12579394D01*
X-14192268Y12091805D01*
X-14022040Y11921577D01*
X-14072104Y11926508D01*
X-15272304Y11926508D01*
X-15483177Y11905739D01*
X-15685947Y11844229D01*
X-15693722Y11840073D01*
X-15693722Y15839272D01*
X-14743815Y16789178D01*
X-14706536Y16819772D01*
X-14584446Y16968540D01*
X-14493725Y17138267D01*
X-14437859Y17322433D01*
X-14423722Y17465965D01*
X-14423722Y17465967D01*
X-14418995Y17513957D01*
X-14423722Y17561948D01*
X-14423722Y19764148D01*
X-14287028Y19736958D01*
X-13974416Y19736958D01*
X-13667811Y19797945D01*
X-13378996Y19917577D01*
X-13119068Y20091254D01*
X-12898018Y20312304D01*
X-12860722Y20368122D01*
X-12823426Y20312304D01*
X-12602376Y20091254D01*
X-12342448Y19917577D01*
X-12053633Y19797945D01*
X-11747028Y19736958D01*
X-11434416Y19736958D01*
X-11127811Y19797945D01*
X-10838996Y19917577D01*
X-10579068Y20091254D01*
X-10358018Y20312304D01*
X-10320722Y20368122D01*
X-10283426Y20312304D01*
X-10062376Y20091254D01*
X-9802448Y19917577D01*
X-9513633Y19797945D01*
X-9207028Y19736958D01*
X-8894416Y19736958D01*
X-8587811Y19797945D01*
X-8298996Y19917577D01*
X-8039068Y20091254D01*
X-7818018Y20312304D01*
X-7780722Y20368122D01*
X-7743426Y20312304D01*
X-7522376Y20091254D01*
X-7262448Y19917577D01*
X-6973633Y19797945D01*
X-6667028Y19736958D01*
X-6354416Y19736958D01*
X-6047811Y19797945D01*
X-5758996Y19917577D01*
X-5499068Y20091254D01*
X-5278018Y20312304D01*
X-5104341Y20572232D01*
X-4984709Y20861047D01*
X-4923722Y21167652D01*
X-4923722Y21480264D01*
X-4984709Y21786869D01*
X-5104341Y22075684D01*
X-5278018Y22335612D01*
X-5332294Y22389888D01*
X-5289043Y22413006D01*
X-5163116Y22516352D01*
X-5059770Y22642279D01*
X-4982977Y22785948D01*
X-4935688Y22941838D01*
X-4919721Y23103958D01*
X-4919721Y24623958D01*
X-4935688Y24786078D01*
X-4982977Y24941968D01*
X-5059770Y25085637D01*
X-5163116Y25211564D01*
X-5289043Y25314910D01*
X-5432712Y25391703D01*
X-5588602Y25438992D01*
X-5750722Y25454959D01*
X-7270722Y25454959D01*
X-7432842Y25438992D01*
X-7588732Y25391703D01*
X-7732401Y25314910D01*
X-7858328Y25211564D01*
X-7961674Y25085637D01*
X-7984792Y25042386D01*
X-8039068Y25096662D01*
X-8298996Y25270339D01*
X-8587811Y25389971D01*
X-8894416Y25450958D01*
X-9207028Y25450958D01*
X-9513633Y25389971D01*
X-9802448Y25270339D01*
X-10062376Y25096662D01*
X-10283426Y24875612D01*
X-10320722Y24819794D01*
X-10358018Y24875612D01*
X-10579068Y25096662D01*
X-10838996Y25270339D01*
X-11127811Y25389971D01*
X-11434416Y25450958D01*
X-11747028Y25450958D01*
X-12053633Y25389971D01*
X-12342448Y25270339D01*
X-12602376Y25096662D01*
X-12823426Y24875612D01*
X-12860722Y24819794D01*
X-12898018Y24875612D01*
X-13119068Y25096662D01*
X-13378996Y25270339D01*
X-13667811Y25389971D01*
X-13974416Y25450958D01*
X-14287028Y25450958D01*
X-14593633Y25389971D01*
X-14882448Y25270339D01*
X-15142376Y25096662D01*
X-15363426Y24875612D01*
X-15400722Y24819794D01*
X-15438018Y24875612D01*
X-15659068Y25096662D01*
X-15918996Y25270339D01*
X-16207811Y25389971D01*
X-16514416Y25450958D01*
X-16827028Y25450958D01*
X-17133633Y25389971D01*
X-17422448Y25270339D01*
X-17682376Y25096662D01*
X-17903426Y24875612D01*
X-17940722Y24819794D01*
X-17978018Y24875612D01*
X-18199068Y25096662D01*
X-18458996Y25270339D01*
X-18747811Y25389971D01*
X-19054416Y25450958D01*
X-19367028Y25450958D01*
X-19673633Y25389971D01*
X-19962448Y25270339D01*
X-20222376Y25096662D01*
X-20443426Y24875612D01*
X-20480722Y24819794D01*
X-20518018Y24875612D01*
X-20739068Y25096662D01*
X-20998996Y25270339D01*
X-21287811Y25389971D01*
X-21594416Y25450958D01*
X-21907028Y25450958D01*
X-22213633Y25389971D01*
X-22502448Y25270339D01*
X-22762376Y25096662D01*
X-22983426Y24875612D01*
X-23020722Y24819794D01*
X-23058018Y24875612D01*
X-23279068Y25096662D01*
X-23538996Y25270339D01*
X-23827811Y25389971D01*
X-24134416Y25450958D01*
X-24447028Y25450958D01*
X-24753633Y25389971D01*
X-25042448Y25270339D01*
X-25302376Y25096662D01*
X-25523426Y24875612D01*
X-25560722Y24819794D01*
X-25598018Y24875612D01*
X-25819068Y25096662D01*
X-26078996Y25270339D01*
X-26367811Y25389971D01*
X-26674416Y25450958D01*
X-26987028Y25450958D01*
X-27293633Y25389971D01*
X-27582448Y25270339D01*
X-27842376Y25096662D01*
X-28063426Y24875612D01*
X-28100722Y24819794D01*
X-28138018Y24875612D01*
X-28359068Y25096662D01*
X-28618996Y25270339D01*
X-28907811Y25389971D01*
X-29214416Y25450958D01*
X-29527028Y25450958D01*
X-29833633Y25389971D01*
X-30122448Y25270339D01*
X-30382376Y25096662D01*
X-30603426Y24875612D01*
X-30777103Y24615684D01*
X-30896735Y24326869D01*
X-30957722Y24020264D01*
X-30957722Y23707652D01*
X-30896735Y23401047D01*
X-30777103Y23112232D01*
X-30603426Y22852304D01*
X-30382376Y22631254D01*
X-30326558Y22593958D01*
X-30382376Y22556662D01*
X-30603426Y22335612D01*
X-30777103Y22075684D01*
X-30896735Y21786869D01*
X-30957722Y21480264D01*
X-30957722Y21167652D01*
X-30943725Y21097285D01*
X-34778446Y17262564D01*
X-34814777Y17232748D01*
X-34892315Y17138267D01*
X-34933744Y17087786D01*
X-35022143Y16922402D01*
X-35076580Y16742949D01*
X-35094961Y16556325D01*
X-35090354Y16509550D01*
X-35090355Y10051443D01*
X-35249885Y9891913D01*
X-35279334Y9847840D01*
X-35279334Y20903490D01*
X-35108549Y21159087D01*
X-34840415Y21806419D01*
X-34703722Y22493624D01*
X-34703722Y23194292D01*
X-34840415Y23881497D01*
X-35108549Y24528829D01*
X-35279334Y24784426D01*
X-35279334Y26542850D01*
X-877000Y26542850D01*
X-877000Y24277498D01*
X-877000Y24277498D01*
G37*
X-877000Y24277498D02*
X-1041029Y23881497D01*
X-1177722Y23194292D01*
X-1177722Y22493624D01*
X-1041029Y21806419D01*
X-877000Y21410418D01*
X-876999Y877000D01*
X-35279334Y877000D01*
X-35279334Y8111568D01*
X-35249885Y8067495D01*
X-35050564Y7868174D01*
X-34816188Y7711568D01*
X-34555762Y7603697D01*
X-34279296Y7548704D01*
X-33997414Y7548704D01*
X-33720948Y7603697D01*
X-33460522Y7711568D01*
X-33226146Y7868174D01*
X-33213897Y7880423D01*
X-33041531Y7801798D01*
X-32803986Y7745775D01*
X-32560075Y7737172D01*
X-32319173Y7776318D01*
X-32090537Y7861709D01*
X-32060275Y7877885D01*
X-32050564Y7868174D01*
X-31816188Y7711568D01*
X-31555762Y7603697D01*
X-31279296Y7548704D01*
X-30997414Y7548704D01*
X-30720948Y7603697D01*
X-30490022Y7699349D01*
X-30438895Y7603697D01*
X-30433743Y7594058D01*
X-30314777Y7449097D01*
X-30278447Y7419282D01*
X-29318920Y6459753D01*
X-29289108Y6423427D01*
X-29144147Y6304461D01*
X-28978762Y6216061D01*
X-28799310Y6161625D01*
X-28612686Y6143244D01*
X-28565921Y6147850D01*
X-28510131Y6147850D01*
X-28827391Y5830590D01*
X-28864669Y5799997D01*
X-28895262Y5762719D01*
X-28895263Y5762718D01*
X-28986759Y5651229D01*
X-29077481Y5481501D01*
X-29098828Y5411131D01*
X-29106683Y5406932D01*
X-29362040Y5197367D01*
X-29420484Y5126152D01*
X-29478928Y5197367D01*
X-29734286Y5406932D01*
X-30025620Y5562653D01*
X-30341736Y5658546D01*
X-30670484Y5690925D01*
X-30999233Y5658546D01*
X-31315349Y5562653D01*
X-31606683Y5406932D01*
X-31743861Y5294354D01*
X-31806101Y5370194D01*
X-31969912Y5504630D01*
X-32156803Y5604526D01*
X-32359591Y5666041D01*
X-32570484Y5686812D01*
X-33770484Y5686812D01*
X-33981377Y5666041D01*
X-34184165Y5604526D01*
X-34371056Y5504630D01*
X-34534867Y5370194D01*
X-34669303Y5206383D01*
X-34769199Y5019492D01*
X-34830714Y4816704D01*
X-34851485Y4605811D01*
X-34851485Y3155811D01*
X-34830714Y2944918D01*
X-34769199Y2742130D01*
X-34669303Y2555239D01*
X-34534867Y2391428D01*
X-34371056Y2256992D01*
X-34184165Y2157096D01*
X-33981377Y2095581D01*
X-33770484Y2074810D01*
X-32570484Y2074810D01*
X-32359591Y2095581D01*
X-32156803Y2157096D01*
X-31969912Y2256992D01*
X-31806101Y2391428D01*
X-31743860Y2467268D01*
X-31606682Y2354690D01*
X-31598828Y2350492D01*
X-31577481Y2280121D01*
X-31486759Y2110393D01*
X-31364669Y1961625D01*
X-31327390Y1931031D01*
X-30759311Y1362953D01*
X-30728709Y1325664D01*
X-30579941Y1203574D01*
X-30410214Y1112853D01*
X-30318131Y1084920D01*
X-30226049Y1056987D01*
X-30034523Y1038123D01*
X-29986530Y1042850D01*
X-25431628Y1042850D01*
X-25383635Y1038123D01*
X-25192110Y1056987D01*
X-25007944Y1112853D01*
X-24838217Y1203574D01*
X-24689449Y1325664D01*
X-24658851Y1362948D01*
X-22151485Y3870313D01*
X-22151485Y3130811D01*
X-22130714Y2919918D01*
X-22069199Y2717130D01*
X-21969303Y2530239D01*
X-21834867Y2366428D01*
X-21671056Y2231992D01*
X-21484165Y2132096D01*
X-21281377Y2070581D01*
X-21070484Y2049810D01*
X-19870484Y2049810D01*
X-19659591Y2070581D01*
X-19456803Y2132096D01*
X-19269912Y2231992D01*
X-19106101Y2366428D01*
X-18971665Y2530239D01*
X-18931503Y2605376D01*
X-18862530Y2542147D01*
X-18613493Y2390957D01*
X-18339745Y2291257D01*
X-18327374Y2289335D01*
X-18097484Y2410656D01*
X-18097484Y3753811D01*
X-17843484Y3753811D01*
X-17843484Y2410656D01*
X-17613594Y2289335D01*
X-17601223Y2291257D01*
X-17327475Y2390957D01*
X-17078438Y2542147D01*
X-16863682Y2739016D01*
X-16691459Y2973999D01*
X-16568388Y3238066D01*
X-16499199Y3521069D01*
X-16643252Y3753811D01*
X-17843484Y3753811D01*
X-18097484Y3753811D01*
X-18117484Y3753811D01*
X-18117484Y4007811D01*
X-18097484Y4007811D01*
X-18097484Y5350966D01*
X-17843484Y5350966D01*
X-17843484Y4007811D01*
X-16643252Y4007811D01*
X-16499199Y4240553D01*
X-16568388Y4523556D01*
X-16618375Y4630811D01*
X-14531485Y4630811D01*
X-14531485Y3130811D01*
X-14510714Y2919918D01*
X-14449199Y2717130D01*
X-14349303Y2530239D01*
X-14214867Y2366428D01*
X-14051056Y2231992D01*
X-13864165Y2132096D01*
X-13661377Y2070581D01*
X-13450484Y2049810D01*
X-12250484Y2049810D01*
X-12039591Y2070581D01*
X-11836803Y2132096D01*
X-11649912Y2231992D01*
X-11486101Y2366428D01*
X-11423860Y2442268D01*
X-11286682Y2329690D01*
X-10995348Y2173969D01*
X-10679232Y2078076D01*
X-10350484Y2045697D01*
X-10021735Y2078076D01*
X-9705619Y2173969D01*
X-9414285Y2329690D01*
X-9158928Y2539255D01*
X-8949363Y2794612D01*
X-8793642Y3085947D01*
X-8697749Y3402063D01*
X-8673484Y3648429D01*
X-8673484Y4113194D01*
X-8697749Y4359560D01*
X-8780032Y4630811D01*
X-6911485Y4630811D01*
X-6911485Y3130811D01*
X-6890714Y2919918D01*
X-6829199Y2717130D01*
X-6729303Y2530239D01*
X-6594867Y2366428D01*
X-6431056Y2231992D01*
X-6244165Y2132096D01*
X-6041377Y2070581D01*
X-5830484Y2049810D01*
X-4630484Y2049810D01*
X-4419591Y2070581D01*
X-4216803Y2132096D01*
X-4029912Y2231992D01*
X-3866101Y2366428D01*
X-3803860Y2442268D01*
X-3666682Y2329690D01*
X-3375348Y2173969D01*
X-3059232Y2078076D01*
X-2730484Y2045697D01*
X-2401735Y2078076D01*
X-2085619Y2173969D01*
X-1794285Y2329690D01*
X-1538928Y2539255D01*
X-1329363Y2794612D01*
X-1173642Y3085947D01*
X-1077749Y3402063D01*
X-1053484Y3648429D01*
X-1053484Y4113194D01*
X-1077749Y4359560D01*
X-1173642Y4675676D01*
X-1329363Y4967010D01*
X-1538928Y5222367D01*
X-1794286Y5431932D01*
X-2085620Y5587653D01*
X-2401736Y5683546D01*
X-2730484Y5715925D01*
X-3059233Y5683546D01*
X-3375349Y5587653D01*
X-3666683Y5431932D01*
X-3803861Y5319354D01*
X-3866101Y5395194D01*
X-4029912Y5529630D01*
X-4216803Y5629526D01*
X-4419591Y5691041D01*
X-4630484Y5711812D01*
X-5830484Y5711812D01*
X-6041377Y5691041D01*
X-6244165Y5629526D01*
X-6431056Y5529630D01*
X-6594867Y5395194D01*
X-6729303Y5231383D01*
X-6829199Y5044492D01*
X-6890714Y4841704D01*
X-6911485Y4630811D01*
X-8780032Y4630811D01*
X-8793642Y4675676D01*
X-8949363Y4967010D01*
X-9158928Y5222367D01*
X-9414286Y5431932D01*
X-9705620Y5587653D01*
X-10021736Y5683546D01*
X-10350484Y5715925D01*
X-10679233Y5683546D01*
X-10995349Y5587653D01*
X-11286683Y5431932D01*
X-11423861Y5319354D01*
X-11486101Y5395194D01*
X-11649912Y5529630D01*
X-11836803Y5629526D01*
X-12039591Y5691041D01*
X-12250484Y5711812D01*
X-13450484Y5711812D01*
X-13661377Y5691041D01*
X-13864165Y5629526D01*
X-14051056Y5529630D01*
X-14214867Y5395194D01*
X-14349303Y5231383D01*
X-14449199Y5044492D01*
X-14510714Y4841704D01*
X-14531485Y4630811D01*
X-16618375Y4630811D01*
X-16691459Y4787623D01*
X-16863682Y5022606D01*
X-17078438Y5219475D01*
X-17327475Y5370665D01*
X-17601223Y5470365D01*
X-17613594Y5472287D01*
X-17843484Y5350966D01*
X-18097484Y5350966D01*
X-18327374Y5472287D01*
X-18339745Y5470365D01*
X-18613493Y5370665D01*
X-18862530Y5219475D01*
X-18931503Y5156246D01*
X-18971665Y5231383D01*
X-19106101Y5395194D01*
X-19269912Y5529630D01*
X-19456803Y5629526D01*
X-19659591Y5691041D01*
X-19870484Y5711812D01*
X-20309986Y5711812D01*
X-17635345Y8386452D01*
X-17635341Y8386457D01*
X-16353205Y9668592D01*
X-16353205Y9345407D01*
X-16332436Y9134534D01*
X-16270926Y8931764D01*
X-16171040Y8744891D01*
X-16036616Y8581095D01*
X-15872820Y8446671D01*
X-15685947Y8346785D01*
X-15483177Y8285275D01*
X-15272304Y8264506D01*
X-14072104Y8264506D01*
X-13861231Y8285275D01*
X-13658461Y8346785D01*
X-13471588Y8446671D01*
X-13307792Y8581095D01*
X-13245549Y8656938D01*
X-13108402Y8544386D01*
X-12817068Y8388665D01*
X-12500952Y8292772D01*
X-12172204Y8260393D01*
X-11843455Y8292772D01*
X-11527339Y8388665D01*
X-11236005Y8544386D01*
X-10980648Y8753951D01*
X-10771083Y9009308D01*
X-10615362Y9300643D01*
X-10519469Y9616759D01*
X-10495204Y9863125D01*
X-10495204Y10327890D01*
X-10519469Y10574256D01*
X-10615362Y10890372D01*
X-10663702Y10980811D01*
X-6911485Y10980811D01*
X-6911485Y9480811D01*
X-6890714Y9269918D01*
X-6829199Y9067130D01*
X-6729303Y8880239D01*
X-6594867Y8716428D01*
X-6431056Y8581992D01*
X-6244165Y8482096D01*
X-6041377Y8420581D01*
X-5830484Y8399810D01*
X-4630484Y8399810D01*
X-4419591Y8420581D01*
X-4216803Y8482096D01*
X-4029912Y8581992D01*
X-3866101Y8716428D01*
X-3731665Y8880239D01*
X-3691503Y8955376D01*
X-3622530Y8892147D01*
X-3373493Y8740957D01*
X-3099745Y8641257D01*
X-3087374Y8639335D01*
X-2857484Y8760656D01*
X-2857484Y10103811D01*
X-2603484Y10103811D01*
X-2603484Y8760656D01*
X-2373594Y8639335D01*
X-2361223Y8641257D01*
X-2087475Y8740957D01*
X-1838438Y8892147D01*
X-1623682Y9089016D01*
X-1451459Y9323999D01*
X-1328388Y9588066D01*
X-1259199Y9871069D01*
X-1403252Y10103811D01*
X-2603484Y10103811D01*
X-2857484Y10103811D01*
X-2877484Y10103811D01*
X-2877484Y10357811D01*
X-2857484Y10357811D01*
X-2857484Y11700966D01*
X-2603484Y11700966D01*
X-2603484Y10357811D01*
X-1403252Y10357811D01*
X-1259199Y10590553D01*
X-1328388Y10873556D01*
X-1451459Y11137623D01*
X-1623682Y11372606D01*
X-1838438Y11569475D01*
X-2087475Y11720665D01*
X-2361223Y11820365D01*
X-2373594Y11822287D01*
X-2603484Y11700966D01*
X-2857484Y11700966D01*
X-3087374Y11822287D01*
X-3099745Y11820365D01*
X-3373493Y11720665D01*
X-3622530Y11569475D01*
X-3691503Y11506246D01*
X-3731665Y11581383D01*
X-3866101Y11745194D01*
X-4029912Y11879630D01*
X-4216803Y11979526D01*
X-4419591Y12041041D01*
X-4630484Y12061812D01*
X-5830484Y12061812D01*
X-6041377Y12041041D01*
X-6244165Y11979526D01*
X-6431056Y11879630D01*
X-6594867Y11745194D01*
X-6729303Y11581383D01*
X-6829199Y11394492D01*
X-6890714Y11191704D01*
X-6911485Y10980811D01*
X-10663702Y10980811D01*
X-10771083Y11181706D01*
X-10798537Y11215158D01*
X-10469743Y11351349D01*
X-9982154Y11677145D01*
X-9567494Y12091805D01*
X-9241698Y12579394D01*
X-9017286Y13121173D01*
X-8902881Y13696323D01*
X-8902881Y14282741D01*
X-9017286Y14857891D01*
X-9241698Y15399670D01*
X-9567494Y15887259D01*
X-9982154Y16301919D01*
X-10469743Y16627715D01*
X-11011522Y16852127D01*
X-11586672Y16966532D01*
X-12173090Y16966532D01*
X-12748240Y16852127D01*
X-13290019Y16627715D01*
X-13777608Y16301919D01*
X-14192268Y15887259D01*
X-14518064Y15399670D01*
X-14742476Y14857891D01*
X-14856881Y14282741D01*
X-14856881Y13696323D01*
X-14742476Y13121173D01*
X-14518064Y12579394D01*
X-14192268Y12091805D01*
X-14022040Y11921577D01*
X-14072104Y11926508D01*
X-15272304Y11926508D01*
X-15483177Y11905739D01*
X-15685947Y11844229D01*
X-15693722Y11840073D01*
X-15693722Y15839272D01*
X-14743815Y16789178D01*
X-14706536Y16819772D01*
X-14584446Y16968540D01*
X-14493725Y17138267D01*
X-14437859Y17322433D01*
X-14423722Y17465965D01*
X-14423722Y17465967D01*
X-14418995Y17513957D01*
X-14423722Y17561948D01*
X-14423722Y19764148D01*
X-14287028Y19736958D01*
X-13974416Y19736958D01*
X-13667811Y19797945D01*
X-13378996Y19917577D01*
X-13119068Y20091254D01*
X-12898018Y20312304D01*
X-12860722Y20368122D01*
X-12823426Y20312304D01*
X-12602376Y20091254D01*
X-12342448Y19917577D01*
X-12053633Y19797945D01*
X-11747028Y19736958D01*
X-11434416Y19736958D01*
X-11127811Y19797945D01*
X-10838996Y19917577D01*
X-10579068Y20091254D01*
X-10358018Y20312304D01*
X-10320722Y20368122D01*
X-10283426Y20312304D01*
X-10062376Y20091254D01*
X-9802448Y19917577D01*
X-9513633Y19797945D01*
X-9207028Y19736958D01*
X-8894416Y19736958D01*
X-8587811Y19797945D01*
X-8298996Y19917577D01*
X-8039068Y20091254D01*
X-7818018Y20312304D01*
X-7780722Y20368122D01*
X-7743426Y20312304D01*
X-7522376Y20091254D01*
X-7262448Y19917577D01*
X-6973633Y19797945D01*
X-6667028Y19736958D01*
X-6354416Y19736958D01*
X-6047811Y19797945D01*
X-5758996Y19917577D01*
X-5499068Y20091254D01*
X-5278018Y20312304D01*
X-5104341Y20572232D01*
X-4984709Y20861047D01*
X-4923722Y21167652D01*
X-4923722Y21480264D01*
X-4984709Y21786869D01*
X-5104341Y22075684D01*
X-5278018Y22335612D01*
X-5332294Y22389888D01*
X-5289043Y22413006D01*
X-5163116Y22516352D01*
X-5059770Y22642279D01*
X-4982977Y22785948D01*
X-4935688Y22941838D01*
X-4919721Y23103958D01*
X-4919721Y24623958D01*
X-4935688Y24786078D01*
X-4982977Y24941968D01*
X-5059770Y25085637D01*
X-5163116Y25211564D01*
X-5289043Y25314910D01*
X-5432712Y25391703D01*
X-5588602Y25438992D01*
X-5750722Y25454959D01*
X-7270722Y25454959D01*
X-7432842Y25438992D01*
X-7588732Y25391703D01*
X-7732401Y25314910D01*
X-7858328Y25211564D01*
X-7961674Y25085637D01*
X-7984792Y25042386D01*
X-8039068Y25096662D01*
X-8298996Y25270339D01*
X-8587811Y25389971D01*
X-8894416Y25450958D01*
X-9207028Y25450958D01*
X-9513633Y25389971D01*
X-9802448Y25270339D01*
X-10062376Y25096662D01*
X-10283426Y24875612D01*
X-10320722Y24819794D01*
X-10358018Y24875612D01*
X-10579068Y25096662D01*
X-10838996Y25270339D01*
X-11127811Y25389971D01*
X-11434416Y25450958D01*
X-11747028Y25450958D01*
X-12053633Y25389971D01*
X-12342448Y25270339D01*
X-12602376Y25096662D01*
X-12823426Y24875612D01*
X-12860722Y24819794D01*
X-12898018Y24875612D01*
X-13119068Y25096662D01*
X-13378996Y25270339D01*
X-13667811Y25389971D01*
X-13974416Y25450958D01*
X-14287028Y25450958D01*
X-14593633Y25389971D01*
X-14882448Y25270339D01*
X-15142376Y25096662D01*
X-15363426Y24875612D01*
X-15400722Y24819794D01*
X-15438018Y24875612D01*
X-15659068Y25096662D01*
X-15918996Y25270339D01*
X-16207811Y25389971D01*
X-16514416Y25450958D01*
X-16827028Y25450958D01*
X-17133633Y25389971D01*
X-17422448Y25270339D01*
X-17682376Y25096662D01*
X-17903426Y24875612D01*
X-17940722Y24819794D01*
X-17978018Y24875612D01*
X-18199068Y25096662D01*
X-18458996Y25270339D01*
X-18747811Y25389971D01*
X-19054416Y25450958D01*
X-19367028Y25450958D01*
X-19673633Y25389971D01*
X-19962448Y25270339D01*
X-20222376Y25096662D01*
X-20443426Y24875612D01*
X-20480722Y24819794D01*
X-20518018Y24875612D01*
X-20739068Y25096662D01*
X-20998996Y25270339D01*
X-21287811Y25389971D01*
X-21594416Y25450958D01*
X-21907028Y25450958D01*
X-22213633Y25389971D01*
X-22502448Y25270339D01*
X-22762376Y25096662D01*
X-22983426Y24875612D01*
X-23020722Y24819794D01*
X-23058018Y24875612D01*
X-23279068Y25096662D01*
X-23538996Y25270339D01*
X-23827811Y25389971D01*
X-24134416Y25450958D01*
X-24447028Y25450958D01*
X-24753633Y25389971D01*
X-25042448Y25270339D01*
X-25302376Y25096662D01*
X-25523426Y24875612D01*
X-25560722Y24819794D01*
X-25598018Y24875612D01*
X-25819068Y25096662D01*
X-26078996Y25270339D01*
X-26367811Y25389971D01*
X-26674416Y25450958D01*
X-26987028Y25450958D01*
X-27293633Y25389971D01*
X-27582448Y25270339D01*
X-27842376Y25096662D01*
X-28063426Y24875612D01*
X-28100722Y24819794D01*
X-28138018Y24875612D01*
X-28359068Y25096662D01*
X-28618996Y25270339D01*
X-28907811Y25389971D01*
X-29214416Y25450958D01*
X-29527028Y25450958D01*
X-29833633Y25389971D01*
X-30122448Y25270339D01*
X-30382376Y25096662D01*
X-30603426Y24875612D01*
X-30777103Y24615684D01*
X-30896735Y24326869D01*
X-30957722Y24020264D01*
X-30957722Y23707652D01*
X-30896735Y23401047D01*
X-30777103Y23112232D01*
X-30603426Y22852304D01*
X-30382376Y22631254D01*
X-30326558Y22593958D01*
X-30382376Y22556662D01*
X-30603426Y22335612D01*
X-30777103Y22075684D01*
X-30896735Y21786869D01*
X-30957722Y21480264D01*
X-30957722Y21167652D01*
X-30943725Y21097285D01*
X-34778446Y17262564D01*
X-34814777Y17232748D01*
X-34892315Y17138267D01*
X-34933744Y17087786D01*
X-35022143Y16922402D01*
X-35076580Y16742949D01*
X-35094961Y16556325D01*
X-35090354Y16509550D01*
X-35090355Y10051443D01*
X-35249885Y9891913D01*
X-35279334Y9847840D01*
X-35279334Y20903490D01*
X-35108549Y21159087D01*
X-34840415Y21806419D01*
X-34703722Y22493624D01*
X-34703722Y23194292D01*
X-34840415Y23881497D01*
X-35108549Y24528829D01*
X-35279334Y24784426D01*
X-35279334Y26542850D01*
X-877000Y26542850D01*
X-877000Y24277498D01*
G36*
X-27944607Y8993846D02*
G01*
X-27958750Y8979704D01*
X-27944607Y8965561D01*
X-28124212Y8785956D01*
X-28138355Y8800099D01*
X-28152497Y8785956D01*
X-28207355Y8840814D01*
X-28207355Y9118594D01*
X-28152497Y9173451D01*
X-28138355Y9159309D01*
X-28124212Y9173451D01*
X-27944607Y8993846D01*
X-27944607Y8993846D01*
G37*
X-27944607Y8993846D02*
X-27958750Y8979704D01*
X-27944607Y8965561D01*
X-28124212Y8785956D01*
X-28138355Y8800099D01*
X-28152497Y8785956D01*
X-28207355Y8840814D01*
X-28207355Y9118594D01*
X-28152497Y9173451D01*
X-28138355Y9159309D01*
X-28124212Y9173451D01*
X-27944607Y8993846D01*
G36*
X-32569355Y9118594D02*
G01*
X-32569355Y8840814D01*
X-32624212Y8785956D01*
X-32638355Y8800099D01*
X-32652497Y8785956D01*
X-32707355Y8840814D01*
X-32707355Y9118594D01*
X-32652497Y9173451D01*
X-32638355Y9159309D01*
X-32624212Y9173451D01*
X-32569355Y9118594D01*
X-32569355Y9118594D01*
G37*
X-32569355Y9118594D02*
X-32569355Y8840814D01*
X-32624212Y8785956D01*
X-32638355Y8800099D01*
X-32652497Y8785956D01*
X-32707355Y8840814D01*
X-32707355Y9118594D01*
X-32652497Y9173451D01*
X-32638355Y9159309D01*
X-32624212Y9173451D01*
X-32569355Y9118594D01*
G36*
X-27782722Y10168823D02*
G01*
X-27972724Y10213633D01*
X-28216635Y10222236D01*
X-28457537Y10183090D01*
X-28666790Y10104938D01*
X-27782722Y10989006D01*
X-27782722Y10168823D01*
X-27782722Y10168823D01*
G37*
X-27782722Y10168823D02*
X-27972724Y10213633D01*
X-28216635Y10222236D01*
X-28457537Y10183090D01*
X-28666790Y10104938D01*
X-27782722Y10989006D01*
X-27782722Y10168823D01*
G36*
X-20443426Y22852304D02*
G01*
X-20222376Y22631254D01*
X-20166558Y22593958D01*
X-20222376Y22556662D01*
X-20443426Y22335612D01*
X-20617103Y22075684D01*
X-20622431Y22062821D01*
X-20786585Y22108489D01*
X-21571117Y21323958D01*
X-20786585Y20539427D01*
X-20622431Y20585095D01*
X-20617103Y20572232D01*
X-20443426Y20312304D01*
X-20222376Y20091254D01*
X-19962448Y19917577D01*
X-19673633Y19797945D01*
X-19367028Y19736958D01*
X-19054416Y19736958D01*
X-18917721Y19764148D01*
X-18917722Y11750149D01*
X-19814433Y10853437D01*
X-19881513Y11074569D01*
X-20037234Y11365903D01*
X-20246799Y11621260D01*
X-20502157Y11830825D01*
X-20793491Y11986546D01*
X-21109607Y12082439D01*
X-21438355Y12114818D01*
X-21746763Y12084442D01*
X-22068722Y12406401D01*
X-22068722Y19965564D01*
X-21953116Y19936897D01*
X-21678625Y19924063D01*
X-21406905Y19965027D01*
X-21148396Y20058214D01*
X-21032928Y20119933D01*
X-20966191Y20359821D01*
X-21750722Y21144353D01*
X-21764864Y21130210D01*
X-21944469Y21309815D01*
X-21930327Y21323958D01*
X-21944469Y21338100D01*
X-21764864Y21517705D01*
X-21750722Y21503563D01*
X-20966191Y22288095D01*
X-21011859Y22452249D01*
X-20998996Y22457577D01*
X-20739068Y22631254D01*
X-20518018Y22852304D01*
X-20480722Y22908122D01*
X-20443426Y22852304D01*
X-20443426Y22852304D01*
G37*
X-20443426Y22852304D02*
X-20222376Y22631254D01*
X-20166558Y22593958D01*
X-20222376Y22556662D01*
X-20443426Y22335612D01*
X-20617103Y22075684D01*
X-20622431Y22062821D01*
X-20786585Y22108489D01*
X-21571117Y21323958D01*
X-20786585Y20539427D01*
X-20622431Y20585095D01*
X-20617103Y20572232D01*
X-20443426Y20312304D01*
X-20222376Y20091254D01*
X-19962448Y19917577D01*
X-19673633Y19797945D01*
X-19367028Y19736958D01*
X-19054416Y19736958D01*
X-18917721Y19764148D01*
X-18917722Y11750149D01*
X-19814433Y10853437D01*
X-19881513Y11074569D01*
X-20037234Y11365903D01*
X-20246799Y11621260D01*
X-20502157Y11830825D01*
X-20793491Y11986546D01*
X-21109607Y12082439D01*
X-21438355Y12114818D01*
X-21746763Y12084442D01*
X-22068722Y12406401D01*
X-22068722Y19965564D01*
X-21953116Y19936897D01*
X-21678625Y19924063D01*
X-21406905Y19965027D01*
X-21148396Y20058214D01*
X-21032928Y20119933D01*
X-20966191Y20359821D01*
X-21750722Y21144353D01*
X-21764864Y21130210D01*
X-21944469Y21309815D01*
X-21930327Y21323958D01*
X-21944469Y21338100D01*
X-21764864Y21517705D01*
X-21750722Y21503563D01*
X-20966191Y22288095D01*
X-21011859Y22452249D01*
X-20998996Y22457577D01*
X-20739068Y22631254D01*
X-20518018Y22852304D01*
X-20480722Y22908122D01*
X-20443426Y22852304D01*
G36*
X-29052721Y16050836D02*
G01*
X-29332675Y16330790D01*
X-29820264Y16656586D01*
X-30362043Y16880998D01*
X-30937193Y16995403D01*
X-31523611Y16995403D01*
X-32098761Y16880998D01*
X-32640540Y16656586D01*
X-32794911Y16553439D01*
X-29597395Y19750955D01*
X-29527028Y19736958D01*
X-29214416Y19736958D01*
X-29052722Y19769121D01*
X-29052721Y16050836D01*
X-29052721Y16050836D01*
G37*
X-29052721Y16050836D02*
X-29332675Y16330790D01*
X-29820264Y16656586D01*
X-30362043Y16880998D01*
X-30937193Y16995403D01*
X-31523611Y16995403D01*
X-32098761Y16880998D01*
X-32640540Y16656586D01*
X-32794911Y16553439D01*
X-29597395Y19750955D01*
X-29527028Y19736958D01*
X-29214416Y19736958D01*
X-29052722Y19769121D01*
X-29052721Y16050836D01*
M02*
