G04 #@! TF.GenerationSoftware,KiCad,Pcbnew,(5.1.4)-1*
G04 #@! TF.CreationDate,2019-09-08T23:13:03+02:00*
G04 #@! TF.ProjectId,wanhao extruder pcb,77616e68-616f-4206-9578-747275646572,rev?*
G04 #@! TF.SameCoordinates,PXbb169cePY653deea*
G04 #@! TF.FileFunction,Legend,Top*
G04 #@! TF.FilePolarity,Positive*
%FSLAX46Y46*%
G04 Gerber Fmt 4.6, Leading zero omitted, Abs format (unit mm)*
G04 Created by KiCad (PCBNEW (5.1.4)-1) date 2019-09-08 23:13:03*
%MOMM*%
%LPD*%
G04 APERTURE LIST*
%ADD10C,0.150000*%
%ADD11C,0.120000*%
%ADD12C,0.127000*%
%ADD13C,0.050000*%
G04 APERTURE END LIST*
D10*
X-15011414Y16547228D02*
X-15011414Y17547228D01*
X-14630462Y17547228D01*
X-14535224Y17499608D01*
X-14487604Y17451989D01*
X-14439985Y17356751D01*
X-14439985Y17213894D01*
X-14487604Y17118656D01*
X-14535224Y17071037D01*
X-14630462Y17023418D01*
X-15011414Y17023418D01*
X-13868557Y16547228D02*
X-13963795Y16594847D01*
X-14011414Y16690085D01*
X-14011414Y17547228D01*
X-13059033Y17213894D02*
X-13059033Y16547228D01*
X-13487604Y17213894D02*
X-13487604Y16690085D01*
X-13439985Y16594847D01*
X-13344747Y16547228D01*
X-13201890Y16547228D01*
X-13106652Y16594847D01*
X-13059033Y16642466D01*
X-12630462Y16594847D02*
X-12535224Y16547228D01*
X-12344747Y16547228D01*
X-12249509Y16594847D01*
X-12201890Y16690085D01*
X-12201890Y16737704D01*
X-12249509Y16832942D01*
X-12344747Y16880561D01*
X-12487604Y16880561D01*
X-12582843Y16928180D01*
X-12630462Y17023418D01*
X-12630462Y17071037D01*
X-12582843Y17166275D01*
X-12487604Y17213894D01*
X-12344747Y17213894D01*
X-12249509Y17166275D01*
X-10201890Y16547228D02*
X-10249509Y16547228D01*
X-10344747Y16594847D01*
X-10487604Y16737704D01*
X-10725700Y17023418D01*
X-10820938Y17166275D01*
X-10868557Y17309132D01*
X-10868557Y17404370D01*
X-10820938Y17499608D01*
X-10725700Y17547228D01*
X-10678081Y17547228D01*
X-10582843Y17499608D01*
X-10535224Y17404370D01*
X-10535224Y17356751D01*
X-10582843Y17261513D01*
X-10630462Y17213894D01*
X-10916176Y17023418D01*
X-10963795Y16975799D01*
X-11011414Y16880561D01*
X-11011414Y16737704D01*
X-10963795Y16642466D01*
X-10916176Y16594847D01*
X-10820938Y16547228D01*
X-10678081Y16547228D01*
X-10582843Y16594847D01*
X-10535224Y16642466D01*
X-10392366Y16832942D01*
X-10344747Y16975799D01*
X-10344747Y17071037D01*
X-9011414Y16547228D02*
X-9011414Y17547228D01*
X-8773319Y17547228D01*
X-8630462Y17499608D01*
X-8535224Y17404370D01*
X-8487604Y17309132D01*
X-8439985Y17118656D01*
X-8439985Y16975799D01*
X-8487604Y16785323D01*
X-8535224Y16690085D01*
X-8630462Y16594847D01*
X-8773319Y16547228D01*
X-9011414Y16547228D01*
X-7582843Y17547228D02*
X-7773319Y17547228D01*
X-7868557Y17499608D01*
X-7916176Y17451989D01*
X-8011414Y17309132D01*
X-8059033Y17118656D01*
X-8059033Y16737704D01*
X-8011414Y16642466D01*
X-7963795Y16594847D01*
X-7868557Y16547228D01*
X-7678081Y16547228D01*
X-7582843Y16594847D01*
X-7535224Y16642466D01*
X-7487604Y16737704D01*
X-7487604Y16975799D01*
X-7535224Y17071037D01*
X-7582843Y17118656D01*
X-7678081Y17166275D01*
X-7868557Y17166275D01*
X-7963795Y17118656D01*
X-8011414Y17071037D01*
X-8059033Y16975799D01*
X-5963795Y17071037D02*
X-5820938Y17023418D01*
X-5773319Y16975799D01*
X-5725700Y16880561D01*
X-5725700Y16737704D01*
X-5773319Y16642466D01*
X-5820938Y16594847D01*
X-5916176Y16547228D01*
X-6297128Y16547228D01*
X-6297128Y17547228D01*
X-5963795Y17547228D01*
X-5868557Y17499608D01*
X-5820938Y17451989D01*
X-5773319Y17356751D01*
X-5773319Y17261513D01*
X-5820938Y17166275D01*
X-5868557Y17118656D01*
X-5963795Y17071037D01*
X-6297128Y17071037D01*
X-4820938Y16547228D02*
X-5297128Y16547228D01*
X-5297128Y17547228D01*
X-3868557Y17547228D02*
X-3535224Y16547228D01*
X-3201890Y17547228D01*
X-2344747Y16547228D02*
X-2916176Y16547228D01*
X-2630462Y16547228D02*
X-2630462Y17547228D01*
X-2725700Y17404370D01*
X-2820938Y17309132D01*
X-2916176Y17261513D01*
X-1916176Y16642466D02*
X-1868557Y16594847D01*
X-1916176Y16547228D01*
X-1963795Y16594847D01*
X-1916176Y16642466D01*
X-1916176Y16547228D01*
X-916176Y16547228D02*
X-1487605Y16547228D01*
X-1201890Y16547228D02*
X-1201890Y17547228D01*
X-1297128Y17404370D01*
X-1392366Y17309132D01*
X-1487605Y17261513D01*
D11*
X-7848860Y6376288D02*
G75*
G02X-8350548Y7345843I588075J918869D01*
G01*
X-16272204Y12845507D02*
X-17522204Y12845507D01*
X-17522204Y12845507D02*
X-17522204Y11595507D01*
X-41110722Y27033958D02*
X5229278Y27033958D01*
X-41110722Y27033958D02*
X-41110722Y18153958D01*
X5229278Y18153958D02*
X5229278Y27033958D01*
X5229278Y18153958D02*
X-41110722Y18153958D01*
X-6510722Y27419958D02*
X-6256722Y27927958D01*
X-6256722Y27927958D02*
X-6764722Y27927958D01*
X-6764722Y27927958D02*
X-6510722Y27419958D01*
D12*
X-35638355Y6849704D02*
X-35638355Y10349704D01*
X-26638355Y6849704D02*
X-35638355Y6849704D01*
X-26638355Y10349704D02*
X-26638355Y6849704D01*
X-35638355Y10349704D02*
X-26638355Y10349704D01*
D11*
X-36020484Y6630811D02*
X-36020484Y5380811D01*
X-34770484Y6630811D02*
X-36020484Y6630811D01*
X-23870484Y1130811D02*
X-29420484Y1130811D01*
X-23870484Y4080811D02*
X-23870484Y1130811D01*
X-23120484Y4080811D02*
X-23870484Y4080811D01*
X-34970484Y1130811D02*
X-29420484Y1130811D01*
X-34970484Y4080811D02*
X-34970484Y1130811D01*
X-35720484Y4080811D02*
X-34970484Y4080811D01*
X-23120484Y6330811D02*
X-24920484Y6330811D01*
X-23120484Y5580811D02*
X-23120484Y6330811D01*
X-24920484Y5580811D02*
X-23120484Y5580811D01*
X-24920484Y6330811D02*
X-24920484Y5580811D01*
X-33920484Y6330811D02*
X-35720484Y6330811D01*
X-33920484Y5580811D02*
X-33920484Y6330811D01*
X-35720484Y5580811D02*
X-33920484Y5580811D01*
X-35720484Y6330811D02*
X-35720484Y5580811D01*
X-26420484Y6330811D02*
X-32420484Y6330811D01*
X-26420484Y5580811D02*
X-26420484Y6330811D01*
X-32420484Y5580811D02*
X-26420484Y5580811D01*
X-32420484Y6330811D02*
X-32420484Y5580811D01*
X-23110484Y6340811D02*
X-35730484Y6340811D01*
X-23110484Y370811D02*
X-23110484Y6340811D01*
X-35730484Y370811D02*
X-23110484Y370811D01*
X-35730484Y6340811D02*
X-35730484Y370811D01*
X-7790484Y12690811D02*
X-7790484Y6720811D01*
X-7790484Y6720811D02*
X-170484Y6720811D01*
X-170484Y6720811D02*
X-170484Y12690811D01*
X-170484Y12690811D02*
X-7790484Y12690811D01*
X-4480484Y12680811D02*
X-4480484Y11930811D01*
X-4480484Y11930811D02*
X-3480484Y11930811D01*
X-3480484Y11930811D02*
X-3480484Y12680811D01*
X-3480484Y12680811D02*
X-4480484Y12680811D01*
X-7780484Y12680811D02*
X-7780484Y11930811D01*
X-7780484Y11930811D02*
X-5980484Y11930811D01*
X-5980484Y11930811D02*
X-5980484Y12680811D01*
X-5980484Y12680811D02*
X-7780484Y12680811D01*
X-1980484Y12680811D02*
X-1980484Y11930811D01*
X-1980484Y11930811D02*
X-180484Y11930811D01*
X-180484Y11930811D02*
X-180484Y12680811D01*
X-180484Y12680811D02*
X-1980484Y12680811D01*
X-7780484Y10430811D02*
X-7030484Y10430811D01*
X-7030484Y10430811D02*
X-7030484Y7480811D01*
X-7030484Y7480811D02*
X-3980484Y7480811D01*
X-180484Y10430811D02*
X-930484Y10430811D01*
X-930484Y10430811D02*
X-930484Y7480811D01*
X-930484Y7480811D02*
X-3980484Y7480811D01*
X-6830484Y12980811D02*
X-8080484Y12980811D01*
X-8080484Y12980811D02*
X-8080484Y11730811D01*
X-26498355Y12739704D02*
X-26498355Y6769704D01*
X-26498355Y6769704D02*
X-18878355Y6769704D01*
X-18878355Y6769704D02*
X-18878355Y12739704D01*
X-18878355Y12739704D02*
X-26498355Y12739704D01*
X-23188355Y12729704D02*
X-23188355Y11979704D01*
X-23188355Y11979704D02*
X-22188355Y11979704D01*
X-22188355Y11979704D02*
X-22188355Y12729704D01*
X-22188355Y12729704D02*
X-23188355Y12729704D01*
X-26488355Y12729704D02*
X-26488355Y11979704D01*
X-26488355Y11979704D02*
X-24688355Y11979704D01*
X-24688355Y11979704D02*
X-24688355Y12729704D01*
X-24688355Y12729704D02*
X-26488355Y12729704D01*
X-20688355Y12729704D02*
X-20688355Y11979704D01*
X-20688355Y11979704D02*
X-18888355Y11979704D01*
X-18888355Y11979704D02*
X-18888355Y12729704D01*
X-18888355Y12729704D02*
X-20688355Y12729704D01*
X-26488355Y10479704D02*
X-25738355Y10479704D01*
X-25738355Y10479704D02*
X-25738355Y7529704D01*
X-25738355Y7529704D02*
X-22688355Y7529704D01*
X-18888355Y10479704D02*
X-19638355Y10479704D01*
X-19638355Y10479704D02*
X-19638355Y7529704D01*
X-19638355Y7529704D02*
X-22688355Y7529704D01*
X-25538355Y13029704D02*
X-26788355Y13029704D01*
X-26788355Y13029704D02*
X-26788355Y11779704D01*
X-8080484Y6630811D02*
X-8080484Y5380811D01*
X-6830484Y6630811D02*
X-8080484Y6630811D01*
X-930484Y1130811D02*
X-3980484Y1130811D01*
X-930484Y4080811D02*
X-930484Y1130811D01*
X-180484Y4080811D02*
X-930484Y4080811D01*
X-7030484Y1130811D02*
X-3980484Y1130811D01*
X-7030484Y4080811D02*
X-7030484Y1130811D01*
X-7780484Y4080811D02*
X-7030484Y4080811D01*
X-180484Y6330811D02*
X-1980484Y6330811D01*
X-180484Y5580811D02*
X-180484Y6330811D01*
X-1980484Y5580811D02*
X-180484Y5580811D01*
X-1980484Y6330811D02*
X-1980484Y5580811D01*
X-5980484Y6330811D02*
X-7780484Y6330811D01*
X-5980484Y5580811D02*
X-5980484Y6330811D01*
X-7780484Y5580811D02*
X-5980484Y5580811D01*
X-7780484Y6330811D02*
X-7780484Y5580811D01*
X-3480484Y6330811D02*
X-4480484Y6330811D01*
X-3480484Y5580811D02*
X-3480484Y6330811D01*
X-4480484Y5580811D02*
X-3480484Y5580811D01*
X-4480484Y6330811D02*
X-4480484Y5580811D01*
X-170484Y6340811D02*
X-7790484Y6340811D01*
X-170484Y370811D02*
X-170484Y6340811D01*
X-7790484Y370811D02*
X-170484Y370811D01*
X-7790484Y6340811D02*
X-7790484Y370811D01*
X-15700484Y6630811D02*
X-15700484Y5380811D01*
X-14450484Y6630811D02*
X-15700484Y6630811D01*
X-8550484Y1130811D02*
X-11600484Y1130811D01*
X-8550484Y4080811D02*
X-8550484Y1130811D01*
X-7800484Y4080811D02*
X-8550484Y4080811D01*
X-14650484Y1130811D02*
X-11600484Y1130811D01*
X-14650484Y4080811D02*
X-14650484Y1130811D01*
X-15400484Y4080811D02*
X-14650484Y4080811D01*
X-7800484Y6330811D02*
X-9600484Y6330811D01*
X-7800484Y5580811D02*
X-7800484Y6330811D01*
X-9600484Y5580811D02*
X-7800484Y5580811D01*
X-9600484Y6330811D02*
X-9600484Y5580811D01*
X-13600484Y6330811D02*
X-15400484Y6330811D01*
X-13600484Y5580811D02*
X-13600484Y6330811D01*
X-15400484Y5580811D02*
X-13600484Y5580811D01*
X-15400484Y6330811D02*
X-15400484Y5580811D01*
X-11100484Y6330811D02*
X-12100484Y6330811D01*
X-11100484Y5580811D02*
X-11100484Y6330811D01*
X-12100484Y5580811D02*
X-11100484Y5580811D01*
X-12100484Y6330811D02*
X-12100484Y5580811D01*
X-7790484Y6340811D02*
X-15410484Y6340811D01*
X-7790484Y370811D02*
X-7790484Y6340811D01*
X-15410484Y370811D02*
X-7790484Y370811D01*
X-15410484Y6340811D02*
X-15410484Y370811D01*
X-23320484Y6630811D02*
X-23320484Y5380811D01*
X-22070484Y6630811D02*
X-23320484Y6630811D01*
X-16170484Y1130811D02*
X-19220484Y1130811D01*
X-16170484Y4080811D02*
X-16170484Y1130811D01*
X-15420484Y4080811D02*
X-16170484Y4080811D01*
X-22270484Y1130811D02*
X-19220484Y1130811D01*
X-22270484Y4080811D02*
X-22270484Y1130811D01*
X-23020484Y4080811D02*
X-22270484Y4080811D01*
X-15420484Y6330811D02*
X-17220484Y6330811D01*
X-15420484Y5580811D02*
X-15420484Y6330811D01*
X-17220484Y5580811D02*
X-15420484Y5580811D01*
X-17220484Y6330811D02*
X-17220484Y5580811D01*
X-21220484Y6330811D02*
X-23020484Y6330811D01*
X-21220484Y5580811D02*
X-21220484Y6330811D01*
X-23020484Y5580811D02*
X-21220484Y5580811D01*
X-23020484Y6330811D02*
X-23020484Y5580811D01*
X-18720484Y6330811D02*
X-19720484Y6330811D01*
X-18720484Y5580811D02*
X-18720484Y6330811D01*
X-19720484Y5580811D02*
X-18720484Y5580811D01*
X-19720484Y6330811D02*
X-19720484Y5580811D01*
X-15410484Y6340811D02*
X-23030484Y6340811D01*
X-15410484Y370811D02*
X-15410484Y6340811D01*
X-23030484Y370811D02*
X-15410484Y370811D01*
X-23030484Y6340811D02*
X-23030484Y370811D01*
D13*
X-35250008Y11256133D02*
X-35107151Y11208514D01*
X-35059532Y11160895D01*
X-35011913Y11065657D01*
X-35011913Y10922800D01*
X-35059532Y10827562D01*
X-35107151Y10779943D01*
X-35202389Y10732324D01*
X-35583342Y10732324D01*
X-35583342Y11732324D01*
X-35250008Y11732324D01*
X-35154770Y11684704D01*
X-35107151Y11637085D01*
X-35059532Y11541847D01*
X-35059532Y11446609D01*
X-35107151Y11351371D01*
X-35154770Y11303752D01*
X-35250008Y11256133D01*
X-35583342Y11256133D01*
X-34107151Y10732324D02*
X-34583342Y10732324D01*
X-34583342Y11732324D01*
X-33250008Y10732324D02*
X-33821437Y10732324D01*
X-33535723Y10732324D02*
X-33535723Y11732324D01*
X-33630961Y11589466D01*
X-33726199Y11494228D01*
X-33821437Y11446609D01*
D10*
X-28161913Y11255097D02*
X-28161913Y11588431D01*
X-27638104Y11731288D02*
X-27638104Y11255097D01*
X-28638104Y11255097D01*
X-28638104Y11731288D01*
X-28019056Y12159859D02*
X-28019056Y12921764D01*
X-27638104Y13397954D02*
X-28638104Y13397954D01*
X-27923818Y13731288D01*
X-28638104Y14064621D01*
X-27638104Y14064621D01*
X-28638104Y14731288D02*
X-28638104Y14921764D01*
X-28590484Y15017002D01*
X-28495246Y15112240D01*
X-28304770Y15159859D01*
X-27971437Y15159859D01*
X-27780961Y15112240D01*
X-27685723Y15017002D01*
X-27638104Y14921764D01*
X-27638104Y14731288D01*
X-27685723Y14636050D01*
X-27780961Y14540811D01*
X-27971437Y14493192D01*
X-28304770Y14493192D01*
X-28495246Y14540811D01*
X-28590484Y14636050D01*
X-28638104Y14731288D01*
X-28638104Y15445573D02*
X-28638104Y16017002D01*
X-27638104Y15731288D02*
X-28638104Y15731288D01*
X-27638104Y16874145D02*
X-27638104Y16302716D01*
X-27638104Y16588431D02*
X-28638104Y16588431D01*
X-28495246Y16493192D01*
X-28400008Y16397954D01*
X-28352389Y16302716D01*
X-5409056Y14328431D02*
X-4742389Y13328431D01*
X-4742389Y14328431D02*
X-5409056Y13328431D01*
X-4361437Y13709383D02*
X-3599532Y13709383D01*
X-2599532Y13328431D02*
X-3170961Y13328431D01*
X-2885246Y13328431D02*
X-2885246Y14328431D01*
X-2980484Y14185573D01*
X-3075723Y14090335D01*
X-3170961Y14042716D01*
X-23450260Y14377324D02*
X-22878832Y14377324D01*
X-23164546Y13377324D02*
X-23164546Y14377324D01*
X-22355022Y14377324D02*
X-22259784Y14377324D01*
X-22164546Y14329704D01*
X-22116927Y14282085D01*
X-22069308Y14186847D01*
X-22021689Y13996371D01*
X-22021689Y13758276D01*
X-22069308Y13567800D01*
X-22116927Y13472562D01*
X-22164546Y13424943D01*
X-22259784Y13377324D01*
X-22355022Y13377324D01*
X-22450260Y13424943D01*
X-22497879Y13472562D01*
X-22545498Y13567800D01*
X-22593117Y13758276D01*
X-22593117Y13996371D01*
X-22545498Y14186847D01*
X-22497879Y14282085D01*
X-22450260Y14329704D01*
X-22355022Y14377324D01*
X-8588104Y7079859D02*
X-9588104Y7079859D01*
X-9588104Y7460811D01*
X-9540484Y7556050D01*
X-9492865Y7603669D01*
X-9397627Y7651288D01*
X-9254770Y7651288D01*
X-9159532Y7603669D01*
X-9111913Y7556050D01*
X-9064294Y7460811D01*
X-9064294Y7079859D01*
X-9588104Y7984621D02*
X-8588104Y8222716D01*
X-9302389Y8413192D01*
X-8588104Y8603669D01*
X-9588104Y8841764D01*
X-8588104Y9222716D02*
X-9588104Y9222716D01*
X-8873818Y9556050D01*
X-9588104Y9889383D01*
X-8588104Y9889383D01*
X-8588104Y10889383D02*
X-8588104Y10317954D01*
X-8588104Y10603669D02*
X-9588104Y10603669D01*
X-9445246Y10508431D01*
X-9350008Y10413192D01*
X-9302389Y10317954D01*
X-12814770Y6978431D02*
X-12814770Y7978431D01*
X-12814770Y7502240D02*
X-12243342Y7502240D01*
X-12243342Y6978431D02*
X-12243342Y7978431D01*
X-11767151Y7502240D02*
X-11433818Y7502240D01*
X-11290961Y6978431D02*
X-11767151Y6978431D01*
X-11767151Y7978431D01*
X-11290961Y7978431D01*
X-10671913Y7978431D02*
X-10576675Y7978431D01*
X-10481437Y7930811D01*
X-10433818Y7883192D01*
X-10386199Y7787954D01*
X-10338580Y7597478D01*
X-10338580Y7359383D01*
X-10386199Y7168907D01*
X-10433818Y7073669D01*
X-10481437Y7026050D01*
X-10576675Y6978431D01*
X-10671913Y6978431D01*
X-10767151Y7026050D01*
X-10814770Y7073669D01*
X-10862389Y7168907D01*
X-10910008Y7359383D01*
X-10910008Y7597478D01*
X-10862389Y7787954D01*
X-10814770Y7883192D01*
X-10767151Y7930811D01*
X-10671913Y7978431D01*
X-17946199Y7762240D02*
X-18279532Y7762240D01*
X-18279532Y7238431D02*
X-18279532Y8238431D01*
X-17803342Y8238431D01*
X-17470008Y7524145D02*
X-16993818Y7524145D01*
X-17565246Y7238431D02*
X-17231913Y8238431D01*
X-16898580Y7238431D01*
X-16565246Y7238431D02*
X-16565246Y8238431D01*
X-15993818Y7238431D01*
X-15993818Y8238431D01*
X-14993818Y7238431D02*
X-15565246Y7238431D01*
X-15279532Y7238431D02*
X-15279532Y8238431D01*
X-15374770Y8095573D01*
X-15470008Y8000335D01*
X-15565246Y7952716D01*
M02*
