G04 #@! TF.GenerationSoftware,KiCad,Pcbnew,(5.1.4)-1*
G04 #@! TF.CreationDate,2019-09-08T23:13:03+02:00*
G04 #@! TF.ProjectId,wanhao extruder pcb,77616e68-616f-4206-9578-747275646572,rev?*
G04 #@! TF.SameCoordinates,PXbb169cePY653deea*
G04 #@! TF.FileFunction,Soldermask,Bot*
G04 #@! TF.FilePolarity,Negative*
%FSLAX46Y46*%
G04 Gerber Fmt 4.6, Leading zero omitted, Abs format (unit mm)*
G04 Created by KiCad (PCBNEW (5.1.4)-1) date 2019-09-08 23:13:03*
%MOMM*%
%LPD*%
G04 APERTURE LIST*
%ADD10C,0.100000*%
G04 APERTURE END LIST*
D10*
G36*
X-2553858Y4918774D02*
G01*
X-2384019Y4867254D01*
X-2384017Y4867253D01*
X-2227495Y4783590D01*
X-2090298Y4670997D01*
X-2007036Y4569540D01*
X-1977706Y4533802D01*
X-1894041Y4377277D01*
X-1842521Y4207438D01*
X-1829484Y4075069D01*
X-1829484Y3686554D01*
X-1842521Y3554185D01*
X-1894041Y3384345D01*
X-1977706Y3227820D01*
X-2007036Y3192082D01*
X-2090298Y3090625D01*
X-2178306Y3018400D01*
X-2227493Y2978033D01*
X-2384018Y2894368D01*
X-2553857Y2842848D01*
X-2730484Y2825452D01*
X-2907110Y2842848D01*
X-3076949Y2894368D01*
X-3233474Y2978033D01*
X-3370669Y3090626D01*
X-3483262Y3227820D01*
X-3566927Y3384345D01*
X-3618447Y3554184D01*
X-3631484Y3686553D01*
X-3631484Y4075068D01*
X-3618447Y4207437D01*
X-3566927Y4377276D01*
X-3566925Y4377279D01*
X-3483263Y4533800D01*
X-3370670Y4670997D01*
X-3256843Y4764411D01*
X-3233475Y4783589D01*
X-3076950Y4867254D01*
X-2907111Y4918774D01*
X-2730484Y4936170D01*
X-2553858Y4918774D01*
X-2553858Y4918774D01*
G37*
G36*
X-17793858Y4918774D02*
G01*
X-17624019Y4867254D01*
X-17624017Y4867253D01*
X-17467495Y4783590D01*
X-17330298Y4670997D01*
X-17247036Y4569540D01*
X-17217706Y4533802D01*
X-17134041Y4377277D01*
X-17082521Y4207438D01*
X-17069484Y4075069D01*
X-17069484Y3686554D01*
X-17082521Y3554185D01*
X-17134041Y3384345D01*
X-17217706Y3227820D01*
X-17247036Y3192082D01*
X-17330298Y3090625D01*
X-17418306Y3018400D01*
X-17467493Y2978033D01*
X-17624018Y2894368D01*
X-17793857Y2842848D01*
X-17970484Y2825452D01*
X-18147110Y2842848D01*
X-18316949Y2894368D01*
X-18473474Y2978033D01*
X-18610669Y3090626D01*
X-18723262Y3227820D01*
X-18806927Y3384345D01*
X-18858447Y3554184D01*
X-18871484Y3686553D01*
X-18871484Y4075068D01*
X-18858447Y4207437D01*
X-18806927Y4377276D01*
X-18806925Y4377279D01*
X-18723263Y4533800D01*
X-18610670Y4670997D01*
X-18496843Y4764411D01*
X-18473475Y4783589D01*
X-18316950Y4867254D01*
X-18147111Y4918774D01*
X-17970484Y4936170D01*
X-17793858Y4918774D01*
X-17793858Y4918774D01*
G37*
G36*
X-10173858Y4918774D02*
G01*
X-10004019Y4867254D01*
X-10004017Y4867253D01*
X-9847495Y4783590D01*
X-9710298Y4670997D01*
X-9627036Y4569540D01*
X-9597706Y4533802D01*
X-9514041Y4377277D01*
X-9462521Y4207438D01*
X-9449484Y4075069D01*
X-9449484Y3686554D01*
X-9462521Y3554185D01*
X-9514041Y3384345D01*
X-9597706Y3227820D01*
X-9627036Y3192082D01*
X-9710298Y3090625D01*
X-9798306Y3018400D01*
X-9847493Y2978033D01*
X-10004018Y2894368D01*
X-10173857Y2842848D01*
X-10350484Y2825452D01*
X-10527110Y2842848D01*
X-10696949Y2894368D01*
X-10853474Y2978033D01*
X-10990669Y3090626D01*
X-11103262Y3227820D01*
X-11186927Y3384345D01*
X-11238447Y3554184D01*
X-11251484Y3686553D01*
X-11251484Y4075068D01*
X-11238447Y4207437D01*
X-11186927Y4377276D01*
X-11186925Y4377279D01*
X-11103263Y4533800D01*
X-10990670Y4670997D01*
X-10876843Y4764411D01*
X-10853475Y4783589D01*
X-10696950Y4867254D01*
X-10527111Y4918774D01*
X-10350484Y4936170D01*
X-10173858Y4918774D01*
X-10173858Y4918774D01*
G37*
G36*
X-19711884Y4927822D02*
G01*
X-19678832Y4917796D01*
X-19648381Y4901519D01*
X-19621685Y4879610D01*
X-19599776Y4852914D01*
X-19583499Y4822463D01*
X-19573473Y4789411D01*
X-19569484Y4748908D01*
X-19569484Y3012714D01*
X-19573473Y2972211D01*
X-19583499Y2939159D01*
X-19599776Y2908708D01*
X-19621685Y2882012D01*
X-19648381Y2860103D01*
X-19678832Y2843826D01*
X-19711884Y2833800D01*
X-19752387Y2829811D01*
X-21188581Y2829811D01*
X-21229084Y2833800D01*
X-21262136Y2843826D01*
X-21292587Y2860103D01*
X-21319283Y2882012D01*
X-21341192Y2908708D01*
X-21357469Y2939159D01*
X-21367495Y2972211D01*
X-21371484Y3012714D01*
X-21371484Y4748908D01*
X-21367495Y4789411D01*
X-21357469Y4822463D01*
X-21341192Y4852914D01*
X-21319283Y4879610D01*
X-21292587Y4901519D01*
X-21262136Y4917796D01*
X-21229084Y4927822D01*
X-21188581Y4931811D01*
X-19752387Y4931811D01*
X-19711884Y4927822D01*
X-19711884Y4927822D01*
G37*
G36*
X-12091884Y4927822D02*
G01*
X-12058832Y4917796D01*
X-12028381Y4901519D01*
X-12001685Y4879610D01*
X-11979776Y4852914D01*
X-11963499Y4822463D01*
X-11953473Y4789411D01*
X-11949484Y4748908D01*
X-11949484Y3012714D01*
X-11953473Y2972211D01*
X-11963499Y2939159D01*
X-11979776Y2908708D01*
X-12001685Y2882012D01*
X-12028381Y2860103D01*
X-12058832Y2843826D01*
X-12091884Y2833800D01*
X-12132387Y2829811D01*
X-13568581Y2829811D01*
X-13609084Y2833800D01*
X-13642136Y2843826D01*
X-13672587Y2860103D01*
X-13699283Y2882012D01*
X-13721192Y2908708D01*
X-13737469Y2939159D01*
X-13747495Y2972211D01*
X-13751484Y3012714D01*
X-13751484Y4748908D01*
X-13747495Y4789411D01*
X-13737469Y4822463D01*
X-13721192Y4852914D01*
X-13699283Y4879610D01*
X-13672587Y4901519D01*
X-13642136Y4917796D01*
X-13609084Y4927822D01*
X-13568581Y4931811D01*
X-12132387Y4931811D01*
X-12091884Y4927822D01*
X-12091884Y4927822D01*
G37*
G36*
X-4471884Y4927822D02*
G01*
X-4438832Y4917796D01*
X-4408381Y4901519D01*
X-4381685Y4879610D01*
X-4359776Y4852914D01*
X-4343499Y4822463D01*
X-4333473Y4789411D01*
X-4329484Y4748908D01*
X-4329484Y3012714D01*
X-4333473Y2972211D01*
X-4343499Y2939159D01*
X-4359776Y2908708D01*
X-4381685Y2882012D01*
X-4408381Y2860103D01*
X-4438832Y2843826D01*
X-4471884Y2833800D01*
X-4512387Y2829811D01*
X-5948581Y2829811D01*
X-5989084Y2833800D01*
X-6022136Y2843826D01*
X-6052587Y2860103D01*
X-6079283Y2882012D01*
X-6101192Y2908708D01*
X-6117469Y2939159D01*
X-6127495Y2972211D01*
X-6131484Y3012714D01*
X-6131484Y4748908D01*
X-6127495Y4789411D01*
X-6117469Y4822463D01*
X-6101192Y4852914D01*
X-6079283Y4879610D01*
X-6052587Y4901519D01*
X-6022136Y4917796D01*
X-5989084Y4927822D01*
X-5948581Y4931811D01*
X-4512387Y4931811D01*
X-4471884Y4927822D01*
X-4471884Y4927822D01*
G37*
G36*
X-25493858Y4893774D02*
G01*
X-25324019Y4842254D01*
X-25324017Y4842253D01*
X-25167495Y4758590D01*
X-25030298Y4645997D01*
X-24947036Y4544540D01*
X-24917706Y4508802D01*
X-24834041Y4352277D01*
X-24782521Y4182438D01*
X-24782521Y4182436D01*
X-24769484Y4050071D01*
X-24769484Y3711552D01*
X-24776003Y3645369D01*
X-24782521Y3579185D01*
X-24834041Y3409345D01*
X-24917706Y3252820D01*
X-24938223Y3227820D01*
X-25030298Y3115625D01*
X-25118657Y3043112D01*
X-25167493Y3003033D01*
X-25324018Y2919368D01*
X-25493857Y2867848D01*
X-25670484Y2850452D01*
X-25847110Y2867848D01*
X-26016949Y2919368D01*
X-26173474Y3003033D01*
X-26310669Y3115626D01*
X-26423262Y3252820D01*
X-26506927Y3409345D01*
X-26558447Y3579184D01*
X-26571484Y3711553D01*
X-26571484Y4050068D01*
X-26569021Y4075071D01*
X-26558447Y4182435D01*
X-26558447Y4182437D01*
X-26506927Y4352276D01*
X-26423262Y4508801D01*
X-26402746Y4533800D01*
X-26310670Y4645997D01*
X-26209213Y4729259D01*
X-26173475Y4758589D01*
X-26016950Y4842254D01*
X-25847111Y4893774D01*
X-25670484Y4911170D01*
X-25493858Y4893774D01*
X-25493858Y4893774D01*
G37*
G36*
X-27993858Y4893774D02*
G01*
X-27824019Y4842254D01*
X-27824017Y4842253D01*
X-27667495Y4758590D01*
X-27530298Y4645997D01*
X-27447036Y4544540D01*
X-27417706Y4508802D01*
X-27334041Y4352277D01*
X-27282521Y4182438D01*
X-27282521Y4182436D01*
X-27269484Y4050071D01*
X-27269484Y3711552D01*
X-27276003Y3645369D01*
X-27282521Y3579185D01*
X-27334041Y3409345D01*
X-27417706Y3252820D01*
X-27438223Y3227820D01*
X-27530298Y3115625D01*
X-27618657Y3043112D01*
X-27667493Y3003033D01*
X-27824018Y2919368D01*
X-27993857Y2867848D01*
X-28170484Y2850452D01*
X-28347110Y2867848D01*
X-28516949Y2919368D01*
X-28673474Y3003033D01*
X-28810669Y3115626D01*
X-28923262Y3252820D01*
X-29006927Y3409345D01*
X-29058447Y3579184D01*
X-29071484Y3711553D01*
X-29071484Y4050068D01*
X-29069021Y4075071D01*
X-29058447Y4182435D01*
X-29058447Y4182437D01*
X-29006927Y4352276D01*
X-28923262Y4508801D01*
X-28902746Y4533800D01*
X-28810670Y4645997D01*
X-28709213Y4729259D01*
X-28673475Y4758589D01*
X-28516950Y4842254D01*
X-28347111Y4893774D01*
X-28170484Y4911170D01*
X-27993858Y4893774D01*
X-27993858Y4893774D01*
G37*
G36*
X-30493858Y4893774D02*
G01*
X-30324019Y4842254D01*
X-30324017Y4842253D01*
X-30167495Y4758590D01*
X-30030298Y4645997D01*
X-29947036Y4544540D01*
X-29917706Y4508802D01*
X-29834041Y4352277D01*
X-29782521Y4182438D01*
X-29782521Y4182436D01*
X-29769484Y4050071D01*
X-29769484Y3711552D01*
X-29776003Y3645369D01*
X-29782521Y3579185D01*
X-29834041Y3409345D01*
X-29917706Y3252820D01*
X-29938223Y3227820D01*
X-30030298Y3115625D01*
X-30118657Y3043112D01*
X-30167493Y3003033D01*
X-30324018Y2919368D01*
X-30493857Y2867848D01*
X-30670484Y2850452D01*
X-30847110Y2867848D01*
X-31016949Y2919368D01*
X-31173474Y3003033D01*
X-31310669Y3115626D01*
X-31423262Y3252820D01*
X-31506927Y3409345D01*
X-31558447Y3579184D01*
X-31571484Y3711553D01*
X-31571484Y4050068D01*
X-31569021Y4075071D01*
X-31558447Y4182435D01*
X-31558447Y4182437D01*
X-31506927Y4352276D01*
X-31423262Y4508801D01*
X-31402746Y4533800D01*
X-31310670Y4645997D01*
X-31209213Y4729259D01*
X-31173475Y4758589D01*
X-31016950Y4842254D01*
X-30847111Y4893774D01*
X-30670484Y4911170D01*
X-30493858Y4893774D01*
X-30493858Y4893774D01*
G37*
G36*
X-32411884Y4902822D02*
G01*
X-32378832Y4892796D01*
X-32348381Y4876519D01*
X-32321685Y4854610D01*
X-32299776Y4827914D01*
X-32283499Y4797463D01*
X-32273473Y4764411D01*
X-32269484Y4723908D01*
X-32269484Y3037714D01*
X-32273473Y2997211D01*
X-32283499Y2964159D01*
X-32299776Y2933708D01*
X-32321685Y2907012D01*
X-32348381Y2885103D01*
X-32378832Y2868826D01*
X-32411884Y2858800D01*
X-32452387Y2854811D01*
X-33888581Y2854811D01*
X-33929084Y2858800D01*
X-33962136Y2868826D01*
X-33992587Y2885103D01*
X-34019283Y2907012D01*
X-34041192Y2933708D01*
X-34057469Y2964159D01*
X-34067495Y2997211D01*
X-34071484Y3037714D01*
X-34071484Y4723908D01*
X-34067495Y4764411D01*
X-34057469Y4797463D01*
X-34041192Y4827914D01*
X-34019283Y4854610D01*
X-33992587Y4876519D01*
X-33962136Y4892796D01*
X-33929084Y4902822D01*
X-33888581Y4906811D01*
X-32452387Y4906811D01*
X-32411884Y4902822D01*
X-32411884Y4902822D01*
G37*
G36*
X-33984657Y9768883D02*
G01*
X-33903837Y9752807D01*
X-33757518Y9692199D01*
X-33691231Y9647907D01*
X-33625836Y9604212D01*
X-33513847Y9492223D01*
X-33492288Y9459958D01*
X-33476743Y9441016D01*
X-33457801Y9425471D01*
X-33436190Y9413920D01*
X-33412741Y9406807D01*
X-33388355Y9404405D01*
X-33363969Y9406807D01*
X-33340520Y9413920D01*
X-33318909Y9425471D01*
X-33299967Y9441016D01*
X-33284422Y9459958D01*
X-33262863Y9492223D01*
X-33150874Y9604212D01*
X-33085479Y9647907D01*
X-33019192Y9692199D01*
X-32872873Y9752807D01*
X-32792053Y9768883D01*
X-32717543Y9783704D01*
X-32559167Y9783704D01*
X-32484657Y9768883D01*
X-32403837Y9752807D01*
X-32257518Y9692199D01*
X-32191231Y9647907D01*
X-32125836Y9604212D01*
X-32013847Y9492223D01*
X-31992288Y9459958D01*
X-31976743Y9441016D01*
X-31957801Y9425471D01*
X-31936190Y9413920D01*
X-31912741Y9406807D01*
X-31888355Y9404405D01*
X-31863969Y9406807D01*
X-31840520Y9413920D01*
X-31818909Y9425471D01*
X-31799967Y9441016D01*
X-31784422Y9459958D01*
X-31762863Y9492223D01*
X-31650874Y9604212D01*
X-31585479Y9647907D01*
X-31519192Y9692199D01*
X-31372873Y9752807D01*
X-31292053Y9768883D01*
X-31217543Y9783704D01*
X-31059167Y9783704D01*
X-30984657Y9768883D01*
X-30903837Y9752807D01*
X-30757518Y9692199D01*
X-30691231Y9647907D01*
X-30625836Y9604212D01*
X-30513847Y9492223D01*
X-30492288Y9459958D01*
X-30476743Y9441016D01*
X-30457801Y9425471D01*
X-30436190Y9413920D01*
X-30412741Y9406807D01*
X-30388355Y9404405D01*
X-30363969Y9406807D01*
X-30340520Y9413920D01*
X-30318909Y9425471D01*
X-30299967Y9441016D01*
X-30284422Y9459958D01*
X-30262863Y9492223D01*
X-30150874Y9604212D01*
X-30085479Y9647907D01*
X-30019192Y9692199D01*
X-29872873Y9752807D01*
X-29792053Y9768883D01*
X-29717543Y9783704D01*
X-29559167Y9783704D01*
X-29484657Y9768883D01*
X-29403837Y9752807D01*
X-29257518Y9692199D01*
X-29191231Y9647907D01*
X-29125836Y9604212D01*
X-29013847Y9492223D01*
X-28992288Y9459958D01*
X-28976743Y9441016D01*
X-28957801Y9425471D01*
X-28936190Y9413920D01*
X-28912741Y9406807D01*
X-28888355Y9404405D01*
X-28863969Y9406807D01*
X-28840520Y9413920D01*
X-28818909Y9425471D01*
X-28799967Y9441016D01*
X-28784422Y9459958D01*
X-28762863Y9492223D01*
X-28650874Y9604212D01*
X-28585479Y9647907D01*
X-28519192Y9692199D01*
X-28372873Y9752807D01*
X-28292053Y9768883D01*
X-28217543Y9783704D01*
X-28059167Y9783704D01*
X-27984657Y9768883D01*
X-27903837Y9752807D01*
X-27757518Y9692199D01*
X-27691231Y9647907D01*
X-27625836Y9604212D01*
X-27513847Y9492223D01*
X-27470152Y9426828D01*
X-27425860Y9360541D01*
X-27365252Y9214222D01*
X-27334355Y9058891D01*
X-27334355Y8900517D01*
X-27365252Y8745186D01*
X-27425860Y8598867D01*
X-27513848Y8467184D01*
X-27625835Y8355197D01*
X-27757518Y8267209D01*
X-27903837Y8206601D01*
X-27981502Y8191153D01*
X-28059167Y8175704D01*
X-28217543Y8175704D01*
X-28295208Y8191153D01*
X-28372873Y8206601D01*
X-28519192Y8267209D01*
X-28650875Y8355197D01*
X-28762862Y8467184D01*
X-28784422Y8499450D01*
X-28799967Y8518392D01*
X-28818909Y8533937D01*
X-28840520Y8545488D01*
X-28863969Y8552601D01*
X-28888355Y8555003D01*
X-28912741Y8552601D01*
X-28936190Y8545488D01*
X-28957801Y8533937D01*
X-28976743Y8518392D01*
X-28992288Y8499450D01*
X-29013848Y8467184D01*
X-29125835Y8355197D01*
X-29257518Y8267209D01*
X-29403837Y8206601D01*
X-29481502Y8191153D01*
X-29559167Y8175704D01*
X-29717543Y8175704D01*
X-29795208Y8191153D01*
X-29872873Y8206601D01*
X-30019192Y8267209D01*
X-30150875Y8355197D01*
X-30262862Y8467184D01*
X-30284422Y8499450D01*
X-30299967Y8518392D01*
X-30318909Y8533937D01*
X-30340520Y8545488D01*
X-30363969Y8552601D01*
X-30388355Y8555003D01*
X-30412741Y8552601D01*
X-30436190Y8545488D01*
X-30457801Y8533937D01*
X-30476743Y8518392D01*
X-30492288Y8499450D01*
X-30513848Y8467184D01*
X-30625835Y8355197D01*
X-30757518Y8267209D01*
X-30903837Y8206601D01*
X-30981502Y8191153D01*
X-31059167Y8175704D01*
X-31217543Y8175704D01*
X-31295208Y8191153D01*
X-31372873Y8206601D01*
X-31519192Y8267209D01*
X-31650875Y8355197D01*
X-31762862Y8467184D01*
X-31784422Y8499450D01*
X-31799967Y8518392D01*
X-31818909Y8533937D01*
X-31840520Y8545488D01*
X-31863969Y8552601D01*
X-31888355Y8555003D01*
X-31912741Y8552601D01*
X-31936190Y8545488D01*
X-31957801Y8533937D01*
X-31976743Y8518392D01*
X-31992288Y8499450D01*
X-32013848Y8467184D01*
X-32125835Y8355197D01*
X-32257518Y8267209D01*
X-32403837Y8206601D01*
X-32481502Y8191153D01*
X-32559167Y8175704D01*
X-32717543Y8175704D01*
X-32795208Y8191153D01*
X-32872873Y8206601D01*
X-33019192Y8267209D01*
X-33150875Y8355197D01*
X-33262862Y8467184D01*
X-33284422Y8499450D01*
X-33299967Y8518392D01*
X-33318909Y8533937D01*
X-33340520Y8545488D01*
X-33363969Y8552601D01*
X-33388355Y8555003D01*
X-33412741Y8552601D01*
X-33436190Y8545488D01*
X-33457801Y8533937D01*
X-33476743Y8518392D01*
X-33492288Y8499450D01*
X-33513848Y8467184D01*
X-33625835Y8355197D01*
X-33757518Y8267209D01*
X-33903837Y8206601D01*
X-33981502Y8191153D01*
X-34059167Y8175704D01*
X-34217543Y8175704D01*
X-34295208Y8191153D01*
X-34372873Y8206601D01*
X-34519192Y8267209D01*
X-34650875Y8355197D01*
X-34762862Y8467184D01*
X-34850850Y8598867D01*
X-34911458Y8745186D01*
X-34942355Y8900517D01*
X-34942355Y9058891D01*
X-34911458Y9214222D01*
X-34850850Y9360541D01*
X-34806558Y9426828D01*
X-34762863Y9492223D01*
X-34650874Y9604212D01*
X-34585479Y9647907D01*
X-34519192Y9692199D01*
X-34372873Y9752807D01*
X-34292053Y9768883D01*
X-34217543Y9783704D01*
X-34059167Y9783704D01*
X-33984657Y9768883D01*
X-33984657Y9768883D01*
G37*
G36*
X-11995578Y11133470D02*
G01*
X-11825739Y11081950D01*
X-11825737Y11081949D01*
X-11669215Y10998286D01*
X-11532018Y10885693D01*
X-11448756Y10784236D01*
X-11419426Y10748498D01*
X-11419425Y10748496D01*
X-11343434Y10606329D01*
X-11335761Y10591973D01*
X-11284241Y10422134D01*
X-11271204Y10289765D01*
X-11271204Y9901250D01*
X-11284241Y9768881D01*
X-11335761Y9599041D01*
X-11419426Y9442516D01*
X-11433415Y9425471D01*
X-11532018Y9305321D01*
X-11627099Y9227291D01*
X-11669213Y9192729D01*
X-11825738Y9109064D01*
X-11995577Y9057544D01*
X-12172204Y9040148D01*
X-12348830Y9057544D01*
X-12518669Y9109064D01*
X-12675194Y9192729D01*
X-12812389Y9305322D01*
X-12924982Y9442516D01*
X-13008647Y9599041D01*
X-13060167Y9768880D01*
X-13073204Y9901249D01*
X-13073204Y10289764D01*
X-13060167Y10422133D01*
X-13008647Y10591972D01*
X-13008645Y10591975D01*
X-12924983Y10748496D01*
X-12812390Y10885693D01*
X-12693839Y10982984D01*
X-12675195Y10998285D01*
X-12541234Y11069889D01*
X-12518672Y11081949D01*
X-12518670Y11081950D01*
X-12348831Y11133470D01*
X-12172204Y11150866D01*
X-11995578Y11133470D01*
X-11995578Y11133470D01*
G37*
G36*
X-13913506Y11142520D02*
G01*
X-13880480Y11132502D01*
X-13850045Y11116234D01*
X-13823369Y11094342D01*
X-13801477Y11067666D01*
X-13785209Y11037231D01*
X-13775191Y11004205D01*
X-13771204Y10963723D01*
X-13771204Y9227291D01*
X-13775191Y9186809D01*
X-13785209Y9153783D01*
X-13801477Y9123348D01*
X-13823369Y9096672D01*
X-13850045Y9074780D01*
X-13880480Y9058512D01*
X-13913506Y9048494D01*
X-13953988Y9044507D01*
X-15390420Y9044507D01*
X-15430902Y9048494D01*
X-15463928Y9058512D01*
X-15494363Y9074780D01*
X-15521039Y9096672D01*
X-15542931Y9123348D01*
X-15559199Y9153783D01*
X-15569217Y9186809D01*
X-15573204Y9227291D01*
X-15573204Y10963723D01*
X-15569217Y11004205D01*
X-15559199Y11037231D01*
X-15542931Y11067666D01*
X-15521039Y11094342D01*
X-15494363Y11116234D01*
X-15463928Y11132502D01*
X-15430902Y11142520D01*
X-15390420Y11146507D01*
X-13953988Y11146507D01*
X-13913506Y11142520D01*
X-13913506Y11142520D01*
G37*
G36*
X-2553858Y11268774D02*
G01*
X-2384019Y11217254D01*
X-2384017Y11217253D01*
X-2227495Y11133590D01*
X-2090298Y11020997D01*
X-2017831Y10932694D01*
X-1977706Y10883802D01*
X-1977705Y10883800D01*
X-1920174Y10776169D01*
X-1894041Y10727277D01*
X-1842521Y10557438D01*
X-1829484Y10425069D01*
X-1829484Y10036554D01*
X-1842521Y9904185D01*
X-1894041Y9734345D01*
X-1977706Y9577820D01*
X-2007036Y9542082D01*
X-2090298Y9440625D01*
X-2167917Y9376926D01*
X-2227493Y9328033D01*
X-2384018Y9244368D01*
X-2553857Y9192848D01*
X-2730484Y9175452D01*
X-2907110Y9192848D01*
X-3076949Y9244368D01*
X-3233474Y9328033D01*
X-3370669Y9440626D01*
X-3483262Y9577820D01*
X-3566927Y9734345D01*
X-3618447Y9904184D01*
X-3631484Y10036553D01*
X-3631484Y10425068D01*
X-3618447Y10557437D01*
X-3566927Y10727276D01*
X-3540793Y10776169D01*
X-3483263Y10883800D01*
X-3370670Y11020997D01*
X-3254622Y11116234D01*
X-3233475Y11133589D01*
X-3076950Y11217254D01*
X-2907111Y11268774D01*
X-2730484Y11286170D01*
X-2553858Y11268774D01*
X-2553858Y11268774D01*
G37*
G36*
X-4471884Y11277822D02*
G01*
X-4438832Y11267796D01*
X-4408381Y11251519D01*
X-4381685Y11229610D01*
X-4359776Y11202914D01*
X-4343499Y11172463D01*
X-4333473Y11139411D01*
X-4329484Y11098908D01*
X-4329484Y9362714D01*
X-4333473Y9322211D01*
X-4343499Y9289159D01*
X-4359776Y9258708D01*
X-4381685Y9232012D01*
X-4408381Y9210103D01*
X-4438832Y9193826D01*
X-4471884Y9183800D01*
X-4512387Y9179811D01*
X-5948581Y9179811D01*
X-5989084Y9183800D01*
X-6022136Y9193826D01*
X-6052587Y9210103D01*
X-6079283Y9232012D01*
X-6101192Y9258708D01*
X-6117469Y9289159D01*
X-6127495Y9322211D01*
X-6131484Y9362714D01*
X-6131484Y11098908D01*
X-6127495Y11139411D01*
X-6117469Y11172463D01*
X-6101192Y11202914D01*
X-6079283Y11229610D01*
X-6052587Y11251519D01*
X-6022136Y11267796D01*
X-5989084Y11277822D01*
X-5948581Y11281811D01*
X-4512387Y11281811D01*
X-4471884Y11277822D01*
X-4471884Y11277822D01*
G37*
G36*
X-21261729Y11317667D02*
G01*
X-21091890Y11266147D01*
X-21091888Y11266146D01*
X-20935366Y11182483D01*
X-20798169Y11069890D01*
X-20726848Y10982984D01*
X-20685577Y10932695D01*
X-20601912Y10776170D01*
X-20550392Y10606331D01*
X-20537355Y10473962D01*
X-20537355Y10085447D01*
X-20550392Y9953078D01*
X-20601912Y9783238D01*
X-20685577Y9626713D01*
X-20704043Y9604212D01*
X-20798169Y9489518D01*
X-20876212Y9425471D01*
X-20935364Y9376926D01*
X-20935366Y9376925D01*
X-21069326Y9305321D01*
X-21091889Y9293261D01*
X-21261728Y9241741D01*
X-21438355Y9224345D01*
X-21614981Y9241741D01*
X-21784820Y9293261D01*
X-21807382Y9305321D01*
X-21941343Y9376925D01*
X-21941345Y9376926D01*
X-22078540Y9489519D01*
X-22191133Y9626713D01*
X-22267124Y9768881D01*
X-22274797Y9783236D01*
X-22274939Y9783704D01*
X-22326318Y9953077D01*
X-22339355Y10085446D01*
X-22339355Y10473961D01*
X-22326318Y10606330D01*
X-22274798Y10776169D01*
X-22217267Y10883802D01*
X-22191134Y10932693D01*
X-22078541Y11069890D01*
X-21963821Y11164037D01*
X-21941346Y11182482D01*
X-21784821Y11266147D01*
X-21614982Y11317667D01*
X-21438355Y11335063D01*
X-21261729Y11317667D01*
X-21261729Y11317667D01*
G37*
G36*
X-23179755Y11326715D02*
G01*
X-23146703Y11316689D01*
X-23116252Y11300412D01*
X-23089556Y11278503D01*
X-23067647Y11251807D01*
X-23051370Y11221356D01*
X-23041344Y11188304D01*
X-23037355Y11147801D01*
X-23037355Y9411607D01*
X-23041344Y9371104D01*
X-23051370Y9338052D01*
X-23067647Y9307601D01*
X-23089556Y9280905D01*
X-23116252Y9258996D01*
X-23146703Y9242719D01*
X-23179755Y9232693D01*
X-23220258Y9228704D01*
X-24656452Y9228704D01*
X-24696955Y9232693D01*
X-24730007Y9242719D01*
X-24760458Y9258996D01*
X-24787154Y9280905D01*
X-24809063Y9307601D01*
X-24825340Y9338052D01*
X-24835366Y9371104D01*
X-24839355Y9411607D01*
X-24839355Y11147801D01*
X-24835366Y11188304D01*
X-24825340Y11221356D01*
X-24809063Y11251807D01*
X-24787154Y11278503D01*
X-24760458Y11300412D01*
X-24730007Y11316689D01*
X-24696955Y11326715D01*
X-24656452Y11330704D01*
X-23220258Y11330704D01*
X-23179755Y11326715D01*
X-23179755Y11326715D01*
G37*
G36*
X-11237874Y16105950D02*
G01*
X-10837318Y15940034D01*
X-10837316Y15940033D01*
X-10476825Y15699161D01*
X-10170252Y15392588D01*
X-9948671Y15060968D01*
X-9929379Y15032095D01*
X-9763463Y14631539D01*
X-9678881Y14206313D01*
X-9678881Y13772751D01*
X-9763463Y13347525D01*
X-9917420Y12975840D01*
X-9929380Y12946967D01*
X-10170252Y12586476D01*
X-10476825Y12279903D01*
X-10837316Y12039031D01*
X-10837317Y12039030D01*
X-10837318Y12039030D01*
X-11237874Y11873114D01*
X-11663100Y11788532D01*
X-12096662Y11788532D01*
X-12521888Y11873114D01*
X-12922444Y12039030D01*
X-12922445Y12039030D01*
X-12922446Y12039031D01*
X-13282937Y12279903D01*
X-13589510Y12586476D01*
X-13830382Y12946967D01*
X-13842342Y12975840D01*
X-13996299Y13347525D01*
X-14080881Y13772751D01*
X-14080881Y14206313D01*
X-13996299Y14631539D01*
X-13830383Y15032095D01*
X-13811091Y15060968D01*
X-13589510Y15392588D01*
X-13282937Y15699161D01*
X-12922446Y15940033D01*
X-12922444Y15940034D01*
X-12521888Y16105950D01*
X-12096662Y16190532D01*
X-11663100Y16190532D01*
X-11237874Y16105950D01*
X-11237874Y16105950D01*
G37*
G36*
X-30588395Y16134821D02*
G01*
X-30187839Y15968905D01*
X-30187837Y15968904D01*
X-29827346Y15728032D01*
X-29520773Y15421459D01*
X-29279901Y15060968D01*
X-29279900Y15060966D01*
X-29113984Y14660410D01*
X-29029402Y14235184D01*
X-29029402Y13801622D01*
X-29113984Y13376396D01*
X-29279900Y12975840D01*
X-29279901Y12975838D01*
X-29520773Y12615347D01*
X-29827346Y12308774D01*
X-30187837Y12067902D01*
X-30187838Y12067901D01*
X-30187839Y12067901D01*
X-30588395Y11901985D01*
X-31013621Y11817403D01*
X-31447183Y11817403D01*
X-31872409Y11901985D01*
X-32272965Y12067901D01*
X-32272966Y12067901D01*
X-32272967Y12067902D01*
X-32633458Y12308774D01*
X-32940031Y12615347D01*
X-33180903Y12975838D01*
X-33180904Y12975840D01*
X-33346820Y13376396D01*
X-33431402Y13801622D01*
X-33431402Y14235184D01*
X-33346820Y14660410D01*
X-33180904Y15060966D01*
X-33180903Y15060968D01*
X-32940031Y15421459D01*
X-32633458Y15728032D01*
X-32272967Y15968904D01*
X-32272965Y15968905D01*
X-31872409Y16134821D01*
X-31447183Y16219403D01*
X-31013621Y16219403D01*
X-30588395Y16134821D01*
X-30588395Y16134821D01*
G37*
G36*
X-8814162Y22103792D02*
G01*
X-8666569Y22042657D01*
X-8533740Y21953903D01*
X-8420777Y21840940D01*
X-8332023Y21708111D01*
X-8270888Y21560518D01*
X-8239722Y21403835D01*
X-8239722Y21244081D01*
X-8270888Y21087398D01*
X-8332023Y20939805D01*
X-8420777Y20806976D01*
X-8533740Y20694013D01*
X-8666569Y20605259D01*
X-8666570Y20605258D01*
X-8666571Y20605258D01*
X-8814162Y20544124D01*
X-8970844Y20512958D01*
X-9130600Y20512958D01*
X-9287282Y20544124D01*
X-9434873Y20605258D01*
X-9434874Y20605258D01*
X-9434875Y20605259D01*
X-9567704Y20694013D01*
X-9680667Y20806976D01*
X-9769421Y20939805D01*
X-9830556Y21087398D01*
X-9861722Y21244081D01*
X-9861722Y21403835D01*
X-9830556Y21560518D01*
X-9769421Y21708111D01*
X-9680667Y21840940D01*
X-9567704Y21953903D01*
X-9434875Y22042657D01*
X-9287282Y22103792D01*
X-9130600Y22134958D01*
X-8970844Y22134958D01*
X-8814162Y22103792D01*
X-8814162Y22103792D01*
G37*
G36*
X-29134162Y22103792D02*
G01*
X-28986569Y22042657D01*
X-28853740Y21953903D01*
X-28740777Y21840940D01*
X-28652023Y21708111D01*
X-28590888Y21560518D01*
X-28559722Y21403835D01*
X-28559722Y21244081D01*
X-28590888Y21087398D01*
X-28652023Y20939805D01*
X-28740777Y20806976D01*
X-28853740Y20694013D01*
X-28986569Y20605259D01*
X-28986570Y20605258D01*
X-28986571Y20605258D01*
X-29134162Y20544124D01*
X-29290844Y20512958D01*
X-29450600Y20512958D01*
X-29607282Y20544124D01*
X-29754873Y20605258D01*
X-29754874Y20605258D01*
X-29754875Y20605259D01*
X-29887704Y20694013D01*
X-30000667Y20806976D01*
X-30089421Y20939805D01*
X-30150556Y21087398D01*
X-30181722Y21244081D01*
X-30181722Y21403835D01*
X-30150556Y21560518D01*
X-30089421Y21708111D01*
X-30000667Y21840940D01*
X-29887704Y21953903D01*
X-29754875Y22042657D01*
X-29607282Y22103792D01*
X-29450600Y22134958D01*
X-29290844Y22134958D01*
X-29134162Y22103792D01*
X-29134162Y22103792D01*
G37*
G36*
X-6274162Y22103792D02*
G01*
X-6126569Y22042657D01*
X-5993740Y21953903D01*
X-5880777Y21840940D01*
X-5792023Y21708111D01*
X-5730888Y21560518D01*
X-5699722Y21403835D01*
X-5699722Y21244081D01*
X-5730888Y21087398D01*
X-5792023Y20939805D01*
X-5880777Y20806976D01*
X-5993740Y20694013D01*
X-6126569Y20605259D01*
X-6126570Y20605258D01*
X-6126571Y20605258D01*
X-6274162Y20544124D01*
X-6430844Y20512958D01*
X-6590600Y20512958D01*
X-6747282Y20544124D01*
X-6894873Y20605258D01*
X-6894874Y20605258D01*
X-6894875Y20605259D01*
X-7027704Y20694013D01*
X-7140667Y20806976D01*
X-7229421Y20939805D01*
X-7290556Y21087398D01*
X-7321722Y21244081D01*
X-7321722Y21403835D01*
X-7290556Y21560518D01*
X-7229421Y21708111D01*
X-7140667Y21840940D01*
X-7027704Y21953903D01*
X-6894875Y22042657D01*
X-6747282Y22103792D01*
X-6590600Y22134958D01*
X-6430844Y22134958D01*
X-6274162Y22103792D01*
X-6274162Y22103792D01*
G37*
G36*
X-26594162Y22103792D02*
G01*
X-26446569Y22042657D01*
X-26313740Y21953903D01*
X-26200777Y21840940D01*
X-26112023Y21708111D01*
X-26050888Y21560518D01*
X-26019722Y21403835D01*
X-26019722Y21244081D01*
X-26050888Y21087398D01*
X-26112023Y20939805D01*
X-26200777Y20806976D01*
X-26313740Y20694013D01*
X-26446569Y20605259D01*
X-26446570Y20605258D01*
X-26446571Y20605258D01*
X-26594162Y20544124D01*
X-26750844Y20512958D01*
X-26910600Y20512958D01*
X-27067282Y20544124D01*
X-27214873Y20605258D01*
X-27214874Y20605258D01*
X-27214875Y20605259D01*
X-27347704Y20694013D01*
X-27460667Y20806976D01*
X-27549421Y20939805D01*
X-27610556Y21087398D01*
X-27641722Y21244081D01*
X-27641722Y21403835D01*
X-27610556Y21560518D01*
X-27549421Y21708111D01*
X-27460667Y21840940D01*
X-27347704Y21953903D01*
X-27214875Y22042657D01*
X-27067282Y22103792D01*
X-26910600Y22134958D01*
X-26750844Y22134958D01*
X-26594162Y22103792D01*
X-26594162Y22103792D01*
G37*
G36*
X-24054162Y22103792D02*
G01*
X-23906569Y22042657D01*
X-23773740Y21953903D01*
X-23660777Y21840940D01*
X-23572023Y21708111D01*
X-23510888Y21560518D01*
X-23479722Y21403835D01*
X-23479722Y21244081D01*
X-23510888Y21087398D01*
X-23572023Y20939805D01*
X-23660777Y20806976D01*
X-23773740Y20694013D01*
X-23906569Y20605259D01*
X-23906570Y20605258D01*
X-23906571Y20605258D01*
X-24054162Y20544124D01*
X-24210844Y20512958D01*
X-24370600Y20512958D01*
X-24527282Y20544124D01*
X-24674873Y20605258D01*
X-24674874Y20605258D01*
X-24674875Y20605259D01*
X-24807704Y20694013D01*
X-24920667Y20806976D01*
X-25009421Y20939805D01*
X-25070556Y21087398D01*
X-25101722Y21244081D01*
X-25101722Y21403835D01*
X-25070556Y21560518D01*
X-25009421Y21708111D01*
X-24920667Y21840940D01*
X-24807704Y21953903D01*
X-24674875Y22042657D01*
X-24527282Y22103792D01*
X-24370600Y22134958D01*
X-24210844Y22134958D01*
X-24054162Y22103792D01*
X-24054162Y22103792D01*
G37*
G36*
X-11354162Y22103792D02*
G01*
X-11206569Y22042657D01*
X-11073740Y21953903D01*
X-10960777Y21840940D01*
X-10872023Y21708111D01*
X-10810888Y21560518D01*
X-10779722Y21403835D01*
X-10779722Y21244081D01*
X-10810888Y21087398D01*
X-10872023Y20939805D01*
X-10960777Y20806976D01*
X-11073740Y20694013D01*
X-11206569Y20605259D01*
X-11206570Y20605258D01*
X-11206571Y20605258D01*
X-11354162Y20544124D01*
X-11510844Y20512958D01*
X-11670600Y20512958D01*
X-11827282Y20544124D01*
X-11974873Y20605258D01*
X-11974874Y20605258D01*
X-11974875Y20605259D01*
X-12107704Y20694013D01*
X-12220667Y20806976D01*
X-12309421Y20939805D01*
X-12370556Y21087398D01*
X-12401722Y21244081D01*
X-12401722Y21403835D01*
X-12370556Y21560518D01*
X-12309421Y21708111D01*
X-12220667Y21840940D01*
X-12107704Y21953903D01*
X-11974875Y22042657D01*
X-11827282Y22103792D01*
X-11670600Y22134958D01*
X-11510844Y22134958D01*
X-11354162Y22103792D01*
X-11354162Y22103792D01*
G37*
G36*
X-21514162Y22103792D02*
G01*
X-21366569Y22042657D01*
X-21233740Y21953903D01*
X-21120777Y21840940D01*
X-21032023Y21708111D01*
X-20970888Y21560518D01*
X-20939722Y21403835D01*
X-20939722Y21244081D01*
X-20970888Y21087398D01*
X-21032023Y20939805D01*
X-21120777Y20806976D01*
X-21233740Y20694013D01*
X-21366569Y20605259D01*
X-21366570Y20605258D01*
X-21366571Y20605258D01*
X-21514162Y20544124D01*
X-21670844Y20512958D01*
X-21830600Y20512958D01*
X-21987282Y20544124D01*
X-22134873Y20605258D01*
X-22134874Y20605258D01*
X-22134875Y20605259D01*
X-22267704Y20694013D01*
X-22380667Y20806976D01*
X-22469421Y20939805D01*
X-22530556Y21087398D01*
X-22561722Y21244081D01*
X-22561722Y21403835D01*
X-22530556Y21560518D01*
X-22469421Y21708111D01*
X-22380667Y21840940D01*
X-22267704Y21953903D01*
X-22134875Y22042657D01*
X-21987282Y22103792D01*
X-21830600Y22134958D01*
X-21670844Y22134958D01*
X-21514162Y22103792D01*
X-21514162Y22103792D01*
G37*
G36*
X-13894162Y22103792D02*
G01*
X-13746569Y22042657D01*
X-13613740Y21953903D01*
X-13500777Y21840940D01*
X-13412023Y21708111D01*
X-13350888Y21560518D01*
X-13319722Y21403835D01*
X-13319722Y21244081D01*
X-13350888Y21087398D01*
X-13412023Y20939805D01*
X-13500777Y20806976D01*
X-13613740Y20694013D01*
X-13746569Y20605259D01*
X-13746570Y20605258D01*
X-13746571Y20605258D01*
X-13894162Y20544124D01*
X-14050844Y20512958D01*
X-14210600Y20512958D01*
X-14367282Y20544124D01*
X-14514873Y20605258D01*
X-14514874Y20605258D01*
X-14514875Y20605259D01*
X-14647704Y20694013D01*
X-14760667Y20806976D01*
X-14849421Y20939805D01*
X-14910556Y21087398D01*
X-14941722Y21244081D01*
X-14941722Y21403835D01*
X-14910556Y21560518D01*
X-14849421Y21708111D01*
X-14760667Y21840940D01*
X-14647704Y21953903D01*
X-14514875Y22042657D01*
X-14367282Y22103792D01*
X-14210600Y22134958D01*
X-14050844Y22134958D01*
X-13894162Y22103792D01*
X-13894162Y22103792D01*
G37*
G36*
X-16434162Y22103792D02*
G01*
X-16286569Y22042657D01*
X-16153740Y21953903D01*
X-16040777Y21840940D01*
X-15952023Y21708111D01*
X-15890888Y21560518D01*
X-15859722Y21403835D01*
X-15859722Y21244081D01*
X-15890888Y21087398D01*
X-15952023Y20939805D01*
X-16040777Y20806976D01*
X-16153740Y20694013D01*
X-16286569Y20605259D01*
X-16286570Y20605258D01*
X-16286571Y20605258D01*
X-16434162Y20544124D01*
X-16590844Y20512958D01*
X-16750600Y20512958D01*
X-16907282Y20544124D01*
X-17054873Y20605258D01*
X-17054874Y20605258D01*
X-17054875Y20605259D01*
X-17187704Y20694013D01*
X-17300667Y20806976D01*
X-17389421Y20939805D01*
X-17450556Y21087398D01*
X-17481722Y21244081D01*
X-17481722Y21403835D01*
X-17450556Y21560518D01*
X-17389421Y21708111D01*
X-17300667Y21840940D01*
X-17187704Y21953903D01*
X-17054875Y22042657D01*
X-16907282Y22103792D01*
X-16750600Y22134958D01*
X-16590844Y22134958D01*
X-16434162Y22103792D01*
X-16434162Y22103792D01*
G37*
G36*
X-18974162Y22103792D02*
G01*
X-18826569Y22042657D01*
X-18693740Y21953903D01*
X-18580777Y21840940D01*
X-18492023Y21708111D01*
X-18430888Y21560518D01*
X-18399722Y21403835D01*
X-18399722Y21244081D01*
X-18430888Y21087398D01*
X-18492023Y20939805D01*
X-18580777Y20806976D01*
X-18693740Y20694013D01*
X-18826569Y20605259D01*
X-18826570Y20605258D01*
X-18826571Y20605258D01*
X-18974162Y20544124D01*
X-19130844Y20512958D01*
X-19290600Y20512958D01*
X-19447282Y20544124D01*
X-19594873Y20605258D01*
X-19594874Y20605258D01*
X-19594875Y20605259D01*
X-19727704Y20694013D01*
X-19840667Y20806976D01*
X-19929421Y20939805D01*
X-19990556Y21087398D01*
X-20021722Y21244081D01*
X-20021722Y21403835D01*
X-19990556Y21560518D01*
X-19929421Y21708111D01*
X-19840667Y21840940D01*
X-19727704Y21953903D01*
X-19594875Y22042657D01*
X-19447282Y22103792D01*
X-19290600Y22134958D01*
X-19130844Y22134958D01*
X-18974162Y22103792D01*
X-18974162Y22103792D01*
G37*
G36*
X-8814162Y24643792D02*
G01*
X-8666569Y24582657D01*
X-8533740Y24493903D01*
X-8420777Y24380940D01*
X-8332023Y24248111D01*
X-8270888Y24100518D01*
X-8239722Y23943835D01*
X-8239722Y23784081D01*
X-8270888Y23627398D01*
X-8332023Y23479805D01*
X-8420777Y23346976D01*
X-8533740Y23234013D01*
X-8666569Y23145259D01*
X-8666570Y23145258D01*
X-8666571Y23145258D01*
X-8814162Y23084124D01*
X-8970844Y23052958D01*
X-9130600Y23052958D01*
X-9287282Y23084124D01*
X-9434873Y23145258D01*
X-9434874Y23145258D01*
X-9434875Y23145259D01*
X-9567704Y23234013D01*
X-9680667Y23346976D01*
X-9769421Y23479805D01*
X-9830556Y23627398D01*
X-9861722Y23784081D01*
X-9861722Y23943835D01*
X-9830556Y24100518D01*
X-9769421Y24248111D01*
X-9680667Y24380940D01*
X-9567704Y24493903D01*
X-9434875Y24582657D01*
X-9287282Y24643792D01*
X-9130600Y24674958D01*
X-8970844Y24674958D01*
X-8814162Y24643792D01*
X-8814162Y24643792D01*
G37*
G36*
X-5699722Y23052958D02*
G01*
X-7321722Y23052958D01*
X-7321722Y24674958D01*
X-5699722Y24674958D01*
X-5699722Y23052958D01*
X-5699722Y23052958D01*
G37*
G36*
X-21514162Y24643792D02*
G01*
X-21366569Y24582657D01*
X-21233740Y24493903D01*
X-21120777Y24380940D01*
X-21032023Y24248111D01*
X-20970888Y24100518D01*
X-20939722Y23943835D01*
X-20939722Y23784081D01*
X-20970888Y23627398D01*
X-21032023Y23479805D01*
X-21120777Y23346976D01*
X-21233740Y23234013D01*
X-21366569Y23145259D01*
X-21366570Y23145258D01*
X-21366571Y23145258D01*
X-21514162Y23084124D01*
X-21670844Y23052958D01*
X-21830600Y23052958D01*
X-21987282Y23084124D01*
X-22134873Y23145258D01*
X-22134874Y23145258D01*
X-22134875Y23145259D01*
X-22267704Y23234013D01*
X-22380667Y23346976D01*
X-22469421Y23479805D01*
X-22530556Y23627398D01*
X-22561722Y23784081D01*
X-22561722Y23943835D01*
X-22530556Y24100518D01*
X-22469421Y24248111D01*
X-22380667Y24380940D01*
X-22267704Y24493903D01*
X-22134875Y24582657D01*
X-21987282Y24643792D01*
X-21830600Y24674958D01*
X-21670844Y24674958D01*
X-21514162Y24643792D01*
X-21514162Y24643792D01*
G37*
G36*
X-24054162Y24643792D02*
G01*
X-23906569Y24582657D01*
X-23773740Y24493903D01*
X-23660777Y24380940D01*
X-23572023Y24248111D01*
X-23510888Y24100518D01*
X-23479722Y23943835D01*
X-23479722Y23784081D01*
X-23510888Y23627398D01*
X-23572023Y23479805D01*
X-23660777Y23346976D01*
X-23773740Y23234013D01*
X-23906569Y23145259D01*
X-23906570Y23145258D01*
X-23906571Y23145258D01*
X-24054162Y23084124D01*
X-24210844Y23052958D01*
X-24370600Y23052958D01*
X-24527282Y23084124D01*
X-24674873Y23145258D01*
X-24674874Y23145258D01*
X-24674875Y23145259D01*
X-24807704Y23234013D01*
X-24920667Y23346976D01*
X-25009421Y23479805D01*
X-25070556Y23627398D01*
X-25101722Y23784081D01*
X-25101722Y23943835D01*
X-25070556Y24100518D01*
X-25009421Y24248111D01*
X-24920667Y24380940D01*
X-24807704Y24493903D01*
X-24674875Y24582657D01*
X-24527282Y24643792D01*
X-24370600Y24674958D01*
X-24210844Y24674958D01*
X-24054162Y24643792D01*
X-24054162Y24643792D01*
G37*
G36*
X-26594162Y24643792D02*
G01*
X-26446569Y24582657D01*
X-26313740Y24493903D01*
X-26200777Y24380940D01*
X-26112023Y24248111D01*
X-26050888Y24100518D01*
X-26019722Y23943835D01*
X-26019722Y23784081D01*
X-26050888Y23627398D01*
X-26112023Y23479805D01*
X-26200777Y23346976D01*
X-26313740Y23234013D01*
X-26446569Y23145259D01*
X-26446570Y23145258D01*
X-26446571Y23145258D01*
X-26594162Y23084124D01*
X-26750844Y23052958D01*
X-26910600Y23052958D01*
X-27067282Y23084124D01*
X-27214873Y23145258D01*
X-27214874Y23145258D01*
X-27214875Y23145259D01*
X-27347704Y23234013D01*
X-27460667Y23346976D01*
X-27549421Y23479805D01*
X-27610556Y23627398D01*
X-27641722Y23784081D01*
X-27641722Y23943835D01*
X-27610556Y24100518D01*
X-27549421Y24248111D01*
X-27460667Y24380940D01*
X-27347704Y24493903D01*
X-27214875Y24582657D01*
X-27067282Y24643792D01*
X-26910600Y24674958D01*
X-26750844Y24674958D01*
X-26594162Y24643792D01*
X-26594162Y24643792D01*
G37*
G36*
X-29134162Y24643792D02*
G01*
X-28986569Y24582657D01*
X-28853740Y24493903D01*
X-28740777Y24380940D01*
X-28652023Y24248111D01*
X-28590888Y24100518D01*
X-28559722Y23943835D01*
X-28559722Y23784081D01*
X-28590888Y23627398D01*
X-28652023Y23479805D01*
X-28740777Y23346976D01*
X-28853740Y23234013D01*
X-28986569Y23145259D01*
X-28986570Y23145258D01*
X-28986571Y23145258D01*
X-29134162Y23084124D01*
X-29290844Y23052958D01*
X-29450600Y23052958D01*
X-29607282Y23084124D01*
X-29754873Y23145258D01*
X-29754874Y23145258D01*
X-29754875Y23145259D01*
X-29887704Y23234013D01*
X-30000667Y23346976D01*
X-30089421Y23479805D01*
X-30150556Y23627398D01*
X-30181722Y23784081D01*
X-30181722Y23943835D01*
X-30150556Y24100518D01*
X-30089421Y24248111D01*
X-30000667Y24380940D01*
X-29887704Y24493903D01*
X-29754875Y24582657D01*
X-29607282Y24643792D01*
X-29450600Y24674958D01*
X-29290844Y24674958D01*
X-29134162Y24643792D01*
X-29134162Y24643792D01*
G37*
G36*
X-18974162Y24643792D02*
G01*
X-18826569Y24582657D01*
X-18693740Y24493903D01*
X-18580777Y24380940D01*
X-18492023Y24248111D01*
X-18430888Y24100518D01*
X-18399722Y23943835D01*
X-18399722Y23784081D01*
X-18430888Y23627398D01*
X-18492023Y23479805D01*
X-18580777Y23346976D01*
X-18693740Y23234013D01*
X-18826569Y23145259D01*
X-18826570Y23145258D01*
X-18826571Y23145258D01*
X-18974162Y23084124D01*
X-19130844Y23052958D01*
X-19290600Y23052958D01*
X-19447282Y23084124D01*
X-19594873Y23145258D01*
X-19594874Y23145258D01*
X-19594875Y23145259D01*
X-19727704Y23234013D01*
X-19840667Y23346976D01*
X-19929421Y23479805D01*
X-19990556Y23627398D01*
X-20021722Y23784081D01*
X-20021722Y23943835D01*
X-19990556Y24100518D01*
X-19929421Y24248111D01*
X-19840667Y24380940D01*
X-19727704Y24493903D01*
X-19594875Y24582657D01*
X-19447282Y24643792D01*
X-19290600Y24674958D01*
X-19130844Y24674958D01*
X-18974162Y24643792D01*
X-18974162Y24643792D01*
G37*
G36*
X-16434162Y24643792D02*
G01*
X-16286569Y24582657D01*
X-16153740Y24493903D01*
X-16040777Y24380940D01*
X-15952023Y24248111D01*
X-15890888Y24100518D01*
X-15859722Y23943835D01*
X-15859722Y23784081D01*
X-15890888Y23627398D01*
X-15952023Y23479805D01*
X-16040777Y23346976D01*
X-16153740Y23234013D01*
X-16286569Y23145259D01*
X-16286570Y23145258D01*
X-16286571Y23145258D01*
X-16434162Y23084124D01*
X-16590844Y23052958D01*
X-16750600Y23052958D01*
X-16907282Y23084124D01*
X-17054873Y23145258D01*
X-17054874Y23145258D01*
X-17054875Y23145259D01*
X-17187704Y23234013D01*
X-17300667Y23346976D01*
X-17389421Y23479805D01*
X-17450556Y23627398D01*
X-17481722Y23784081D01*
X-17481722Y23943835D01*
X-17450556Y24100518D01*
X-17389421Y24248111D01*
X-17300667Y24380940D01*
X-17187704Y24493903D01*
X-17054875Y24582657D01*
X-16907282Y24643792D01*
X-16750600Y24674958D01*
X-16590844Y24674958D01*
X-16434162Y24643792D01*
X-16434162Y24643792D01*
G37*
G36*
X-11354162Y24643792D02*
G01*
X-11206569Y24582657D01*
X-11073740Y24493903D01*
X-10960777Y24380940D01*
X-10872023Y24248111D01*
X-10810888Y24100518D01*
X-10779722Y23943835D01*
X-10779722Y23784081D01*
X-10810888Y23627398D01*
X-10872023Y23479805D01*
X-10960777Y23346976D01*
X-11073740Y23234013D01*
X-11206569Y23145259D01*
X-11206570Y23145258D01*
X-11206571Y23145258D01*
X-11354162Y23084124D01*
X-11510844Y23052958D01*
X-11670600Y23052958D01*
X-11827282Y23084124D01*
X-11974873Y23145258D01*
X-11974874Y23145258D01*
X-11974875Y23145259D01*
X-12107704Y23234013D01*
X-12220667Y23346976D01*
X-12309421Y23479805D01*
X-12370556Y23627398D01*
X-12401722Y23784081D01*
X-12401722Y23943835D01*
X-12370556Y24100518D01*
X-12309421Y24248111D01*
X-12220667Y24380940D01*
X-12107704Y24493903D01*
X-11974875Y24582657D01*
X-11827282Y24643792D01*
X-11670600Y24674958D01*
X-11510844Y24674958D01*
X-11354162Y24643792D01*
X-11354162Y24643792D01*
G37*
G36*
X-13894162Y24643792D02*
G01*
X-13746569Y24582657D01*
X-13613740Y24493903D01*
X-13500777Y24380940D01*
X-13412023Y24248111D01*
X-13350888Y24100518D01*
X-13319722Y23943835D01*
X-13319722Y23784081D01*
X-13350888Y23627398D01*
X-13412023Y23479805D01*
X-13500777Y23346976D01*
X-13613740Y23234013D01*
X-13746569Y23145259D01*
X-13746570Y23145258D01*
X-13746571Y23145258D01*
X-13894162Y23084124D01*
X-14050844Y23052958D01*
X-14210600Y23052958D01*
X-14367282Y23084124D01*
X-14514873Y23145258D01*
X-14514874Y23145258D01*
X-14514875Y23145259D01*
X-14647704Y23234013D01*
X-14760667Y23346976D01*
X-14849421Y23479805D01*
X-14910556Y23627398D01*
X-14941722Y23784081D01*
X-14941722Y23943835D01*
X-14910556Y24100518D01*
X-14849421Y24248111D01*
X-14760667Y24380940D01*
X-14647704Y24493903D01*
X-14514875Y24582657D01*
X-14367282Y24643792D01*
X-14210600Y24674958D01*
X-14050844Y24674958D01*
X-13894162Y24643792D01*
X-13894162Y24643792D01*
G37*
M02*
